<svg width="571" height="183" viewBox="0 0 571 183" fill="none" xmlns="http://www.w3.org/2000/svg">
<rect x="26" y="0.5" width="544" height="166" stroke="#BDBDBD" stroke-dasharray="1 1"/>
<path d="M26.5 49L570.5 48.0216" stroke="#BDBDBD" stroke-dasharray="2 2"/>
<path d="M26.5 26H570.5" stroke="#BDBDBD" stroke-dasharray="2 2"/>
<path d="M26.5 72L570.5 72.9784" stroke="#BDBDBD" stroke-dasharray="2 2"/>
<path d="M26.5 95H570.5" stroke="#BDBDBD" stroke-dasharray="2 2"/>
<path d="M26.5 118L570.5 116" stroke="#BDBDBD" stroke-dasharray="2 2"/>
<path d="M26.5 141L570.5 142.953" stroke="#BDBDBD" stroke-dasharray="2 2"/>
<path d="M97.5 0L97.5 167" stroke="#BDBDBD" stroke-dasharray="2 2"/>
<path d="M175.5 0L175.5 167" stroke="#BDBDBD" stroke-dasharray="2 2"/>
<path d="M253.5 0L253.5 167" stroke="#BDBDBD" stroke-dasharray="2 2"/>
<path d="M331.5 0L331.5 167" stroke="#BDBDBD" stroke-dasharray="2 2"/>
<path d="M409.5 0L409.5 167" stroke="#BDBDBD" stroke-dasharray="2 2"/>
<path d="M487.5 0L487.5 167" stroke="#BDBDBD" stroke-dasharray="2 2"/>
<path d="M25.996 177.048C25.996 176.131 26.1453 175.416 26.444 174.904C26.7427 174.387 27.2653 174.128 28.012 174.128C28.7533 174.128 29.2733 174.387 29.572 174.904C29.8707 175.416 30.02 176.131 30.02 177.048C30.02 177.981 29.8707 178.707 29.572 179.224C29.2733 179.741 28.7533 180 28.012 180C27.2653 180 26.7427 179.741 26.444 179.224C26.1453 178.707 25.996 177.981 25.996 177.048ZM29.3 177.048C29.3 176.584 29.268 176.192 29.204 175.872C29.1453 175.547 29.02 175.285 28.828 175.088C28.6413 174.891 28.3693 174.792 28.012 174.792C27.6493 174.792 27.372 174.891 27.18 175.088C26.9933 175.285 26.868 175.547 26.804 175.872C26.7453 176.192 26.716 176.584 26.716 177.048C26.716 177.528 26.7453 177.931 26.804 178.256C26.868 178.581 26.9933 178.843 27.18 179.04C27.372 179.237 27.6493 179.336 28.012 179.336C28.3693 179.336 28.6413 179.237 28.828 179.04C29.02 178.843 29.1453 178.581 29.204 178.256C29.268 177.931 29.3 177.528 29.3 177.048ZM33.7474 180L32.0274 178.064V180H31.2994V174.08H32.0274V177.56L33.7154 175.616H34.7314L32.6674 177.8L34.7394 180H33.7474ZM37.3846 175.544C37.7633 175.544 38.094 175.627 38.3766 175.792C38.6646 175.957 38.878 176.165 39.0166 176.416V175.616H39.7526V180.096C39.7526 180.496 39.6673 180.851 39.4966 181.16C39.326 181.475 39.0806 181.72 38.7606 181.896C38.446 182.072 38.078 182.16 37.6566 182.16C37.0806 182.16 36.6006 182.024 36.2166 181.752C35.8326 181.48 35.606 181.109 35.5366 180.64H36.2566C36.3366 180.907 36.502 181.12 36.7526 181.28C37.0033 181.445 37.3046 181.528 37.6566 181.528C38.0566 181.528 38.382 181.403 38.6326 181.152C38.8886 180.901 39.0166 180.549 39.0166 180.096V179.176C38.8726 179.432 38.6593 179.645 38.3766 179.816C38.094 179.987 37.7633 180.072 37.3846 180.072C36.9953 180.072 36.6406 179.976 36.3206 179.784C36.006 179.592 35.758 179.323 35.5766 178.976C35.3953 178.629 35.3046 178.235 35.3046 177.792C35.3046 177.344 35.3953 176.952 35.5766 176.616C35.758 176.275 36.006 176.011 36.3206 175.824C36.6406 175.637 36.9953 175.544 37.3846 175.544ZM39.0166 177.8C39.0166 177.469 38.95 177.181 38.8166 176.936C38.6833 176.691 38.502 176.504 38.2726 176.376C38.0486 176.243 37.8006 176.176 37.5286 176.176C37.2566 176.176 37.0086 176.24 36.7846 176.368C36.5606 176.496 36.382 176.683 36.2486 176.928C36.1153 177.173 36.0486 177.461 36.0486 177.792C36.0486 178.128 36.1153 178.421 36.2486 178.672C36.382 178.917 36.5606 179.107 36.7846 179.24C37.0086 179.368 37.2566 179.432 37.5286 179.432C37.8006 179.432 38.0486 179.368 38.2726 179.24C38.502 179.107 38.6833 178.917 38.8166 178.672C38.95 178.421 39.0166 178.131 39.0166 177.8Z" fill="#4F4F4F"/>
<path d="M97.908 178.416C98.5853 177.872 99.116 177.427 99.5 177.08C99.884 176.728 100.207 176.363 100.468 175.984C100.735 175.6 100.868 175.224 100.868 174.856C100.868 174.509 100.783 174.237 100.612 174.04C100.447 173.837 100.177 173.736 99.804 173.736C99.4413 173.736 99.1587 173.851 98.956 174.08C98.7587 174.304 98.652 174.605 98.636 174.984H97.932C97.9533 174.387 98.1347 173.925 98.476 173.6C98.8173 173.275 99.2573 173.112 99.796 173.112C100.345 173.112 100.78 173.264 101.1 173.568C101.425 173.872 101.588 174.291 101.588 174.824C101.588 175.267 101.455 175.699 101.188 176.12C100.927 176.536 100.628 176.904 100.292 177.224C99.956 177.539 99.5267 177.907 99.004 178.328H101.756V178.936H97.908V178.416ZM102.758 176.048C102.758 175.131 102.907 174.416 103.206 173.904C103.504 173.387 104.027 173.128 104.774 173.128C105.515 173.128 106.035 173.387 106.334 173.904C106.632 174.416 106.782 175.131 106.782 176.048C106.782 176.981 106.632 177.707 106.334 178.224C106.035 178.741 105.515 179 104.774 179C104.027 179 103.504 178.741 103.206 178.224C102.907 177.707 102.758 176.981 102.758 176.048ZM106.062 176.048C106.062 175.584 106.03 175.192 105.966 174.872C105.907 174.547 105.782 174.285 105.59 174.088C105.403 173.891 105.131 173.792 104.774 173.792C104.411 173.792 104.134 173.891 103.942 174.088C103.755 174.285 103.63 174.547 103.566 174.872C103.507 175.192 103.478 175.584 103.478 176.048C103.478 176.528 103.507 176.931 103.566 177.256C103.63 177.581 103.755 177.843 103.942 178.04C104.134 178.237 104.411 178.336 104.774 178.336C105.131 178.336 105.403 178.237 105.59 178.04C105.782 177.843 105.907 177.581 105.966 177.256C106.03 176.931 106.062 176.528 106.062 176.048ZM110.509 179L108.789 177.064V179H108.061V173.08H108.789V176.56L110.477 174.616H111.493L109.429 176.8L111.501 179H110.509ZM114.146 174.544C114.525 174.544 114.856 174.627 115.138 174.792C115.426 174.957 115.64 175.165 115.778 175.416V174.616H116.514V179.096C116.514 179.496 116.429 179.851 116.258 180.16C116.088 180.475 115.842 180.72 115.522 180.896C115.208 181.072 114.84 181.16 114.418 181.16C113.842 181.16 113.362 181.024 112.978 180.752C112.594 180.48 112.368 180.109 112.298 179.64H113.018C113.098 179.907 113.264 180.12 113.514 180.28C113.765 180.445 114.066 180.528 114.418 180.528C114.818 180.528 115.144 180.403 115.394 180.152C115.65 179.901 115.778 179.549 115.778 179.096V178.176C115.634 178.432 115.421 178.645 115.138 178.816C114.856 178.987 114.525 179.072 114.146 179.072C113.757 179.072 113.402 178.976 113.082 178.784C112.768 178.592 112.52 178.323 112.338 177.976C112.157 177.629 112.066 177.235 112.066 176.792C112.066 176.344 112.157 175.952 112.338 175.616C112.52 175.275 112.768 175.011 113.082 174.824C113.402 174.637 113.757 174.544 114.146 174.544ZM115.778 176.8C115.778 176.469 115.712 176.181 115.578 175.936C115.445 175.691 115.264 175.504 115.034 175.376C114.81 175.243 114.562 175.176 114.29 175.176C114.018 175.176 113.77 175.24 113.546 175.368C113.322 175.496 113.144 175.683 113.01 175.928C112.877 176.173 112.81 176.461 112.81 176.792C112.81 177.128 112.877 177.421 113.01 177.672C113.144 177.917 113.322 178.107 113.546 178.24C113.77 178.368 114.018 178.432 114.29 178.432C114.562 178.432 114.81 178.368 115.034 178.24C115.264 178.107 115.445 177.917 115.578 177.672C115.712 177.421 115.778 177.131 115.778 176.8Z" fill="#4F4F4F"/>
<path d="M175.82 177.712V177.16L178.628 173.272H179.5V177.08H180.3V177.712H179.5V179H178.78V177.712H175.82ZM178.812 174.032L176.66 177.08H178.812V174.032ZM181.187 176.048C181.187 175.131 181.337 174.416 181.635 173.904C181.934 173.387 182.457 173.128 183.203 173.128C183.945 173.128 184.465 173.387 184.763 173.904C185.062 174.416 185.211 175.131 185.211 176.048C185.211 176.981 185.062 177.707 184.763 178.224C184.465 178.741 183.945 179 183.203 179C182.457 179 181.934 178.741 181.635 178.224C181.337 177.707 181.187 176.981 181.187 176.048ZM184.491 176.048C184.491 175.584 184.459 175.192 184.395 174.872C184.337 174.547 184.211 174.285 184.019 174.088C183.833 173.891 183.561 173.792 183.203 173.792C182.841 173.792 182.563 173.891 182.371 174.088C182.185 174.285 182.059 174.547 181.995 174.872C181.937 175.192 181.907 175.584 181.907 176.048C181.907 176.528 181.937 176.931 181.995 177.256C182.059 177.581 182.185 177.843 182.371 178.04C182.563 178.237 182.841 178.336 183.203 178.336C183.561 178.336 183.833 178.237 184.019 178.04C184.211 177.843 184.337 177.581 184.395 177.256C184.459 176.931 184.491 176.528 184.491 176.048ZM188.939 179L187.219 177.064V179H186.491V173.08H187.219V176.56L188.907 174.616H189.923L187.859 176.8L189.931 179H188.939ZM192.576 174.544C192.955 174.544 193.285 174.627 193.568 174.792C193.856 174.957 194.069 175.165 194.208 175.416V174.616H194.944V179.096C194.944 179.496 194.859 179.851 194.688 180.16C194.517 180.475 194.272 180.72 193.952 180.896C193.637 181.072 193.269 181.16 192.848 181.16C192.272 181.16 191.792 181.024 191.408 180.752C191.024 180.48 190.797 180.109 190.728 179.64H191.448C191.528 179.907 191.693 180.12 191.944 180.28C192.195 180.445 192.496 180.528 192.848 180.528C193.248 180.528 193.573 180.403 193.824 180.152C194.08 179.901 194.208 179.549 194.208 179.096V178.176C194.064 178.432 193.851 178.645 193.568 178.816C193.285 178.987 192.955 179.072 192.576 179.072C192.187 179.072 191.832 178.976 191.512 178.784C191.197 178.592 190.949 178.323 190.768 177.976C190.587 177.629 190.496 177.235 190.496 176.792C190.496 176.344 190.587 175.952 190.768 175.616C190.949 175.275 191.197 175.011 191.512 174.824C191.832 174.637 192.187 174.544 192.576 174.544ZM194.208 176.8C194.208 176.469 194.141 176.181 194.008 175.936C193.875 175.691 193.693 175.504 193.464 175.376C193.24 175.243 192.992 175.176 192.72 175.176C192.448 175.176 192.2 175.24 191.976 175.368C191.752 175.496 191.573 175.683 191.44 175.928C191.307 176.173 191.24 176.461 191.24 176.792C191.24 177.128 191.307 177.421 191.44 177.672C191.573 177.917 191.752 178.107 191.976 178.24C192.2 178.368 192.448 178.432 192.72 178.432C192.992 178.432 193.24 178.368 193.464 178.24C193.693 178.107 193.875 177.917 194.008 177.672C194.141 177.421 194.208 177.131 194.208 176.8Z" fill="#4F4F4F"/>
<path d="M257.22 174.592C257.103 174 256.737 173.704 256.124 173.704C255.649 173.704 255.295 173.888 255.06 174.256C254.825 174.619 254.711 175.219 254.716 176.056C254.839 175.779 255.041 175.563 255.324 175.408C255.612 175.248 255.932 175.168 256.284 175.168C256.833 175.168 257.271 175.339 257.596 175.68C257.927 176.021 258.092 176.493 258.092 177.096C258.092 177.459 258.02 177.784 257.876 178.072C257.737 178.36 257.524 178.589 257.236 178.76C256.953 178.931 256.609 179.016 256.204 179.016C255.655 179.016 255.225 178.893 254.916 178.648C254.607 178.403 254.391 178.064 254.268 177.632C254.145 177.2 254.084 176.667 254.084 176.032C254.084 174.075 254.767 173.096 256.132 173.096C256.655 173.096 257.065 173.237 257.364 173.52C257.663 173.803 257.839 174.16 257.892 174.592H257.22ZM256.132 175.784C255.903 175.784 255.687 175.832 255.484 175.928C255.281 176.019 255.116 176.16 254.988 176.352C254.865 176.539 254.804 176.768 254.804 177.04C254.804 177.445 254.921 177.776 255.156 178.032C255.391 178.283 255.727 178.408 256.164 178.408C256.537 178.408 256.833 178.293 257.052 178.064C257.276 177.829 257.388 177.515 257.388 177.12C257.388 176.704 257.281 176.379 257.068 176.144C256.855 175.904 256.543 175.784 256.132 175.784ZM259.234 176.048C259.234 175.131 259.383 174.416 259.682 173.904C259.981 173.387 260.503 173.128 261.25 173.128C261.991 173.128 262.511 173.387 262.81 173.904C263.109 174.416 263.258 175.131 263.258 176.048C263.258 176.981 263.109 177.707 262.81 178.224C262.511 178.741 261.991 179 261.25 179C260.503 179 259.981 178.741 259.682 178.224C259.383 177.707 259.234 176.981 259.234 176.048ZM262.538 176.048C262.538 175.584 262.506 175.192 262.442 174.872C262.383 174.547 262.258 174.285 262.066 174.088C261.879 173.891 261.607 173.792 261.25 173.792C260.887 173.792 260.61 173.891 260.418 174.088C260.231 174.285 260.106 174.547 260.042 174.872C259.983 175.192 259.954 175.584 259.954 176.048C259.954 176.528 259.983 176.931 260.042 177.256C260.106 177.581 260.231 177.843 260.418 178.04C260.61 178.237 260.887 178.336 261.25 178.336C261.607 178.336 261.879 178.237 262.066 178.04C262.258 177.843 262.383 177.581 262.442 177.256C262.506 176.931 262.538 176.528 262.538 176.048ZM266.986 179L265.266 177.064V179H264.538V173.08H265.266V176.56L266.954 174.616H267.97L265.906 176.8L267.978 179H266.986ZM270.623 174.544C271.001 174.544 271.332 174.627 271.615 174.792C271.903 174.957 272.116 175.165 272.255 175.416V174.616H272.991V179.096C272.991 179.496 272.905 179.851 272.735 180.16C272.564 180.475 272.319 180.72 271.999 180.896C271.684 181.072 271.316 181.16 270.895 181.16C270.319 181.16 269.839 181.024 269.455 180.752C269.071 180.48 268.844 180.109 268.775 179.64H269.495C269.575 179.907 269.74 180.12 269.991 180.28C270.241 180.445 270.543 180.528 270.895 180.528C271.295 180.528 271.62 180.403 271.871 180.152C272.127 179.901 272.255 179.549 272.255 179.096V178.176C272.111 178.432 271.897 178.645 271.615 178.816C271.332 178.987 271.001 179.072 270.623 179.072C270.233 179.072 269.879 178.976 269.559 178.784C269.244 178.592 268.996 178.323 268.815 177.976C268.633 177.629 268.543 177.235 268.543 176.792C268.543 176.344 268.633 175.952 268.815 175.616C268.996 175.275 269.244 175.011 269.559 174.824C269.879 174.637 270.233 174.544 270.623 174.544ZM272.255 176.8C272.255 176.469 272.188 176.181 272.055 175.936C271.921 175.691 271.74 175.504 271.511 175.376C271.287 175.243 271.039 175.176 270.767 175.176C270.495 175.176 270.247 175.24 270.023 175.368C269.799 175.496 269.62 175.683 269.487 175.928C269.353 176.173 269.287 176.461 269.287 176.792C269.287 177.128 269.353 177.421 269.487 177.672C269.62 177.917 269.799 178.107 270.023 178.24C270.247 178.368 270.495 178.432 270.767 178.432C271.039 178.432 271.287 178.368 271.511 178.24C271.74 178.107 271.921 177.917 272.055 177.672C272.188 177.421 272.255 177.131 272.255 176.8Z" fill="#4F4F4F"/>
<path d="M331.052 175.992C330.753 175.875 330.524 175.704 330.364 175.48C330.204 175.256 330.124 174.984 330.124 174.664C330.124 174.376 330.196 174.117 330.34 173.888C330.484 173.653 330.697 173.469 330.98 173.336C331.268 173.197 331.615 173.128 332.02 173.128C332.425 173.128 332.769 173.197 333.052 173.336C333.34 173.469 333.556 173.653 333.7 173.888C333.849 174.117 333.924 174.376 333.924 174.664C333.924 174.973 333.841 175.245 333.676 175.48C333.511 175.709 333.284 175.88 332.996 175.992C333.327 176.093 333.588 176.272 333.78 176.528C333.977 176.779 334.076 177.083 334.076 177.44C334.076 177.787 333.991 178.091 333.82 178.352C333.649 178.608 333.407 178.808 333.092 178.952C332.783 179.091 332.425 179.16 332.02 179.16C331.615 179.16 331.257 179.091 330.948 178.952C330.644 178.808 330.407 178.608 330.236 178.352C330.065 178.091 329.98 177.787 329.98 177.44C329.98 177.083 330.076 176.776 330.268 176.52C330.46 176.264 330.721 176.088 331.052 175.992ZM333.22 174.752C333.22 174.427 333.113 174.176 332.9 174C332.687 173.824 332.393 173.736 332.02 173.736C331.652 173.736 331.361 173.824 331.148 174C330.935 174.176 330.828 174.429 330.828 174.76C330.828 175.059 330.937 175.299 331.156 175.48C331.38 175.661 331.668 175.752 332.02 175.752C332.377 175.752 332.665 175.661 332.884 175.48C333.108 175.293 333.22 175.051 333.22 174.752ZM332.02 176.312C331.625 176.312 331.303 176.405 331.052 176.592C330.801 176.773 330.676 177.048 330.676 177.416C330.676 177.757 330.796 178.032 331.036 178.24C331.281 178.448 331.609 178.552 332.02 178.552C332.431 178.552 332.756 178.448 332.996 178.24C333.236 178.032 333.356 177.757 333.356 177.416C333.356 177.059 333.233 176.787 332.988 176.6C332.743 176.408 332.42 176.312 332.02 176.312ZM335.203 176.048C335.203 175.131 335.352 174.416 335.651 173.904C335.95 173.387 336.472 173.128 337.219 173.128C337.96 173.128 338.48 173.387 338.779 173.904C339.078 174.416 339.227 175.131 339.227 176.048C339.227 176.981 339.078 177.707 338.779 178.224C338.48 178.741 337.96 179 337.219 179C336.472 179 335.95 178.741 335.651 178.224C335.352 177.707 335.203 176.981 335.203 176.048ZM338.507 176.048C338.507 175.584 338.475 175.192 338.411 174.872C338.352 174.547 338.227 174.285 338.035 174.088C337.848 173.891 337.576 173.792 337.219 173.792C336.856 173.792 336.579 173.891 336.387 174.088C336.2 174.285 336.075 174.547 336.011 174.872C335.952 175.192 335.923 175.584 335.923 176.048C335.923 176.528 335.952 176.931 336.011 177.256C336.075 177.581 336.2 177.843 336.387 178.04C336.579 178.237 336.856 178.336 337.219 178.336C337.576 178.336 337.848 178.237 338.035 178.04C338.227 177.843 338.352 177.581 338.411 177.256C338.475 176.931 338.507 176.528 338.507 176.048ZM342.954 179L341.234 177.064V179H340.506V173.08H341.234V176.56L342.922 174.616H343.938L341.874 176.8L343.946 179H342.954ZM346.591 174.544C346.97 174.544 347.301 174.627 347.583 174.792C347.871 174.957 348.085 175.165 348.223 175.416V174.616H348.959V179.096C348.959 179.496 348.874 179.851 348.703 180.16C348.533 180.475 348.287 180.72 347.967 180.896C347.653 181.072 347.285 181.16 346.863 181.16C346.287 181.16 345.807 181.024 345.423 180.752C345.039 180.48 344.813 180.109 344.743 179.64H345.463C345.543 179.907 345.709 180.12 345.959 180.28C346.21 180.445 346.511 180.528 346.863 180.528C347.263 180.528 347.589 180.403 347.839 180.152C348.095 179.901 348.223 179.549 348.223 179.096V178.176C348.079 178.432 347.866 178.645 347.583 178.816C347.301 178.987 346.97 179.072 346.591 179.072C346.202 179.072 345.847 178.976 345.527 178.784C345.213 178.592 344.965 178.323 344.783 177.976C344.602 177.629 344.511 177.235 344.511 176.792C344.511 176.344 344.602 175.952 344.783 175.616C344.965 175.275 345.213 175.011 345.527 174.824C345.847 174.637 346.202 174.544 346.591 174.544ZM348.223 176.8C348.223 176.469 348.157 176.181 348.023 175.936C347.89 175.691 347.709 175.504 347.479 175.376C347.255 175.243 347.007 175.176 346.735 175.176C346.463 175.176 346.215 175.24 345.991 175.368C345.767 175.496 345.589 175.683 345.455 175.928C345.322 176.173 345.255 176.461 345.255 176.792C345.255 177.128 345.322 177.421 345.455 177.672C345.589 177.917 345.767 178.107 345.991 178.24C346.215 178.368 346.463 178.432 346.735 178.432C347.007 178.432 347.255 178.368 347.479 178.24C347.709 178.107 347.89 177.917 348.023 177.672C348.157 177.421 348.223 177.131 348.223 176.8Z" fill="#4F4F4F"/>
<path d="M407.804 171.88V171.216H409.308V177H408.572V171.88H407.804ZM410.719 174.048C410.719 173.131 410.868 172.416 411.167 171.904C411.465 171.387 411.988 171.128 412.735 171.128C413.476 171.128 413.996 171.387 414.295 171.904C414.593 172.416 414.743 173.131 414.743 174.048C414.743 174.981 414.593 175.707 414.295 176.224C413.996 176.741 413.476 177 412.735 177C411.988 177 411.465 176.741 411.167 176.224C410.868 175.707 410.719 174.981 410.719 174.048ZM414.023 174.048C414.023 173.584 413.991 173.192 413.927 172.872C413.868 172.547 413.743 172.285 413.551 172.088C413.364 171.891 413.092 171.792 412.735 171.792C412.372 171.792 412.095 171.891 411.903 172.088C411.716 172.285 411.591 172.547 411.527 172.872C411.468 173.192 411.439 173.584 411.439 174.048C411.439 174.528 411.468 174.931 411.527 175.256C411.591 175.581 411.716 175.843 411.903 176.04C412.095 176.237 412.372 176.336 412.735 176.336C413.092 176.336 413.364 176.237 413.551 176.04C413.743 175.843 413.868 175.581 413.927 175.256C413.991 174.931 414.023 174.528 414.023 174.048ZM415.902 174.048C415.902 173.131 416.051 172.416 416.35 171.904C416.649 171.387 417.171 171.128 417.918 171.128C418.659 171.128 419.179 171.387 419.478 171.904C419.777 172.416 419.926 173.131 419.926 174.048C419.926 174.981 419.777 175.707 419.478 176.224C419.179 176.741 418.659 177 417.918 177C417.171 177 416.649 176.741 416.35 176.224C416.051 175.707 415.902 174.981 415.902 174.048ZM419.206 174.048C419.206 173.584 419.174 173.192 419.11 172.872C419.051 172.547 418.926 172.285 418.734 172.088C418.547 171.891 418.275 171.792 417.918 171.792C417.555 171.792 417.278 171.891 417.086 172.088C416.899 172.285 416.774 172.547 416.71 172.872C416.651 173.192 416.622 173.584 416.622 174.048C416.622 174.528 416.651 174.931 416.71 175.256C416.774 175.581 416.899 175.843 417.086 176.04C417.278 176.237 417.555 176.336 417.918 176.336C418.275 176.336 418.547 176.237 418.734 176.04C418.926 175.843 419.051 175.581 419.11 175.256C419.174 174.931 419.206 174.528 419.206 174.048ZM423.653 177L421.933 175.064V177H421.205V171.08H421.933V174.56L423.621 172.616H424.637L422.573 174.8L424.645 177H423.653ZM427.291 172.544C427.669 172.544 428 172.627 428.283 172.792C428.571 172.957 428.784 173.165 428.923 173.416V172.616H429.659V177.096C429.659 177.496 429.573 177.851 429.403 178.16C429.232 178.475 428.987 178.72 428.667 178.896C428.352 179.072 427.984 179.16 427.563 179.16C426.987 179.16 426.507 179.024 426.123 178.752C425.739 178.48 425.512 178.109 425.443 177.64H426.163C426.243 177.907 426.408 178.12 426.659 178.28C426.909 178.445 427.211 178.528 427.563 178.528C427.963 178.528 428.288 178.403 428.539 178.152C428.795 177.901 428.923 177.549 428.923 177.096V176.176C428.779 176.432 428.565 176.645 428.283 176.816C428 176.987 427.669 177.072 427.291 177.072C426.901 177.072 426.547 176.976 426.227 176.784C425.912 176.592 425.664 176.323 425.483 175.976C425.301 175.629 425.211 175.235 425.211 174.792C425.211 174.344 425.301 173.952 425.483 173.616C425.664 173.275 425.912 173.011 426.227 172.824C426.547 172.637 426.901 172.544 427.291 172.544ZM428.923 174.8C428.923 174.469 428.856 174.181 428.723 173.936C428.589 173.691 428.408 173.504 428.179 173.376C427.955 173.243 427.707 173.176 427.435 173.176C427.163 173.176 426.915 173.24 426.691 173.368C426.467 173.496 426.288 173.683 426.155 173.928C426.021 174.173 425.955 174.461 425.955 174.792C425.955 175.128 426.021 175.421 426.155 175.672C426.288 175.917 426.467 176.107 426.691 176.24C426.915 176.368 427.163 176.432 427.435 176.432C427.707 176.432 427.955 176.368 428.179 176.24C428.408 176.107 428.589 175.917 428.723 175.672C428.856 175.421 428.923 175.131 428.923 174.8Z" fill="#4F4F4F"/>
<path d="M3.63431 159.056C3.26631 159.056 2.93565 158.992 2.64231 158.864C2.35431 158.731 2.12765 158.549 1.96231 158.32C1.79698 158.085 1.71165 157.816 1.70631 157.512H2.48231C2.50898 157.773 2.61565 157.995 2.80231 158.176C2.99431 158.352 3.27165 158.44 3.63431 158.44C3.98098 158.44 4.25298 158.355 4.45031 158.184C4.65298 158.008 4.75431 157.784 4.75431 157.512C4.75431 157.299 4.69565 157.125 4.57831 156.992C4.46098 156.859 4.31431 156.757 4.13831 156.688C3.96231 156.619 3.72498 156.544 3.42631 156.464C3.05831 156.368 2.76231 156.272 2.53831 156.176C2.31965 156.08 2.13031 155.931 1.97031 155.728C1.81565 155.52 1.73831 155.243 1.73831 154.896C1.73831 154.592 1.81565 154.323 1.97031 154.088C2.12498 153.853 2.34098 153.672 2.61831 153.544C2.90098 153.416 3.22365 153.352 3.58631 153.352C4.10898 153.352 4.53565 153.483 4.86631 153.744C5.20231 154.005 5.39165 154.352 5.43431 154.784H4.63431C4.60765 154.571 4.49565 154.384 4.29831 154.224C4.10098 154.059 3.83965 153.976 3.51431 153.976C3.21031 153.976 2.96231 154.056 2.77031 154.216C2.57831 154.371 2.48231 154.589 2.48231 154.872C2.48231 155.075 2.53831 155.24 2.65031 155.368C2.76765 155.496 2.90898 155.595 3.07431 155.664C3.24498 155.728 3.48231 155.803 3.78631 155.888C4.15431 155.989 4.45031 156.091 4.67431 156.192C4.89831 156.288 5.09031 156.44 5.25031 156.648C5.41031 156.851 5.49031 157.128 5.49031 157.48C5.49031 157.752 5.41831 158.008 5.27431 158.248C5.13031 158.488 4.91698 158.683 4.63431 158.832C4.35165 158.981 4.01831 159.056 3.63431 159.056ZM10.6096 154.616V159H9.88163V158.352C9.74296 158.576 9.54829 158.752 9.29763 158.88C9.05229 159.003 8.78029 159.064 8.48163 159.064C8.14029 159.064 7.83363 158.995 7.56163 158.856C7.28963 158.712 7.07363 158.499 6.91363 158.216C6.75896 157.933 6.68163 157.589 6.68163 157.184V154.616H7.40163V157.088C7.40163 157.52 7.51096 157.853 7.72963 158.088C7.94829 158.317 8.24696 158.432 8.62563 158.432C9.01496 158.432 9.32163 158.312 9.54563 158.072C9.76963 157.832 9.88163 157.483 9.88163 157.024V154.616H10.6096ZM14.1348 154.536C14.6681 154.536 15.1001 154.699 15.4308 155.024C15.7615 155.344 15.9268 155.808 15.9268 156.416V159H15.2068V156.52C15.2068 156.083 15.0975 155.749 14.8788 155.52C14.6601 155.285 14.3615 155.168 13.9828 155.168C13.5988 155.168 13.2921 155.288 13.0628 155.528C12.8388 155.768 12.7268 156.117 12.7268 156.576V159H11.9988V154.616H12.7268V155.24C12.8708 155.016 13.0655 154.843 13.3108 154.72C13.5615 154.597 13.8361 154.536 14.1348 154.536Z" fill="#4F4F4F"/>
<path d="M3.54838 132.056C3.18038 132.056 2.84971 131.992 2.55638 131.864C2.26838 131.731 2.04171 131.549 1.87638 131.32C1.71104 131.085 1.62571 130.816 1.62038 130.512H2.39638C2.42304 130.773 2.52971 130.995 2.71638 131.176C2.90838 131.352 3.18571 131.44 3.54838 131.44C3.89504 131.44 4.16704 131.355 4.36438 131.184C4.56704 131.008 4.66838 130.784 4.66838 130.512C4.66838 130.299 4.60971 130.125 4.49238 129.992C4.37504 129.859 4.22838 129.757 4.05238 129.688C3.87638 129.619 3.63904 129.544 3.34038 129.464C2.97238 129.368 2.67638 129.272 2.45238 129.176C2.23371 129.08 2.04438 128.931 1.88438 128.728C1.72971 128.52 1.65238 128.243 1.65238 127.896C1.65238 127.592 1.72971 127.323 1.88438 127.088C2.03904 126.853 2.25504 126.672 2.53238 126.544C2.81504 126.416 3.13771 126.352 3.50038 126.352C4.02304 126.352 4.44971 126.483 4.78038 126.744C5.11638 127.005 5.30571 127.352 5.34838 127.784H4.54838C4.52171 127.571 4.40971 127.384 4.21238 127.224C4.01504 127.059 3.75371 126.976 3.42838 126.976C3.12438 126.976 2.87638 127.056 2.68438 127.216C2.49238 127.371 2.39638 127.589 2.39638 127.872C2.39638 128.075 2.45238 128.24 2.56438 128.368C2.68171 128.496 2.82304 128.595 2.98838 128.664C3.15904 128.728 3.39638 128.803 3.70038 128.888C4.06838 128.989 4.36438 129.091 4.58838 129.192C4.81238 129.288 5.00438 129.44 5.16438 129.648C5.32438 129.851 5.40438 130.128 5.40438 130.48C5.40438 130.752 5.33238 131.008 5.18838 131.248C5.04438 131.488 4.83104 131.683 4.54838 131.832C4.26571 131.981 3.93238 132.056 3.54838 132.056ZM6.36369 129.792C6.36369 129.344 6.45435 128.952 6.63569 128.616C6.81702 128.275 7.06502 128.011 7.37969 127.824C7.69969 127.637 8.05435 127.544 8.44369 127.544C8.82769 127.544 9.16102 127.627 9.44369 127.792C9.72635 127.957 9.93702 128.165 10.0757 128.416V127.616H10.8117V132H10.0757V131.184C9.93169 131.44 9.71569 131.653 9.42769 131.824C9.14502 131.989 8.81435 132.072 8.43569 132.072C8.04635 132.072 7.69435 131.976 7.37969 131.784C7.06502 131.592 6.81702 131.323 6.63569 130.976C6.45435 130.629 6.36369 130.235 6.36369 129.792ZM10.0757 129.8C10.0757 129.469 10.009 129.181 9.87569 128.936C9.74235 128.691 9.56102 128.504 9.33169 128.376C9.10769 128.243 8.85969 128.176 8.58769 128.176C8.31569 128.176 8.06769 128.24 7.84369 128.368C7.61969 128.496 7.44102 128.683 7.30769 128.928C7.17435 129.173 7.10769 129.461 7.10769 129.792C7.10769 130.128 7.17435 130.421 7.30769 130.672C7.44102 130.917 7.61969 131.107 7.84369 131.24C8.06769 131.368 8.31569 131.432 8.58769 131.432C8.85969 131.432 9.10769 131.368 9.33169 131.24C9.56102 131.107 9.74235 130.917 9.87569 130.672C10.009 130.421 10.0757 130.131 10.0757 129.8ZM13.0899 128.216V130.8C13.0899 131.013 13.1353 131.165 13.2259 131.256C13.3166 131.341 13.4739 131.384 13.6979 131.384H14.2339V132H13.5779C13.1726 132 12.8686 131.907 12.6659 131.72C12.4633 131.533 12.3619 131.227 12.3619 130.8V128.216H11.7939V127.616H12.3619V126.512H13.0899V127.616H14.2339V128.216H13.0899Z" fill="#4F4F4F"/>
<path d="M5.96363 104.424V105.016H3.53963V106.896H5.50763V107.488H3.53963V110H2.81163V104.424H5.96363ZM7.73088 106.328C7.85888 106.077 8.04021 105.883 8.27488 105.744C8.51488 105.605 8.80554 105.536 9.14688 105.536V106.288H8.95488C8.13888 106.288 7.73088 106.731 7.73088 107.616V110H7.00288V105.616H7.73088V106.328ZM10.5233 104.904C10.3846 104.904 10.2673 104.856 10.1713 104.76C10.0753 104.664 10.0273 104.547 10.0273 104.408C10.0273 104.269 10.0753 104.152 10.1713 104.056C10.2673 103.96 10.3846 103.912 10.5233 103.912C10.6566 103.912 10.7686 103.96 10.8593 104.056C10.9553 104.152 11.0033 104.269 11.0033 104.408C11.0033 104.547 10.9553 104.664 10.8593 104.76C10.7686 104.856 10.6566 104.904 10.5233 104.904ZM10.8753 105.616V110H10.1473V105.616H10.8753Z" fill="#4F4F4F"/>
<path d="M5.18144 81.424V82.016H3.66144V87H2.93344V82.016H1.40544V81.424H5.18144ZM8.41356 82.536C8.74423 82.536 9.0429 82.608 9.30956 82.752C9.57623 82.8907 9.78423 83.1013 9.93356 83.384C10.0882 83.6667 10.1656 84.0107 10.1656 84.416V87H9.44556V84.52C9.44556 84.0827 9.33623 83.7493 9.11756 83.52C8.8989 83.2853 8.60023 83.168 8.22156 83.168C7.83756 83.168 7.5309 83.288 7.30156 83.528C7.07756 83.768 6.96556 84.1173 6.96556 84.576V87H6.23756V81.08H6.96556V83.24C7.10956 83.016 7.3069 82.8427 7.55756 82.72C7.81356 82.5973 8.0989 82.536 8.41356 82.536ZM15.4028 82.616V87H14.6748V86.352C14.5361 86.576 14.3414 86.752 14.0908 86.88C13.8454 87.0027 13.5734 87.064 13.2748 87.064C12.9334 87.064 12.6268 86.9947 12.3548 86.856C12.0828 86.712 11.8668 86.4987 11.7068 86.216C11.5521 85.9333 11.4748 85.5893 11.4748 85.184V82.616H12.1948V85.088C12.1948 85.52 12.3041 85.8533 12.5228 86.088C12.7414 86.3173 13.0401 86.432 13.4188 86.432C13.8081 86.432 14.1148 86.312 14.3388 86.072C14.5628 85.832 14.6748 85.4827 14.6748 85.024V82.616H15.4028ZM17.5199 83.328C17.6479 83.0773 17.8293 82.8827 18.0639 82.744C18.3039 82.6053 18.5946 82.536 18.9359 82.536V83.288H18.7439C17.9279 83.288 17.5199 83.7307 17.5199 84.616V87H16.7919V82.616H17.5199V83.328ZM21.4883 87.072C21.1523 87.072 20.851 87.016 20.5843 86.904C20.3176 86.7867 20.107 86.6267 19.9523 86.424C19.7976 86.216 19.7123 85.9787 19.6963 85.712H20.4483C20.4696 85.9307 20.571 86.1093 20.7523 86.248C20.939 86.3867 21.1816 86.456 21.4803 86.456C21.7576 86.456 21.9763 86.3947 22.1363 86.272C22.2963 86.1493 22.3763 85.9947 22.3763 85.808C22.3763 85.616 22.291 85.4747 22.1203 85.384C21.9496 85.288 21.6856 85.1947 21.3283 85.104C21.003 85.0187 20.7363 84.9333 20.5283 84.848C20.3256 84.7573 20.1496 84.6267 20.0003 84.456C19.8563 84.28 19.7843 84.0507 19.7843 83.768C19.7843 83.544 19.851 83.3387 19.9843 83.152C20.1176 82.9653 20.307 82.8187 20.5523 82.712C20.7976 82.6 21.0776 82.544 21.3923 82.544C21.8776 82.544 22.2696 82.6667 22.5683 82.912C22.867 83.1573 23.027 83.4933 23.0483 83.92H22.3203C22.3043 83.6907 22.211 83.5067 22.0403 83.368C21.875 83.2293 21.651 83.16 21.3683 83.16C21.107 83.16 20.899 83.216 20.7443 83.328C20.5896 83.44 20.5123 83.5867 20.5123 83.768C20.5123 83.912 20.5576 84.032 20.6483 84.128C20.7443 84.2187 20.8616 84.2933 21.0003 84.352C21.1443 84.4053 21.3416 84.4667 21.5923 84.536C21.907 84.6213 22.163 84.7067 22.3603 84.792C22.5576 84.872 22.7256 84.9947 22.8643 85.16C23.0083 85.3253 23.083 85.5413 23.0883 85.808C23.0883 86.048 23.0216 86.264 22.8883 86.456C22.755 86.648 22.5656 86.8 22.3203 86.912C22.0803 87.0187 21.803 87.072 21.4883 87.072Z" fill="#4F4F4F"/>
<path d="M8.63213 57.424L7.01613 63H6.20013L4.90413 58.512L3.56013 63L2.75213 63.008L1.19213 57.424H1.96813L3.18413 62.152L4.52813 57.424H5.34413L6.62413 62.136L7.84813 57.424H8.63213ZM13.5888 60.64C13.5888 60.7787 13.5808 60.9253 13.5648 61.08H10.0608C10.0875 61.512 10.2341 61.8507 10.5008 62.096C10.7728 62.336 11.1008 62.456 11.4848 62.456C11.7995 62.456 12.0608 62.384 12.2688 62.24C12.4821 62.0907 12.6315 61.8933 12.7168 61.648H13.5008C13.3835 62.0693 13.1488 62.4133 12.7968 62.68C12.4448 62.9413 12.0075 63.072 11.4848 63.072C11.0688 63.072 10.6955 62.9787 10.3648 62.792C10.0395 62.6053 9.78348 62.3413 9.59681 62C9.41015 61.6533 9.31681 61.2533 9.31681 60.8C9.31681 60.3467 9.40748 59.9493 9.58881 59.608C9.77015 59.2667 10.0235 59.0053 10.3488 58.824C10.6795 58.6373 11.0581 58.544 11.4848 58.544C11.9008 58.544 12.2688 58.6347 12.5888 58.816C12.9088 58.9973 13.1541 59.248 13.3248 59.568C13.5008 59.8827 13.5888 60.24 13.5888 60.64ZM12.8368 60.488C12.8368 60.2107 12.7755 59.9733 12.6528 59.776C12.5301 59.5733 12.3621 59.4213 12.1488 59.32C11.9408 59.2133 11.7088 59.16 11.4528 59.16C11.0848 59.16 10.7701 59.2773 10.5088 59.512C10.2528 59.7467 10.1061 60.072 10.0688 60.488H12.8368ZM14.4378 60.792C14.4378 60.344 14.5284 59.952 14.7098 59.616C14.8911 59.2747 15.1391 59.0107 15.4538 58.824C15.7738 58.6373 16.1311 58.544 16.5258 58.544C16.8671 58.544 17.1844 58.624 17.4778 58.784C17.7711 58.9387 17.9951 59.144 18.1498 59.4V57.08H18.8858V63H18.1498V62.176C18.0058 62.4373 17.7924 62.6533 17.5098 62.824C17.2271 62.9893 16.8964 63.072 16.5178 63.072C16.1284 63.072 15.7738 62.976 15.4538 62.784C15.1391 62.592 14.8911 62.3227 14.7098 61.976C14.5284 61.6293 14.4378 61.2347 14.4378 60.792ZM18.1498 60.8C18.1498 60.4693 18.0831 60.1813 17.9498 59.936C17.8164 59.6907 17.6351 59.504 17.4058 59.376C17.1818 59.2427 16.9338 59.176 16.6618 59.176C16.3898 59.176 16.1418 59.24 15.9178 59.368C15.6938 59.496 15.5151 59.6827 15.3818 59.928C15.2484 60.1733 15.1818 60.4613 15.1818 60.792C15.1818 61.128 15.2484 61.4213 15.3818 61.672C15.5151 61.9173 15.6938 62.1067 15.9178 62.24C16.1418 62.368 16.3898 62.432 16.6618 62.432C16.9338 62.432 17.1818 62.368 17.4058 62.24C17.6351 62.1067 17.8164 61.9173 17.9498 61.672C18.0831 61.4213 18.1498 61.1307 18.1498 60.8Z" fill="#4F4F4F"/>
<path d="M4.82175 36.424V37.016H3.30175V42H2.57375V37.016H1.04575V36.424H4.82175ZM9.76588 37.616V42H9.03788V41.352C8.89921 41.576 8.70454 41.752 8.45388 41.88C8.20854 42.0027 7.93654 42.064 7.63788 42.064C7.29654 42.064 6.98988 41.9947 6.71788 41.856C6.44588 41.712 6.22988 41.4987 6.06988 41.216C5.91521 40.9333 5.83788 40.5893 5.83788 40.184V37.616H6.55788V40.088C6.55788 40.52 6.66721 40.8533 6.88588 41.088C7.10454 41.3173 7.40321 41.432 7.78188 41.432C8.17121 41.432 8.47788 41.312 8.70188 41.072C8.92588 40.832 9.03788 40.4827 9.03788 40.024V37.616H9.76588ZM15.1551 39.64C15.1551 39.7787 15.1471 39.9253 15.1311 40.08H11.6271C11.6537 40.512 11.8004 40.8507 12.0671 41.096C12.3391 41.336 12.6671 41.456 13.0511 41.456C13.3657 41.456 13.6271 41.384 13.8351 41.24C14.0484 41.0907 14.1977 40.8933 14.2831 40.648H15.0671C14.9497 41.0693 14.7151 41.4133 14.3631 41.68C14.0111 41.9413 13.5737 42.072 13.0511 42.072C12.6351 42.072 12.2617 41.9787 11.9311 41.792C11.6057 41.6053 11.3497 41.3413 11.1631 41C10.9764 40.6533 10.8831 40.2533 10.8831 39.8C10.8831 39.3467 10.9737 38.9493 11.1551 38.608C11.3364 38.2667 11.5897 38.0053 11.9151 37.824C12.2457 37.6373 12.6244 37.544 13.0511 37.544C13.4671 37.544 13.8351 37.6347 14.1551 37.816C14.4751 37.9973 14.7204 38.248 14.8911 38.568C15.0671 38.8827 15.1551 39.24 15.1551 39.64ZM14.4031 39.488C14.4031 39.2107 14.3417 38.9733 14.2191 38.776C14.0964 38.5733 13.9284 38.4213 13.7151 38.32C13.5071 38.2133 13.2751 38.16 13.0191 38.16C12.6511 38.16 12.3364 38.2773 12.0751 38.512C11.8191 38.7467 11.6724 39.072 11.6351 39.488H14.4031Z" fill="#4F4F4F"/>
<path d="M7.327 10.464V16H6.599V11.872L4.759 16H4.247L2.399 11.864V16H1.671V10.464H2.455L4.503 15.04L6.551 10.464H7.327ZM10.6336 16.072C10.223 16.072 9.84963 15.9787 9.51363 15.792C9.18296 15.6053 8.92163 15.3413 8.72963 15C8.54296 14.6533 8.44963 14.2533 8.44963 13.8C8.44963 13.352 8.54563 12.9573 8.73763 12.616C8.93496 12.2693 9.20163 12.0053 9.53763 11.824C9.87363 11.6373 10.2496 11.544 10.6656 11.544C11.0816 11.544 11.4576 11.6373 11.7936 11.824C12.1296 12.0053 12.3936 12.2667 12.5856 12.608C12.783 12.9493 12.8816 13.3467 12.8816 13.8C12.8816 14.2533 12.7803 14.6533 12.5776 15C12.3803 15.3413 12.111 15.6053 11.7696 15.792C11.4283 15.9787 11.0496 16.072 10.6336 16.072ZM10.6336 15.432C10.895 15.432 11.1403 15.3707 11.3696 15.248C11.599 15.1253 11.783 14.9413 11.9216 14.696C12.0656 14.4507 12.1376 14.152 12.1376 13.8C12.1376 13.448 12.0683 13.1493 11.9296 12.904C11.791 12.6587 11.6096 12.4773 11.3856 12.36C11.1616 12.2373 10.919 12.176 10.6576 12.176C10.391 12.176 10.1456 12.2373 9.92163 12.36C9.70296 12.4773 9.52696 12.6587 9.39363 12.904C9.26029 13.1493 9.19363 13.448 9.19363 13.8C9.19363 14.1573 9.25763 14.4587 9.38563 14.704C9.51896 14.9493 9.69496 15.1333 9.91363 15.256C10.1323 15.3733 10.3723 15.432 10.6336 15.432ZM16.1348 11.536C16.6681 11.536 17.1001 11.6987 17.4308 12.024C17.7615 12.344 17.9268 12.808 17.9268 13.416V16H17.2068V13.52C17.2068 13.0827 17.0975 12.7493 16.8788 12.52C16.6601 12.2853 16.3615 12.168 15.9828 12.168C15.5988 12.168 15.2921 12.288 15.0628 12.528C14.8388 12.768 14.7268 13.1173 14.7268 13.576V16H13.9988V11.616H14.7268V12.24C14.8708 12.016 15.0655 11.8427 15.3108 11.72C15.5615 11.5973 15.8361 11.536 16.1348 11.536Z" fill="#4F4F4F"/>
<rect x="25.5" y="153" width="202" height="5" fill="#FFC000"/>
<rect x="25.5" y="128" width="306" height="5" fill="#FFC000"/>
<rect x="25.5" y="104" width="202" height="6" fill="#FFC000"/>
<rect x="25.5" y="81" width="254" height="5" fill="#FFC000"/>
<rect x="25.5" y="57" width="81" height="6" fill="#FFC000"/>
<rect x="25.5" y="36" width="101" height="5" fill="#FFC000"/>
<rect x="25.5" y="11" width="153" height="5" fill="#FFC000"/>
<rect x="25.5" y="158" width="234" height="5" fill="#118924"/>
<rect x="25.5" y="133" width="361" height="5" fill="#118924"/>
<rect x="25.5" y="109" width="397" height="6" fill="#118924"/>
<rect x="25.5" y="86" width="479" height="5" fill="#118924"/>
<rect x="25.5" y="62" width="113" height="6" fill="#118924"/>
<rect x="25.5" y="41" width="254" height="5" fill="#118924"/>
<rect x="25.5" y="16" width="222" height="5" fill="#118924"/>
</svg>
