<svg width="208" height="101" viewBox="0 0 208 101" fill="none" xmlns="http://www.w3.org/2000/svg">
<rect x="0.5" y="0.5" width="207" height="100" rx="11.5" fill="white" stroke="url(#paint0_linear_817_9818)"/>
<rect x="0.5" y="0.5" width="207" height="100" rx="11.5" fill="white" stroke="url(#paint1_linear_817_9818)"/>
<path d="M91.146 45V33.48L92.406 34.74H88.626V32.4H94.062V45H91.146ZM100.895 45.216C100.019 45.216 99.1488 45.102 98.2848 44.874C97.4328 44.634 96.7008 44.298 96.0888 43.866L97.2408 41.634C97.7208 41.982 98.2728 42.258 98.8968 42.462C99.5328 42.666 100.175 42.768 100.823 42.768C101.555 42.768 102.131 42.624 102.551 42.336C102.971 42.048 103.181 41.646 103.181 41.13C103.181 40.806 103.097 40.518 102.929 40.266C102.761 40.014 102.461 39.822 102.029 39.69C101.609 39.558 101.015 39.492 100.247 39.492H97.0248L97.6728 32.4H105.359V34.74H98.7168L100.229 33.408L99.7788 38.466L98.2668 37.134H100.931C102.179 37.134 103.181 37.308 103.937 37.656C104.705 37.992 105.263 38.454 105.611 39.042C105.959 39.63 106.133 40.296 106.133 41.04C106.133 41.784 105.947 42.474 105.575 43.11C105.203 43.734 104.627 44.244 103.847 44.64C103.079 45.024 102.095 45.216 100.895 45.216ZM113.076 45.216C112.044 45.216 111.12 44.964 110.304 44.46C109.488 43.944 108.846 43.2 108.378 42.228C107.91 41.256 107.676 40.08 107.676 38.7C107.676 37.32 107.91 36.144 108.378 35.172C108.846 34.2 109.488 33.462 110.304 32.958C111.12 32.442 112.044 32.184 113.076 32.184C114.12 32.184 115.044 32.442 115.848 32.958C116.664 33.462 117.306 34.2 117.774 35.172C118.242 36.144 118.476 37.32 118.476 38.7C118.476 40.08 118.242 41.256 117.774 42.228C117.306 43.2 116.664 43.944 115.848 44.46C115.044 44.964 114.12 45.216 113.076 45.216ZM113.076 42.75C113.568 42.75 113.994 42.612 114.354 42.336C114.726 42.06 115.014 41.622 115.218 41.022C115.434 40.422 115.542 39.648 115.542 38.7C115.542 37.752 115.434 36.978 115.218 36.378C115.014 35.778 114.726 35.34 114.354 35.064C113.994 34.788 113.568 34.65 113.076 34.65C112.596 34.65 112.17 34.788 111.798 35.064C111.438 35.34 111.15 35.778 110.934 36.378C110.73 36.978 110.628 37.752 110.628 38.7C110.628 39.648 110.73 40.422 110.934 41.022C111.15 41.622 111.438 42.06 111.798 42.336C112.17 42.612 112.596 42.75 113.076 42.75Z" fill="#FFC000"/>
<path d="M74.104 73.3862L71.448 68.8262H69.688V73.3862H68.232V62.2342H71.832C72.6747 62.2342 73.384 62.3782 73.96 62.6662C74.5467 62.9542 74.984 63.3436 75.272 63.8342C75.56 64.3249 75.704 64.8849 75.704 65.5142C75.704 66.2822 75.48 66.9596 75.032 67.5462C74.5947 68.1329 73.9333 68.5222 73.048 68.7142L75.848 73.3862H74.104ZM69.688 67.6582H71.832C72.6213 67.6582 73.2133 67.4662 73.608 67.0822C74.0027 66.6876 74.2 66.1649 74.2 65.5142C74.2 64.8529 74.0027 64.3409 73.608 63.9782C73.224 63.6156 72.632 63.4342 71.832 63.4342H69.688V67.6582ZM86.6064 68.6662C86.6064 68.9436 86.5904 69.2369 86.5584 69.5462H79.5504C79.6037 70.4102 79.897 71.0876 80.4304 71.5782C80.9744 72.0582 81.6304 72.2982 82.3984 72.2982C83.0277 72.2982 83.5504 72.1542 83.9664 71.8662C84.393 71.5676 84.6917 71.1729 84.8624 70.6822H86.4304C86.1957 71.5249 85.7264 72.2129 85.0224 72.7462C84.3184 73.2689 83.4437 73.5302 82.3984 73.5302C81.5664 73.5302 80.8197 73.3436 80.1584 72.9702C79.5077 72.5969 78.9957 72.0689 78.6224 71.3862C78.249 70.6929 78.0624 69.8929 78.0624 68.9862C78.0624 68.0796 78.2437 67.2849 78.6064 66.6022C78.969 65.9196 79.4757 65.3969 80.1264 65.0342C80.7877 64.6609 81.545 64.4742 82.3984 64.4742C83.2304 64.4742 83.9664 64.6556 84.6064 65.0182C85.2464 65.3809 85.737 65.8822 86.0784 66.5222C86.4304 67.1516 86.6064 67.8662 86.6064 68.6662ZM85.1024 68.3622C85.1024 67.8076 84.9797 67.3329 84.7344 66.9382C84.489 66.5329 84.153 66.2289 83.7264 66.0262C83.3104 65.8129 82.8464 65.7062 82.3344 65.7062C81.5984 65.7062 80.969 65.9409 80.4464 66.4102C79.9344 66.8796 79.641 67.5302 79.5664 68.3622H85.1024ZM88.6243 68.9862C88.6243 68.0796 88.8056 67.2902 89.1683 66.6182C89.5309 65.9356 90.0323 65.4076 90.6723 65.0342C91.3229 64.6609 92.0643 64.4742 92.8963 64.4742C93.9736 64.4742 94.8589 64.7356 95.5523 65.2582C96.2563 65.7809 96.7203 66.5062 96.9443 67.4342H95.3763C95.2269 66.9009 94.9336 66.4796 94.4963 66.1702C94.0696 65.8609 93.5363 65.7062 92.8963 65.7062C92.0643 65.7062 91.3923 65.9942 90.8803 66.5702C90.3683 67.1356 90.1123 67.9409 90.1123 68.9862C90.1123 70.0422 90.3683 70.8582 90.8803 71.4342C91.3923 72.0102 92.0643 72.2982 92.8963 72.2982C93.5363 72.2982 94.0696 72.1489 94.4963 71.8502C94.9229 71.5516 95.2163 71.1249 95.3763 70.5702H96.9443C96.7096 71.4662 96.2403 72.1862 95.5363 72.7302C94.8323 73.2636 93.9523 73.5302 92.8963 73.5302C92.0643 73.5302 91.3229 73.3436 90.6723 72.9702C90.0323 72.5969 89.5309 72.0689 89.1683 71.3862C88.8056 70.7036 88.6243 69.9036 88.6243 68.9862ZM107.079 64.6182L101.799 77.5142H100.295L102.023 73.2902L98.487 64.6182H100.103L102.855 71.7222L105.575 64.6182H107.079ZM108.639 68.9862C108.639 68.0796 108.82 67.2902 109.183 66.6182C109.545 65.9356 110.047 65.4076 110.687 65.0342C111.337 64.6609 112.079 64.4742 112.911 64.4742C113.988 64.4742 114.873 64.7356 115.567 65.2582C116.271 65.7809 116.735 66.5062 116.959 67.4342H115.391C115.241 66.9009 114.948 66.4796 114.511 66.1702C114.084 65.8609 113.551 65.7062 112.911 65.7062C112.079 65.7062 111.407 65.9942 110.895 66.5702C110.383 67.1356 110.127 67.9409 110.127 68.9862C110.127 70.0422 110.383 70.8582 110.895 71.4342C111.407 72.0102 112.079 72.2982 112.911 72.2982C113.551 72.2982 114.084 72.1489 114.511 71.8502C114.937 71.5516 115.231 71.1249 115.391 70.5702H116.959C116.724 71.4662 116.255 72.1862 115.551 72.7302C114.847 73.2636 113.967 73.5302 112.911 73.5302C112.079 73.5302 111.337 73.3436 110.687 72.9702C110.047 72.5969 109.545 72.0689 109.183 71.3862C108.82 70.7036 108.639 69.9036 108.639 68.9862ZM120.997 61.5462V73.3862H119.541V61.5462H120.997ZM132.119 68.6662C132.119 68.9436 132.103 69.2369 132.071 69.5462H125.063C125.116 70.4102 125.41 71.0876 125.943 71.5782C126.487 72.0582 127.143 72.2982 127.911 72.2982C128.54 72.2982 129.063 72.1542 129.479 71.8662C129.906 71.5676 130.204 71.1729 130.375 70.6822H131.943C131.708 71.5249 131.239 72.2129 130.535 72.7462C129.831 73.2689 128.956 73.5302 127.911 73.5302C127.079 73.5302 126.332 73.3436 125.671 72.9702C125.02 72.5969 124.508 72.0689 124.135 71.3862C123.762 70.6929 123.575 69.8929 123.575 68.9862C123.575 68.0796 123.756 67.2849 124.119 66.6022C124.482 65.9196 124.988 65.3969 125.639 65.0342C126.3 64.6609 127.058 64.4742 127.911 64.4742C128.743 64.4742 129.479 64.6556 130.119 65.0182C130.759 65.3809 131.25 65.8822 131.591 66.5222C131.943 67.1516 132.119 67.8662 132.119 68.6662ZM130.615 68.3622C130.615 67.8076 130.492 67.3329 130.247 66.9382C130.002 66.5329 129.666 66.2289 129.239 66.0262C128.823 65.8129 128.359 65.7062 127.847 65.7062C127.111 65.7062 126.482 65.9409 125.959 66.4102C125.447 66.8796 125.154 67.5302 125.079 68.3622H130.615ZM136.137 66.0422C136.393 65.5409 136.755 65.1516 137.225 64.8742C137.705 64.5969 138.286 64.4582 138.969 64.4582V65.9622H138.585C136.953 65.9622 136.137 66.8476 136.137 68.6182V73.3862H134.681V64.6182H136.137V66.0422Z" fill="#3A3A3A"/>
<defs>
<linearGradient id="paint0_linear_817_9818" x1="208" y1="10.8214" x2="163.033" y2="150.584" gradientUnits="userSpaceOnUse">
<stop stop-color="#F2D741"/>
<stop offset="1" stop-color="#118924"/>
</linearGradient>
<linearGradient id="paint1_linear_817_9818" x1="208" y1="10.8214" x2="163.033" y2="150.584" gradientUnits="userSpaceOnUse">
<stop stop-color="#F2D741"/>
<stop offset="1" stop-color="#118924"/>
</linearGradient>
</defs>
</svg>
