<svg width="208" height="101" viewBox="0 0 208 101" fill="none" xmlns="http://www.w3.org/2000/svg">
<rect x="0.5" y="0.5" width="207" height="100" rx="11.5" fill="white" stroke="url(#paint0_linear_817_9799)"/>
<rect x="0.5" y="0.5" width="207" height="100" rx="11.5" fill="url(#paint1_linear_817_9799)" stroke="url(#paint2_linear_817_9799)"/>
<path d="M91.646 45V33.48L92.906 34.74H89.126V32.4H94.562V45H91.646ZM101.395 45.216C100.519 45.216 99.6488 45.102 98.7848 44.874C97.9328 44.634 97.2008 44.298 96.5888 43.866L97.7408 41.634C98.2208 41.982 98.7728 42.258 99.3968 42.462C100.033 42.666 100.675 42.768 101.323 42.768C102.055 42.768 102.631 42.624 103.051 42.336C103.471 42.048 103.681 41.646 103.681 41.13C103.681 40.806 103.597 40.518 103.429 40.266C103.261 40.014 102.961 39.822 102.529 39.69C102.109 39.558 101.515 39.492 100.747 39.492H97.5248L98.1728 32.4H105.859V34.74H99.2168L100.729 33.408L100.279 38.466L98.7668 37.134H101.431C102.679 37.134 103.681 37.308 104.437 37.656C105.205 37.992 105.763 38.454 106.111 39.042C106.459 39.63 106.633 40.296 106.633 41.04C106.633 41.784 106.447 42.474 106.075 43.11C105.703 43.734 105.127 44.244 104.347 44.64C103.579 45.024 102.595 45.216 101.395 45.216ZM113.576 45.216C112.544 45.216 111.62 44.964 110.804 44.46C109.988 43.944 109.346 43.2 108.878 42.228C108.41 41.256 108.176 40.08 108.176 38.7C108.176 37.32 108.41 36.144 108.878 35.172C109.346 34.2 109.988 33.462 110.804 32.958C111.62 32.442 112.544 32.184 113.576 32.184C114.62 32.184 115.544 32.442 116.348 32.958C117.164 33.462 117.806 34.2 118.274 35.172C118.742 36.144 118.976 37.32 118.976 38.7C118.976 40.08 118.742 41.256 118.274 42.228C117.806 43.2 117.164 43.944 116.348 44.46C115.544 44.964 114.62 45.216 113.576 45.216ZM113.576 42.75C114.068 42.75 114.494 42.612 114.854 42.336C115.226 42.06 115.514 41.622 115.718 41.022C115.934 40.422 116.042 39.648 116.042 38.7C116.042 37.752 115.934 36.978 115.718 36.378C115.514 35.778 115.226 35.34 114.854 35.064C114.494 34.788 114.068 34.65 113.576 34.65C113.096 34.65 112.67 34.788 112.298 35.064C111.938 35.34 111.65 35.778 111.434 36.378C111.23 36.978 111.128 37.752 111.128 38.7C111.128 39.648 111.23 40.422 111.434 41.022C111.65 41.622 111.938 42.06 112.298 42.336C112.67 42.612 113.096 42.75 113.576 42.75Z" fill="#3EFA5C"/>
<path d="M89.096 62.2342V63.4182H86.056V73.3862H84.6V63.4182H81.544V62.2342H89.096ZM95.3523 73.5302C94.5309 73.5302 93.7843 73.3436 93.1123 72.9702C92.4509 72.5969 91.9283 72.0689 91.5443 71.3862C91.1709 70.6929 90.9843 69.8929 90.9843 68.9862C90.9843 68.0902 91.1763 67.3009 91.5603 66.6182C91.9549 65.9249 92.4883 65.3969 93.1603 65.0342C93.8323 64.6609 94.5843 64.4742 95.4163 64.4742C96.2483 64.4742 97.0003 64.6609 97.6723 65.0342C98.3443 65.3969 98.8723 65.9196 99.2563 66.6022C99.6509 67.2849 99.8483 68.0796 99.8483 68.9862C99.8483 69.8929 99.6456 70.6929 99.2403 71.3862C98.8456 72.0689 98.3069 72.5969 97.6243 72.9702C96.9416 73.3436 96.1843 73.5302 95.3523 73.5302ZM95.3523 72.2502C95.8749 72.2502 96.3656 72.1276 96.8243 71.8822C97.2829 71.6369 97.6509 71.2689 97.9283 70.7782C98.2163 70.2876 98.3603 69.6902 98.3603 68.9862C98.3603 68.2822 98.2216 67.6849 97.9443 67.1942C97.6669 66.7036 97.3043 66.3409 96.8563 66.1062C96.4083 65.8609 95.9229 65.7382 95.4003 65.7382C94.8669 65.7382 94.3763 65.8609 93.9283 66.1062C93.4909 66.3409 93.1389 66.7036 92.8723 67.1942C92.6056 67.6849 92.4723 68.2822 92.4723 68.9862C92.4723 69.7009 92.6003 70.3036 92.8563 70.7942C93.1229 71.2849 93.4749 71.6529 93.9123 71.8982C94.3496 72.1329 94.8296 72.2502 95.3523 72.2502ZM104.179 65.8182V70.9862C104.179 71.4129 104.269 71.7169 104.451 71.8982C104.632 72.0689 104.947 72.1542 105.395 72.1542H106.467V73.3862H105.155C104.344 73.3862 103.736 73.1996 103.331 72.8262C102.925 72.4529 102.723 71.8396 102.723 70.9862V65.8182H101.587V64.6182H102.723V62.4102H104.179V64.6182H106.467V65.8182H104.179ZM108.327 68.9702C108.327 68.0742 108.508 67.2902 108.871 66.6182C109.233 65.9356 109.729 65.4076 110.359 65.0342C110.999 64.6609 111.708 64.4742 112.487 64.4742C113.255 64.4742 113.921 64.6396 114.487 64.9702C115.052 65.3009 115.473 65.7169 115.751 66.2182V64.6182H117.223V73.3862H115.751V71.7542C115.463 72.2662 115.031 72.6929 114.455 73.0342C113.889 73.3649 113.228 73.5302 112.471 73.5302C111.692 73.5302 110.988 73.3382 110.359 72.9542C109.729 72.5702 109.233 72.0316 108.871 71.3382C108.508 70.6449 108.327 69.8556 108.327 68.9702ZM115.751 68.9862C115.751 68.3249 115.617 67.7489 115.351 67.2582C115.084 66.7676 114.721 66.3942 114.263 66.1382C113.815 65.8716 113.319 65.7382 112.775 65.7382C112.231 65.7382 111.735 65.8662 111.287 66.1222C110.839 66.3782 110.481 66.7516 110.215 67.2422C109.948 67.7329 109.815 68.3089 109.815 68.9702C109.815 69.6422 109.948 70.2289 110.215 70.7302C110.481 71.2209 110.839 71.5996 111.287 71.8662C111.735 72.1222 112.231 72.2502 112.775 72.2502C113.319 72.2502 113.815 72.1222 114.263 71.8662C114.721 71.5996 115.084 71.2209 115.351 70.7302C115.617 70.2289 115.751 69.6476 115.751 68.9862ZM121.779 61.5462V73.3862H120.323V61.5462H121.779Z" fill="#3A3A3A"/>
<path d="M91.646 45V33.48L92.906 34.74H89.126V32.4H94.562V45H91.646ZM101.395 45.216C100.519 45.216 99.6488 45.102 98.7848 44.874C97.9328 44.634 97.2008 44.298 96.5888 43.866L97.7408 41.634C98.2208 41.982 98.7728 42.258 99.3968 42.462C100.033 42.666 100.675 42.768 101.323 42.768C102.055 42.768 102.631 42.624 103.051 42.336C103.471 42.048 103.681 41.646 103.681 41.13C103.681 40.806 103.597 40.518 103.429 40.266C103.261 40.014 102.961 39.822 102.529 39.69C102.109 39.558 101.515 39.492 100.747 39.492H97.5248L98.1728 32.4H105.859V34.74H99.2168L100.729 33.408L100.279 38.466L98.7668 37.134H101.431C102.679 37.134 103.681 37.308 104.437 37.656C105.205 37.992 105.763 38.454 106.111 39.042C106.459 39.63 106.633 40.296 106.633 41.04C106.633 41.784 106.447 42.474 106.075 43.11C105.703 43.734 105.127 44.244 104.347 44.64C103.579 45.024 102.595 45.216 101.395 45.216ZM113.576 45.216C112.544 45.216 111.62 44.964 110.804 44.46C109.988 43.944 109.346 43.2 108.878 42.228C108.41 41.256 108.176 40.08 108.176 38.7C108.176 37.32 108.41 36.144 108.878 35.172C109.346 34.2 109.988 33.462 110.804 32.958C111.62 32.442 112.544 32.184 113.576 32.184C114.62 32.184 115.544 32.442 116.348 32.958C117.164 33.462 117.806 34.2 118.274 35.172C118.742 36.144 118.976 37.32 118.976 38.7C118.976 40.08 118.742 41.256 118.274 42.228C117.806 43.2 117.164 43.944 116.348 44.46C115.544 44.964 114.62 45.216 113.576 45.216ZM113.576 42.75C114.068 42.75 114.494 42.612 114.854 42.336C115.226 42.06 115.514 41.622 115.718 41.022C115.934 40.422 116.042 39.648 116.042 38.7C116.042 37.752 115.934 36.978 115.718 36.378C115.514 35.778 115.226 35.34 114.854 35.064C114.494 34.788 114.068 34.65 113.576 34.65C113.096 34.65 112.67 34.788 112.298 35.064C111.938 35.34 111.65 35.778 111.434 36.378C111.23 36.978 111.128 37.752 111.128 38.7C111.128 39.648 111.23 40.422 111.434 41.022C111.65 41.622 111.938 42.06 112.298 42.336C112.67 42.612 113.096 42.75 113.576 42.75Z" fill="white"/>
<path d="M89.096 62.2342V63.4182H86.056V73.3862H84.6V63.4182H81.544V62.2342H89.096ZM95.3523 73.5302C94.5309 73.5302 93.7843 73.3436 93.1123 72.9702C92.4509 72.5969 91.9283 72.0689 91.5443 71.3862C91.1709 70.6929 90.9843 69.8929 90.9843 68.9862C90.9843 68.0902 91.1763 67.3009 91.5603 66.6182C91.9549 65.9249 92.4883 65.3969 93.1603 65.0342C93.8323 64.6609 94.5843 64.4742 95.4163 64.4742C96.2483 64.4742 97.0003 64.6609 97.6723 65.0342C98.3443 65.3969 98.8723 65.9196 99.2563 66.6022C99.6509 67.2849 99.8483 68.0796 99.8483 68.9862C99.8483 69.8929 99.6456 70.6929 99.2403 71.3862C98.8456 72.0689 98.3069 72.5969 97.6243 72.9702C96.9416 73.3436 96.1843 73.5302 95.3523 73.5302ZM95.3523 72.2502C95.8749 72.2502 96.3656 72.1276 96.8243 71.8822C97.2829 71.6369 97.6509 71.2689 97.9283 70.7782C98.2163 70.2876 98.3603 69.6902 98.3603 68.9862C98.3603 68.2822 98.2216 67.6849 97.9443 67.1942C97.6669 66.7036 97.3043 66.3409 96.8563 66.1062C96.4083 65.8609 95.9229 65.7382 95.4003 65.7382C94.8669 65.7382 94.3763 65.8609 93.9283 66.1062C93.4909 66.3409 93.1389 66.7036 92.8723 67.1942C92.6056 67.6849 92.4723 68.2822 92.4723 68.9862C92.4723 69.7009 92.6003 70.3036 92.8563 70.7942C93.1229 71.2849 93.4749 71.6529 93.9123 71.8982C94.3496 72.1329 94.8296 72.2502 95.3523 72.2502ZM104.179 65.8182V70.9862C104.179 71.4129 104.269 71.7169 104.451 71.8982C104.632 72.0689 104.947 72.1542 105.395 72.1542H106.467V73.3862H105.155C104.344 73.3862 103.736 73.1996 103.331 72.8262C102.925 72.4529 102.723 71.8396 102.723 70.9862V65.8182H101.587V64.6182H102.723V62.4102H104.179V64.6182H106.467V65.8182H104.179ZM108.327 68.9702C108.327 68.0742 108.508 67.2902 108.871 66.6182C109.233 65.9356 109.729 65.4076 110.359 65.0342C110.999 64.6609 111.708 64.4742 112.487 64.4742C113.255 64.4742 113.921 64.6396 114.487 64.9702C115.052 65.3009 115.473 65.7169 115.751 66.2182V64.6182H117.223V73.3862H115.751V71.7542C115.463 72.2662 115.031 72.6929 114.455 73.0342C113.889 73.3649 113.228 73.5302 112.471 73.5302C111.692 73.5302 110.988 73.3382 110.359 72.9542C109.729 72.5702 109.233 72.0316 108.871 71.3382C108.508 70.6449 108.327 69.8556 108.327 68.9702ZM115.751 68.9862C115.751 68.3249 115.617 67.7489 115.351 67.2582C115.084 66.7676 114.721 66.3942 114.263 66.1382C113.815 65.8716 113.319 65.7382 112.775 65.7382C112.231 65.7382 111.735 65.8662 111.287 66.1222C110.839 66.3782 110.481 66.7516 110.215 67.2422C109.948 67.7329 109.815 68.3089 109.815 68.9702C109.815 69.6422 109.948 70.2289 110.215 70.7302C110.481 71.2209 110.839 71.5996 111.287 71.8662C111.735 72.1222 112.231 72.2502 112.775 72.2502C113.319 72.2502 113.815 72.1222 114.263 71.8662C114.721 71.5996 115.084 71.2209 115.351 70.7302C115.617 70.2289 115.751 69.6476 115.751 68.9862ZM121.779 61.5462V73.3862H120.323V61.5462H121.779Z" fill="white"/>
<defs>
<linearGradient id="paint0_linear_817_9799" x1="208" y1="10.8214" x2="163.033" y2="150.584" gradientUnits="userSpaceOnUse">
<stop stop-color="#F2D741"/>
<stop offset="1" stop-color="#118924"/>
</linearGradient>
<linearGradient id="paint1_linear_817_9799" x1="208" y1="10.8214" x2="163.033" y2="150.584" gradientUnits="userSpaceOnUse">
<stop stop-color="#F2D741"/>
<stop offset="1" stop-color="#118924"/>
</linearGradient>
<linearGradient id="paint2_linear_817_9799" x1="208" y1="10.8214" x2="163.033" y2="150.584" gradientUnits="userSpaceOnUse">
<stop stop-color="#F2D741"/>
<stop offset="1" stop-color="#118924"/>
</linearGradient>
</defs>
</svg>
