<svg width="208" height="101" viewBox="0 0 208 101" fill="none" xmlns="http://www.w3.org/2000/svg">
<rect x="0.5" y="0.5" width="207" height="100" rx="11.5" fill="white" stroke="url(#paint0_linear_817_9810)"/>
<rect x="0.5" y="0.5" width="207" height="100" rx="11.5" fill="white" stroke="url(#paint1_linear_817_9810)"/>
<path d="M91.146 42V30.48L92.406 31.74H88.626V29.4H94.062V42H91.146ZM100.895 42.216C100.019 42.216 99.1488 42.102 98.2848 41.874C97.4328 41.634 96.7008 41.298 96.0888 40.866L97.2408 38.634C97.7208 38.982 98.2728 39.258 98.8968 39.462C99.5328 39.666 100.175 39.768 100.823 39.768C101.555 39.768 102.131 39.624 102.551 39.336C102.971 39.048 103.181 38.646 103.181 38.13C103.181 37.806 103.097 37.518 102.929 37.266C102.761 37.014 102.461 36.822 102.029 36.69C101.609 36.558 101.015 36.492 100.247 36.492H97.0248L97.6728 29.4H105.359V31.74H98.7168L100.229 30.408L99.7788 35.466L98.2668 34.134H100.931C102.179 34.134 103.181 34.308 103.937 34.656C104.705 34.992 105.263 35.454 105.611 36.042C105.959 36.63 106.133 37.296 106.133 38.04C106.133 38.784 105.947 39.474 105.575 40.11C105.203 40.734 104.627 41.244 103.847 41.64C103.079 42.024 102.095 42.216 100.895 42.216ZM113.076 42.216C112.044 42.216 111.12 41.964 110.304 41.46C109.488 40.944 108.846 40.2 108.378 39.228C107.91 38.256 107.676 37.08 107.676 35.7C107.676 34.32 107.91 33.144 108.378 32.172C108.846 31.2 109.488 30.462 110.304 29.958C111.12 29.442 112.044 29.184 113.076 29.184C114.12 29.184 115.044 29.442 115.848 29.958C116.664 30.462 117.306 31.2 117.774 32.172C118.242 33.144 118.476 34.32 118.476 35.7C118.476 37.08 118.242 38.256 117.774 39.228C117.306 40.2 116.664 40.944 115.848 41.46C115.044 41.964 114.12 42.216 113.076 42.216ZM113.076 39.75C113.568 39.75 113.994 39.612 114.354 39.336C114.726 39.06 115.014 38.622 115.218 38.022C115.434 37.422 115.542 36.648 115.542 35.7C115.542 34.752 115.434 33.978 115.218 33.378C115.014 32.778 114.726 32.34 114.354 32.064C113.994 31.788 113.568 31.65 113.076 31.65C112.596 31.65 112.17 31.788 111.798 32.064C111.438 32.34 111.15 32.778 110.934 33.378C110.73 33.978 110.628 34.752 110.628 35.7C110.628 36.648 110.73 37.422 110.934 38.022C111.15 38.622 111.438 39.06 111.798 39.336C112.17 39.612 112.596 39.75 113.076 39.75Z" fill="#118924"/>
<path d="M78.768 70.4982C78.032 70.4982 77.3707 70.3702 76.784 70.1142C76.208 69.8476 75.7547 69.4849 75.424 69.0262C75.0933 68.5569 74.9227 68.0182 74.912 67.4102H76.464C76.5173 67.9329 76.7307 68.3756 77.104 68.7382C77.488 69.0902 78.0427 69.2662 78.768 69.2662C79.4613 69.2662 80.0053 69.0956 80.4 68.7542C80.8053 68.4022 81.008 67.9542 81.008 67.4102C81.008 66.9836 80.8907 66.6369 80.656 66.3702C80.4213 66.1036 80.128 65.9009 79.776 65.7622C79.424 65.6236 78.9493 65.4742 78.352 65.3142C77.616 65.1222 77.024 64.9302 76.576 64.7382C76.1387 64.5462 75.76 64.2476 75.44 63.8422C75.1307 63.4262 74.976 62.8716 74.976 62.1782C74.976 61.5702 75.1307 61.0316 75.44 60.5622C75.7493 60.0929 76.1813 59.7302 76.736 59.4742C77.3013 59.2182 77.9467 59.0902 78.672 59.0902C79.7173 59.0902 80.5707 59.3516 81.232 59.8742C81.904 60.3969 82.2827 61.0902 82.368 61.9542H80.768C80.7147 61.5276 80.4907 61.1542 80.096 60.8342C79.7013 60.5036 79.1787 60.3382 78.528 60.3382C77.92 60.3382 77.424 60.4982 77.04 60.8182C76.656 61.1276 76.464 61.5649 76.464 62.1302C76.464 62.5356 76.576 62.8662 76.8 63.1222C77.0347 63.3782 77.3173 63.5756 77.648 63.7142C77.9893 63.8422 78.464 63.9916 79.072 64.1622C79.808 64.3649 80.4 64.5676 80.848 64.7702C81.296 64.9622 81.68 65.2662 82 65.6822C82.32 66.0876 82.48 66.6422 82.48 67.3462C82.48 67.8902 82.336 68.4022 82.048 68.8822C81.76 69.3622 81.3333 69.7516 80.768 70.0502C80.2027 70.3489 79.536 70.4982 78.768 70.4982ZM93.2626 65.6662C93.2626 65.9436 93.2466 66.2369 93.2146 66.5462H86.2066C86.26 67.4102 86.5533 68.0876 87.0866 68.5782C87.6306 69.0582 88.2866 69.2982 89.0546 69.2982C89.684 69.2982 90.2066 69.1542 90.6226 68.8662C91.0493 68.5676 91.348 68.1729 91.5186 67.6822H93.0866C92.852 68.5249 92.3826 69.2129 91.6786 69.7462C90.9746 70.2689 90.1 70.5302 89.0546 70.5302C88.2226 70.5302 87.476 70.3436 86.8146 69.9702C86.164 69.5969 85.652 69.0689 85.2786 68.3862C84.9053 67.6929 84.7186 66.8929 84.7186 65.9862C84.7186 65.0796 84.9 64.2849 85.2626 63.6022C85.6253 62.9196 86.132 62.3969 86.7826 62.0342C87.444 61.6609 88.2013 61.4742 89.0546 61.4742C89.8866 61.4742 90.6226 61.6556 91.2626 62.0182C91.9026 62.3809 92.3933 62.8822 92.7346 63.5222C93.0866 64.1516 93.2626 64.8662 93.2626 65.6662ZM91.7586 65.3622C91.7586 64.8076 91.636 64.3329 91.3906 63.9382C91.1453 63.5329 90.8093 63.2289 90.3826 63.0262C89.9666 62.8129 89.5026 62.7062 88.9906 62.7062C88.2546 62.7062 87.6253 62.9409 87.1026 63.4102C86.5906 63.8796 86.2973 64.5302 86.2226 65.3622H91.7586ZM97.2805 58.5462V70.3862H95.8245V58.5462H97.2805ZM101.858 58.5462V70.3862H100.402V58.5462H101.858ZM112.979 65.6662C112.979 65.9436 112.963 66.2369 112.931 66.5462H105.923C105.977 67.4102 106.27 68.0876 106.803 68.5782C107.347 69.0582 108.003 69.2982 108.771 69.2982C109.401 69.2982 109.923 69.1542 110.339 68.8662C110.766 68.5676 111.065 68.1729 111.235 67.6822H112.804C112.569 68.5249 112.099 69.2129 111.395 69.7462C110.691 70.2689 109.817 70.5302 108.771 70.5302C107.939 70.5302 107.193 70.3436 106.531 69.9702C105.881 69.5969 105.369 69.0689 104.995 68.3862C104.622 67.6929 104.435 66.8929 104.435 65.9862C104.435 65.0796 104.617 64.2849 104.979 63.6022C105.342 62.9196 105.849 62.3969 106.499 62.0342C107.161 61.6609 107.918 61.4742 108.771 61.4742C109.603 61.4742 110.339 61.6556 110.979 62.0182C111.619 62.3809 112.11 62.8822 112.451 63.5222C112.803 64.1516 112.979 64.8662 112.979 65.6662ZM111.475 65.3622C111.475 64.8076 111.353 64.3329 111.107 63.9382C110.862 63.5329 110.526 63.2289 110.099 63.0262C109.683 62.8129 109.219 62.7062 108.707 62.7062C107.971 62.7062 107.342 62.9409 106.819 63.4102C106.307 63.8796 106.014 64.5302 105.939 65.3622H111.475ZM116.997 63.0422C117.253 62.5409 117.616 62.1516 118.085 61.8742C118.565 61.5969 119.147 61.4582 119.829 61.4582V62.9622H119.445C117.813 62.9622 116.997 63.8476 116.997 65.6182V70.3862H115.541V61.6182H116.997V63.0422ZM125.254 70.5302C124.582 70.5302 123.979 70.4182 123.446 70.1942C122.913 69.9596 122.491 69.6396 122.182 69.2342C121.873 68.8182 121.702 68.3436 121.67 67.8102H123.174C123.217 68.2476 123.419 68.6049 123.782 68.8822C124.155 69.1596 124.641 69.2982 125.238 69.2982C125.793 69.2982 126.23 69.1756 126.55 68.9302C126.87 68.6849 127.03 68.3756 127.03 68.0022C127.03 67.6182 126.859 67.3356 126.518 67.1542C126.177 66.9622 125.649 66.7756 124.934 66.5942C124.283 66.4236 123.75 66.2529 123.334 66.0822C122.929 65.9009 122.577 65.6396 122.278 65.2982C121.99 64.9462 121.846 64.4876 121.846 63.9222C121.846 63.4742 121.979 63.0636 122.246 62.6902C122.513 62.3169 122.891 62.0236 123.382 61.8102C123.873 61.5862 124.433 61.4742 125.062 61.4742C126.033 61.4742 126.817 61.7196 127.414 62.2102C128.011 62.7009 128.331 63.3729 128.374 64.2262H126.918C126.886 63.7676 126.699 63.3996 126.358 63.1222C126.027 62.8449 125.579 62.7062 125.014 62.7062C124.491 62.7062 124.075 62.8182 123.766 63.0422C123.457 63.2662 123.302 63.5596 123.302 63.9222C123.302 64.2102 123.393 64.4502 123.574 64.6422C123.766 64.8236 124.001 64.9729 124.278 65.0902C124.566 65.1969 124.961 65.3196 125.462 65.4582C126.091 65.6289 126.603 65.7996 126.998 65.9702C127.393 66.1302 127.729 66.3756 128.006 66.7062C128.294 67.0369 128.443 67.4689 128.454 68.0022C128.454 68.4822 128.321 68.9142 128.054 69.2982C127.787 69.6822 127.409 69.9862 126.918 70.2102C126.438 70.4236 125.883 70.5302 125.254 70.5302Z" fill="#3A3A3A"/>
<defs>
<linearGradient id="paint0_linear_817_9810" x1="208" y1="10.8214" x2="163.033" y2="150.584" gradientUnits="userSpaceOnUse">
<stop stop-color="#F2D741"/>
<stop offset="1" stop-color="#118924"/>
</linearGradient>
<linearGradient id="paint1_linear_817_9810" x1="208" y1="10.8214" x2="163.033" y2="150.584" gradientUnits="userSpaceOnUse">
<stop stop-color="#F2D741"/>
<stop offset="1" stop-color="#118924"/>
</linearGradient>
</defs>
</svg>
