<svg width="186" height="189" viewBox="0 0 186 189" fill="none" xmlns="http://www.w3.org/2000/svg">
<rect width="186" height="189" rx="12" fill="white"/>
<path d="M45.104 33V22.776H41.072V20.4H52.052V22.776H48.02V33H45.104ZM57.4066 33.144C56.3746 33.144 55.4566 32.928 54.6526 32.496C53.8606 32.064 53.2306 31.476 52.7626 30.732C52.3066 29.976 52.0786 29.118 52.0786 28.158C52.0786 27.186 52.3066 26.328 52.7626 25.584C53.2306 24.828 53.8606 24.24 54.6526 23.82C55.4566 23.388 56.3746 23.172 57.4066 23.172C58.4266 23.172 59.3386 23.388 60.1426 23.82C60.9466 24.24 61.5766 24.822 62.0326 25.566C62.4886 26.31 62.7166 27.174 62.7166 28.158C62.7166 29.118 62.4886 29.976 62.0326 30.732C61.5766 31.476 60.9466 32.064 60.1426 32.496C59.3386 32.928 58.4266 33.144 57.4066 33.144ZM57.4066 30.84C57.8746 30.84 58.2946 30.732 58.6666 30.516C59.0386 30.3 59.3326 29.994 59.5486 29.598C59.7646 29.19 59.8726 28.71 59.8726 28.158C59.8726 27.594 59.7646 27.114 59.5486 26.718C59.3326 26.322 59.0386 26.016 58.6666 25.8C58.2946 25.584 57.8746 25.476 57.4066 25.476C56.9386 25.476 56.5186 25.584 56.1466 25.8C55.7746 26.016 55.4746 26.322 55.2466 26.718C55.0306 27.114 54.9226 27.594 54.9226 28.158C54.9226 28.71 55.0306 29.19 55.2466 29.598C55.4746 29.994 55.7746 30.3 56.1466 30.516C56.5186 30.732 56.9386 30.84 57.4066 30.84ZM68.9135 33.144C67.7735 33.144 66.8855 32.856 66.2495 32.28C65.6135 31.692 65.2955 30.822 65.2955 29.67V21.174H68.1035V29.634C68.1035 30.042 68.2115 30.36 68.4275 30.588C68.6435 30.804 68.9375 30.912 69.3095 30.912C69.7535 30.912 70.1315 30.792 70.4435 30.552L71.1995 32.532C70.9115 32.736 70.5635 32.892 70.1555 33C69.7595 33.096 69.3455 33.144 68.9135 33.144ZM63.8015 25.692V23.532H70.5155V25.692H63.8015ZM79.0758 33V31.11L78.8958 30.696V27.312C78.8958 26.712 78.7098 26.244 78.3378 25.908C77.9778 25.572 77.4198 25.404 76.6638 25.404C76.1478 25.404 75.6378 25.488 75.1338 25.656C74.6418 25.812 74.2218 26.028 73.8738 26.304L72.8658 24.342C73.3938 23.97 74.0298 23.682 74.7738 23.478C75.5178 23.274 76.2738 23.172 77.0418 23.172C78.5178 23.172 79.6638 23.52 80.4798 24.216C81.2958 24.912 81.7038 25.998 81.7038 27.474V33H79.0758ZM76.1238 33.144C75.3678 33.144 74.7198 33.018 74.1798 32.766C73.6398 32.502 73.2258 32.148 72.9378 31.704C72.6498 31.26 72.5058 30.762 72.5058 30.21C72.5058 29.634 72.6438 29.13 72.9198 28.698C73.2078 28.266 73.6578 27.93 74.2698 27.69C74.8818 27.438 75.6798 27.312 76.6638 27.312H79.2378V28.95H76.9698C76.3098 28.95 75.8538 29.058 75.6018 29.274C75.3618 29.49 75.2418 29.76 75.2418 30.084C75.2418 30.444 75.3798 30.732 75.6558 30.948C75.9438 31.152 76.3338 31.254 76.8258 31.254C77.2938 31.254 77.7138 31.146 78.0858 30.93C78.4578 30.702 78.7278 30.372 78.8958 29.94L79.3278 31.236C79.1238 31.86 78.7518 32.334 78.2118 32.658C77.6718 32.982 76.9758 33.144 76.1238 33.144ZM84.6051 33V19.644H87.4131V33H84.6051ZM100.175 33.216C99.1669 33.216 98.2009 33.084 97.2769 32.82C96.3529 32.544 95.6089 32.19 95.0449 31.758L96.0349 29.562C96.5749 29.946 97.2109 30.264 97.9429 30.516C98.6869 30.756 99.4369 30.876 100.193 30.876C100.769 30.876 101.231 30.822 101.579 30.714C101.939 30.594 102.203 30.432 102.371 30.228C102.539 30.024 102.623 29.79 102.623 29.526C102.623 29.19 102.491 28.926 102.227 28.734C101.963 28.53 101.615 28.368 101.183 28.248C100.751 28.116 100.271 27.996 99.7429 27.888C99.2269 27.768 98.7049 27.624 98.1769 27.456C97.6609 27.288 97.1869 27.072 96.7549 26.808C96.3229 26.544 95.9689 26.196 95.6929 25.764C95.4289 25.332 95.2969 24.78 95.2969 24.108C95.2969 23.388 95.4889 22.734 95.8729 22.146C96.2689 21.546 96.8569 21.072 97.6369 20.724C98.4289 20.364 99.4189 20.184 100.607 20.184C101.399 20.184 102.179 20.28 102.947 20.472C103.715 20.652 104.393 20.928 104.981 21.3L104.081 23.514C103.493 23.178 102.905 22.932 102.317 22.776C101.729 22.608 101.153 22.524 100.589 22.524C100.025 22.524 99.5629 22.59 99.2029 22.722C98.8429 22.854 98.5849 23.028 98.4289 23.244C98.2729 23.448 98.1949 23.688 98.1949 23.964C98.1949 24.288 98.3269 24.552 98.5909 24.756C98.8549 24.948 99.2029 25.104 99.6349 25.224C100.067 25.344 100.541 25.464 101.057 25.584C101.585 25.704 102.107 25.842 102.623 25.998C103.151 26.154 103.631 26.364 104.063 26.628C104.495 26.892 104.843 27.24 105.107 27.672C105.383 28.104 105.521 28.65 105.521 29.31C105.521 30.018 105.323 30.666 104.927 31.254C104.531 31.842 103.937 32.316 103.145 32.676C102.365 33.036 101.375 33.216 100.175 33.216ZM113.615 33V31.11L113.435 30.696V27.312C113.435 26.712 113.249 26.244 112.877 25.908C112.517 25.572 111.959 25.404 111.203 25.404C110.687 25.404 110.177 25.488 109.673 25.656C109.181 25.812 108.761 26.028 108.413 26.304L107.405 24.342C107.933 23.97 108.569 23.682 109.313 23.478C110.057 23.274 110.813 23.172 111.581 23.172C113.057 23.172 114.203 23.52 115.019 24.216C115.835 24.912 116.243 25.998 116.243 27.474V33H113.615ZM110.663 33.144C109.907 33.144 109.259 33.018 108.719 32.766C108.179 32.502 107.765 32.148 107.477 31.704C107.189 31.26 107.045 30.762 107.045 30.21C107.045 29.634 107.183 29.13 107.459 28.698C107.747 28.266 108.197 27.93 108.809 27.69C109.421 27.438 110.219 27.312 111.203 27.312H113.777V28.95H111.509C110.849 28.95 110.393 29.058 110.141 29.274C109.901 29.49 109.781 29.76 109.781 30.084C109.781 30.444 109.919 30.732 110.195 30.948C110.483 31.152 110.873 31.254 111.365 31.254C111.833 31.254 112.253 31.146 112.625 30.93C112.997 30.702 113.267 30.372 113.435 29.94L113.867 31.236C113.663 31.86 113.291 32.334 112.751 32.658C112.211 32.982 111.515 33.144 110.663 33.144ZM119.145 33V19.644H121.953V33H119.145ZM129.725 33.144C128.621 33.144 127.649 32.928 126.809 32.496C125.981 32.064 125.339 31.476 124.883 30.732C124.427 29.976 124.199 29.118 124.199 28.158C124.199 27.186 124.421 26.328 124.865 25.584C125.321 24.828 125.939 24.24 126.719 23.82C127.499 23.388 128.381 23.172 129.365 23.172C130.313 23.172 131.165 23.376 131.921 23.784C132.689 24.18 133.295 24.756 133.739 25.512C134.183 26.256 134.405 27.15 134.405 28.194C134.405 28.302 134.399 28.428 134.387 28.572C134.375 28.704 134.363 28.83 134.351 28.95H126.485V27.312H132.875L131.795 27.798C131.795 27.294 131.693 26.856 131.489 26.484C131.285 26.112 131.003 25.824 130.643 25.62C130.283 25.404 129.863 25.296 129.383 25.296C128.903 25.296 128.477 25.404 128.105 25.62C127.745 25.824 127.463 26.118 127.259 26.502C127.055 26.874 126.953 27.318 126.953 27.834V28.266C126.953 28.794 127.067 29.262 127.295 29.67C127.535 30.066 127.865 30.372 128.285 30.588C128.717 30.792 129.221 30.894 129.797 30.894C130.313 30.894 130.763 30.816 131.147 30.66C131.543 30.504 131.903 30.27 132.227 29.958L133.721 31.578C133.277 32.082 132.719 32.472 132.047 32.748C131.375 33.012 130.601 33.144 129.725 33.144ZM139.892 33.144C139.064 33.144 138.266 33.048 137.498 32.856C136.742 32.652 136.142 32.4 135.698 32.1L136.634 30.084C137.078 30.36 137.6 30.588 138.2 30.768C138.812 30.936 139.412 31.02 140 31.02C140.648 31.02 141.104 30.942 141.368 30.786C141.644 30.63 141.782 30.414 141.782 30.138C141.782 29.91 141.674 29.742 141.458 29.634C141.254 29.514 140.978 29.424 140.63 29.364C140.282 29.304 139.898 29.244 139.478 29.184C139.07 29.124 138.656 29.046 138.236 28.95C137.816 28.842 137.432 28.686 137.084 28.482C136.736 28.278 136.454 28.002 136.238 27.654C136.034 27.306 135.932 26.856 135.932 26.304C135.932 25.692 136.106 25.152 136.454 24.684C136.814 24.216 137.33 23.85 138.002 23.586C138.674 23.31 139.478 23.172 140.414 23.172C141.074 23.172 141.746 23.244 142.43 23.388C143.114 23.532 143.684 23.742 144.14 24.018L143.204 26.016C142.736 25.74 142.262 25.554 141.782 25.458C141.314 25.35 140.858 25.296 140.414 25.296C139.79 25.296 139.334 25.38 139.046 25.548C138.758 25.716 138.614 25.932 138.614 26.196C138.614 26.436 138.716 26.616 138.92 26.736C139.136 26.856 139.418 26.952 139.766 27.024C140.114 27.096 140.492 27.162 140.9 27.222C141.32 27.27 141.74 27.348 142.16 27.456C142.58 27.564 142.958 27.72 143.294 27.924C143.642 28.116 143.924 28.386 144.14 28.734C144.356 29.07 144.464 29.514 144.464 30.066C144.464 30.666 144.284 31.2 143.924 31.668C143.564 32.124 143.042 32.484 142.358 32.748C141.686 33.012 140.864 33.144 139.892 33.144Z" fill="#181818"/>
<path d="M25 114C25 105.07 26.7589 96.2277 30.1762 87.9775C33.5935 79.7274 38.6024 72.2311 44.9167 65.9167C51.2311 59.6024 58.7274 54.5935 66.9775 51.1762C75.2277 47.7589 84.0701 46 93 46C101.93 46 110.772 47.7589 119.022 51.1762C127.273 54.5935 134.769 59.6024 141.083 65.9168C147.398 72.2311 152.406 79.7274 155.824 87.9775C159.241 96.2277 161 105.07 161 114L133.886 114C133.886 108.631 132.829 103.314 130.774 98.3536C128.719 93.393 125.707 88.8858 121.911 85.0891C118.114 81.2925 113.607 78.2809 108.646 76.2261C103.686 74.1714 98.3692 73.1139 93 73.1139C87.6308 73.1139 82.3141 74.1714 77.3536 76.2261C72.393 78.2809 67.8858 81.2925 64.0891 85.0891C60.2925 88.8858 57.2809 93.393 55.2261 98.3536C53.1714 103.314 52.1139 108.631 52.1139 114L25 114Z" fill="#118924"/>
<path d="M25 114C25 105.07 26.7589 96.2277 30.1762 87.9775C33.5935 79.7274 38.6024 72.2311 44.9167 65.9167C51.2311 59.6024 58.7274 54.5935 66.9775 51.1762C75.2277 47.7589 84.0701 46 93 46L93 73.1139C87.6308 73.1139 82.3141 74.1714 77.3536 76.2261C72.393 78.2809 67.8858 81.2925 64.0891 85.0891C60.2925 88.8858 57.2809 93.393 55.2261 98.3536C53.1714 103.314 52.1139 108.631 52.1139 114L25 114Z" fill="#60F878"/>
<path d="M67.072 133.636V134.524H64.792V142H63.7V134.524H61.408V133.636H67.072ZM71.5242 142.108C70.9082 142.108 70.3482 141.968 69.8442 141.688C69.3482 141.408 68.9562 141.012 68.6682 140.5C68.3882 139.98 68.2482 139.38 68.2482 138.7C68.2482 138.028 68.3922 137.436 68.6802 136.924C68.9762 136.404 69.3762 136.008 69.8802 135.736C70.3842 135.456 70.9482 135.316 71.5722 135.316C72.1962 135.316 72.7602 135.456 73.2642 135.736C73.7682 136.008 74.1642 136.4 74.4522 136.912C74.7482 137.424 74.8962 138.02 74.8962 138.7C74.8962 139.38 74.7442 139.98 74.4402 140.5C74.1442 141.012 73.7402 141.408 73.2282 141.688C72.7162 141.968 72.1482 142.108 71.5242 142.108ZM71.5242 141.148C71.9162 141.148 72.2842 141.056 72.6282 140.872C72.9722 140.688 73.2482 140.412 73.4562 140.044C73.6722 139.676 73.7802 139.228 73.7802 138.7C73.7802 138.172 73.6762 137.724 73.4682 137.356C73.2602 136.988 72.9882 136.716 72.6522 136.54C72.3162 136.356 71.9522 136.264 71.5602 136.264C71.1602 136.264 70.7922 136.356 70.4562 136.54C70.1282 136.716 69.8642 136.988 69.6642 137.356C69.4642 137.724 69.3642 138.172 69.3642 138.7C69.3642 139.236 69.4602 139.688 69.6522 140.056C69.8522 140.424 70.1162 140.7 70.4442 140.884C70.7722 141.06 71.1322 141.148 71.5242 141.148ZM77.904 136.324V140.2C77.904 140.52 77.972 140.748 78.108 140.884C78.244 141.012 78.48 141.076 78.816 141.076H79.62V142H78.636C78.028 142 77.572 141.86 77.268 141.58C76.964 141.3 76.812 140.84 76.812 140.2V136.324H75.96V135.424H76.812V133.768H77.904V135.424H79.62V136.324H77.904ZM80.7751 138.688C80.7751 138.016 80.9111 137.428 81.1831 136.924C81.4551 136.412 81.8271 136.016 82.2991 135.736C82.7791 135.456 83.3111 135.316 83.8951 135.316C84.4711 135.316 84.9711 135.44 85.3951 135.688C85.8191 135.936 86.1351 136.248 86.3431 136.624V135.424H87.4471V142H86.3431V140.776C86.1271 141.16 85.8031 141.48 85.3711 141.736C84.9471 141.984 84.4511 142.108 83.8831 142.108C83.2991 142.108 82.7711 141.964 82.2991 141.676C81.8271 141.388 81.4551 140.984 81.1831 140.464C80.9111 139.944 80.7751 139.352 80.7751 138.688ZM86.3431 138.7C86.3431 138.204 86.2431 137.772 86.0431 137.404C85.8431 137.036 85.5711 136.756 85.2271 136.564C84.8911 136.364 84.5191 136.264 84.1111 136.264C83.7031 136.264 83.3311 136.36 82.9951 136.552C82.6591 136.744 82.3911 137.024 82.1911 137.392C81.9911 137.76 81.8911 138.192 81.8911 138.688C81.8911 139.192 81.9911 139.632 82.1911 140.008C82.3911 140.376 82.6591 140.66 82.9951 140.86C83.3311 141.052 83.7031 141.148 84.1111 141.148C84.5191 141.148 84.8911 141.052 85.2271 140.86C85.5711 140.66 85.8431 140.376 86.0431 140.008C86.2431 139.632 86.3431 139.196 86.3431 138.7ZM90.6244 133.12V142H89.5324V133.12H90.6244ZM98.4928 142.108C97.9888 142.108 97.5368 142.024 97.1368 141.856C96.7368 141.68 96.4208 141.44 96.1888 141.136C95.9568 140.824 95.8288 140.468 95.8048 140.068H96.9328C96.9648 140.396 97.1168 140.664 97.3888 140.872C97.6688 141.08 98.0328 141.184 98.4808 141.184C98.8968 141.184 99.2248 141.092 99.4648 140.908C99.7048 140.724 99.8248 140.492 99.8248 140.212C99.8248 139.924 99.6968 139.712 99.4408 139.576C99.1848 139.432 98.7888 139.292 98.2528 139.156C97.7648 139.028 97.3648 138.9 97.0528 138.772C96.7488 138.636 96.4848 138.44 96.2608 138.184C96.0448 137.92 95.9368 137.576 95.9368 137.152C95.9368 136.816 96.0368 136.508 96.2368 136.228C96.4368 135.948 96.7208 135.728 97.0888 135.568C97.4568 135.4 97.8768 135.316 98.3488 135.316C99.0768 135.316 99.6648 135.5 100.113 135.868C100.561 136.236 100.801 136.74 100.833 137.38H99.7408C99.7168 137.036 99.5768 136.76 99.3208 136.552C99.0728 136.344 98.7368 136.24 98.3128 136.24C97.9208 136.24 97.6088 136.324 97.3768 136.492C97.1448 136.66 97.0288 136.88 97.0288 137.152C97.0288 137.368 97.0968 137.548 97.2328 137.692C97.3768 137.828 97.5528 137.94 97.7608 138.028C97.9768 138.108 98.2728 138.2 98.6488 138.304C99.1208 138.432 99.5048 138.56 99.8008 138.688C100.097 138.808 100.349 138.992 100.557 139.24C100.773 139.488 100.885 139.812 100.893 140.212C100.893 140.572 100.793 140.896 100.593 141.184C100.393 141.472 100.109 141.7 99.7408 141.868C99.3808 142.028 98.9648 142.108 98.4928 142.108ZM102.266 138.688C102.266 138.016 102.402 137.428 102.674 136.924C102.946 136.412 103.318 136.016 103.79 135.736C104.27 135.456 104.802 135.316 105.386 135.316C105.962 135.316 106.462 135.44 106.886 135.688C107.31 135.936 107.626 136.248 107.834 136.624V135.424H108.938V142H107.834V140.776C107.618 141.16 107.294 141.48 106.862 141.736C106.438 141.984 105.942 142.108 105.374 142.108C104.79 142.108 104.262 141.964 103.79 141.676C103.318 141.388 102.946 140.984 102.674 140.464C102.402 139.944 102.266 139.352 102.266 138.688ZM107.834 138.7C107.834 138.204 107.734 137.772 107.534 137.404C107.334 137.036 107.062 136.756 106.718 136.564C106.382 136.364 106.01 136.264 105.602 136.264C105.194 136.264 104.822 136.36 104.486 136.552C104.15 136.744 103.882 137.024 103.682 137.392C103.482 137.76 103.382 138.192 103.382 138.688C103.382 139.192 103.482 139.632 103.682 140.008C103.882 140.376 104.15 140.66 104.486 140.86C104.822 141.052 105.194 141.148 105.602 141.148C106.01 141.148 106.382 141.052 106.718 140.86C107.062 140.66 107.334 140.376 107.534 140.008C107.734 139.632 107.834 139.196 107.834 138.7ZM112.116 133.12V142H111.024V133.12H112.116ZM120.217 138.46C120.217 138.668 120.205 138.888 120.181 139.12H114.925C114.965 139.768 115.185 140.276 115.585 140.644C115.993 141.004 116.485 141.184 117.061 141.184C117.533 141.184 117.925 141.076 118.237 140.86C118.557 140.636 118.781 140.34 118.909 139.972H120.085C119.909 140.604 119.557 141.12 119.029 141.52C118.501 141.912 117.845 142.108 117.061 142.108C116.437 142.108 115.877 141.968 115.381 141.688C114.893 141.408 114.509 141.012 114.229 140.5C113.949 139.98 113.809 139.38 113.809 138.7C113.809 138.02 113.945 137.424 114.217 136.912C114.489 136.4 114.869 136.008 115.357 135.736C115.853 135.456 116.421 135.316 117.061 135.316C117.685 135.316 118.237 135.452 118.717 135.724C119.197 135.996 119.565 136.372 119.821 136.852C120.085 137.324 120.217 137.86 120.217 138.46ZM119.089 138.232C119.089 137.816 118.997 137.46 118.813 137.164C118.629 136.86 118.377 136.632 118.057 136.48C117.745 136.32 117.397 136.24 117.013 136.24C116.461 136.24 115.989 136.416 115.597 136.768C115.213 137.12 114.993 137.608 114.937 138.232H119.089Z" fill="#118924"/>
<path d="M77.816 167.832C79.1707 166.744 80.232 165.853 81 165.16C81.768 164.456 82.4133 163.725 82.936 162.968C83.4693 162.2 83.736 161.448 83.736 160.712C83.736 160.019 83.5653 159.475 83.224 159.08C82.8933 158.675 82.3547 158.472 81.608 158.472C80.8827 158.472 80.3173 158.701 79.912 159.16C79.5173 159.608 79.304 160.211 79.272 160.968H77.864C77.9067 159.773 78.2693 158.851 78.952 158.2C79.6347 157.549 80.5147 157.224 81.592 157.224C82.6907 157.224 83.56 157.528 84.2 158.136C84.8507 158.744 85.176 159.581 85.176 160.648C85.176 161.533 84.9093 162.397 84.376 163.24C83.8533 164.072 83.256 164.808 82.584 165.448C81.912 166.077 81.0533 166.813 80.008 167.656H85.512V168.872H77.816V167.832ZM95.2111 158.696H89.5951V162.344C89.8405 162.003 90.2031 161.725 90.6831 161.512C91.1631 161.288 91.6805 161.176 92.2351 161.176C93.1205 161.176 93.8405 161.363 94.3951 161.736C94.9498 162.099 95.3445 162.573 95.5791 163.16C95.8245 163.736 95.9471 164.349 95.9471 165C95.9471 165.768 95.8031 166.456 95.5151 167.064C95.2271 167.672 94.7845 168.152 94.1871 168.504C93.6005 168.856 92.8698 169.032 91.9951 169.032C90.8751 169.032 89.9685 168.744 89.2751 168.168C88.5818 167.592 88.1605 166.824 88.0111 165.864H89.4351C89.5738 166.472 89.8671 166.947 90.3151 167.288C90.7631 167.629 91.3285 167.8 92.0111 167.8C92.8538 167.8 93.4885 167.549 93.9151 167.048C94.3418 166.536 94.5551 165.864 94.5551 165.032C94.5551 164.2 94.3418 163.56 93.9151 163.112C93.4885 162.653 92.8591 162.424 92.0271 162.424C91.4618 162.424 90.9658 162.563 90.5391 162.84C90.1231 163.107 89.8191 163.475 89.6271 163.944H88.2511V157.416H95.2111V158.696ZM98.522 163.096C98.522 161.261 98.8207 159.832 99.418 158.808C100.015 157.773 101.061 157.256 102.554 157.256C104.037 157.256 105.077 157.773 105.674 158.808C106.271 159.832 106.57 161.261 106.57 163.096C106.57 164.963 106.271 166.413 105.674 167.448C105.077 168.483 104.037 169 102.554 169C101.061 169 100.015 168.483 99.418 167.448C98.8207 166.413 98.522 164.963 98.522 163.096ZM105.13 163.096C105.13 162.168 105.066 161.384 104.938 160.744C104.821 160.093 104.57 159.571 104.186 159.176C103.813 158.781 103.269 158.584 102.554 158.584C101.829 158.584 101.274 158.781 100.89 159.176C100.517 159.571 100.266 160.093 100.138 160.744C100.021 161.384 99.962 162.168 99.962 163.096C99.962 164.056 100.021 164.861 100.138 165.512C100.266 166.163 100.517 166.685 100.89 167.08C101.274 167.475 101.829 167.672 102.554 167.672C103.269 167.672 103.813 167.475 104.186 167.08C104.57 166.685 104.821 166.163 104.938 165.512C105.066 164.861 105.13 164.056 105.13 163.096Z" fill="black"/>
</svg>
