<svg width="186" height="189" viewBox="0 0 186 189" fill="none" xmlns="http://www.w3.org/2000/svg">
<rect width="186" height="189" rx="12" fill="white"/>
<path d="M35.104 33V22.776H31.072V20.4H42.052V22.776H38.02V33H35.104ZM47.4066 33.144C46.3746 33.144 45.4566 32.928 44.6526 32.496C43.8606 32.064 43.2306 31.476 42.7626 30.732C42.3066 29.976 42.0786 29.118 42.0786 28.158C42.0786 27.186 42.3066 26.328 42.7626 25.584C43.2306 24.828 43.8606 24.24 44.6526 23.82C45.4566 23.388 46.3746 23.172 47.4066 23.172C48.4266 23.172 49.3386 23.388 50.1426 23.82C50.9466 24.24 51.5766 24.822 52.0326 25.566C52.4886 26.31 52.7166 27.174 52.7166 28.158C52.7166 29.118 52.4886 29.976 52.0326 30.732C51.5766 31.476 50.9466 32.064 50.1426 32.496C49.3386 32.928 48.4266 33.144 47.4066 33.144ZM47.4066 30.84C47.8746 30.84 48.2946 30.732 48.6666 30.516C49.0386 30.3 49.3326 29.994 49.5486 29.598C49.7646 29.19 49.8726 28.71 49.8726 28.158C49.8726 27.594 49.7646 27.114 49.5486 26.718C49.3326 26.322 49.0386 26.016 48.6666 25.8C48.2946 25.584 47.8746 25.476 47.4066 25.476C46.9386 25.476 46.5186 25.584 46.1466 25.8C45.7746 26.016 45.4746 26.322 45.2466 26.718C45.0306 27.114 44.9226 27.594 44.9226 28.158C44.9226 28.71 45.0306 29.19 45.2466 29.598C45.4746 29.994 45.7746 30.3 46.1466 30.516C46.5186 30.732 46.9386 30.84 47.4066 30.84ZM58.9135 33.144C57.7735 33.144 56.8855 32.856 56.2495 32.28C55.6135 31.692 55.2955 30.822 55.2955 29.67V21.174H58.1035V29.634C58.1035 30.042 58.2115 30.36 58.4275 30.588C58.6435 30.804 58.9375 30.912 59.3095 30.912C59.7535 30.912 60.1315 30.792 60.4435 30.552L61.1995 32.532C60.9115 32.736 60.5635 32.892 60.1555 33C59.7595 33.096 59.3455 33.144 58.9135 33.144ZM53.8015 25.692V23.532H60.5155V25.692H53.8015ZM69.0758 33V31.11L68.8958 30.696V27.312C68.8958 26.712 68.7098 26.244 68.3378 25.908C67.9778 25.572 67.4198 25.404 66.6638 25.404C66.1478 25.404 65.6378 25.488 65.1338 25.656C64.6418 25.812 64.2218 26.028 63.8738 26.304L62.8658 24.342C63.3938 23.97 64.0298 23.682 64.7738 23.478C65.5178 23.274 66.2738 23.172 67.0418 23.172C68.5178 23.172 69.6638 23.52 70.4798 24.216C71.2958 24.912 71.7038 25.998 71.7038 27.474V33H69.0758ZM66.1238 33.144C65.3678 33.144 64.7198 33.018 64.1798 32.766C63.6398 32.502 63.2258 32.148 62.9378 31.704C62.6498 31.26 62.5058 30.762 62.5058 30.21C62.5058 29.634 62.6438 29.13 62.9198 28.698C63.2078 28.266 63.6578 27.93 64.2698 27.69C64.8818 27.438 65.6798 27.312 66.6638 27.312H69.2378V28.95H66.9698C66.3098 28.95 65.8538 29.058 65.6018 29.274C65.3618 29.49 65.2418 29.76 65.2418 30.084C65.2418 30.444 65.3798 30.732 65.6558 30.948C65.9438 31.152 66.3338 31.254 66.8258 31.254C67.2938 31.254 67.7138 31.146 68.0858 30.93C68.4578 30.702 68.7278 30.372 68.8958 29.94L69.3278 31.236C69.1238 31.86 68.7518 32.334 68.2118 32.658C67.6718 32.982 66.9758 33.144 66.1238 33.144ZM74.6051 33V19.644H77.4131V33H74.6051ZM89.0589 33L84.9369 20.4H87.9609L91.5429 31.56H90.0309L93.7749 20.4H96.4749L100.075 31.56H98.6169L102.289 20.4H105.079L100.957 33H97.8249L94.6389 23.208H95.4669L92.1909 33H89.0589ZM110.954 33.144C109.85 33.144 108.878 32.928 108.038 32.496C107.21 32.064 106.568 31.476 106.112 30.732C105.656 29.976 105.428 29.118 105.428 28.158C105.428 27.186 105.65 26.328 106.094 25.584C106.55 24.828 107.168 24.24 107.948 23.82C108.728 23.388 109.61 23.172 110.594 23.172C111.542 23.172 112.394 23.376 113.15 23.784C113.918 24.18 114.524 24.756 114.968 25.512C115.412 26.256 115.634 27.15 115.634 28.194C115.634 28.302 115.628 28.428 115.616 28.572C115.604 28.704 115.592 28.83 115.58 28.95H107.714V27.312H114.104L113.024 27.798C113.024 27.294 112.922 26.856 112.718 26.484C112.514 26.112 112.232 25.824 111.872 25.62C111.512 25.404 111.092 25.296 110.612 25.296C110.132 25.296 109.706 25.404 109.334 25.62C108.974 25.824 108.692 26.118 108.488 26.502C108.284 26.874 108.182 27.318 108.182 27.834V28.266C108.182 28.794 108.296 29.262 108.524 29.67C108.764 30.066 109.094 30.372 109.514 30.588C109.946 30.792 110.45 30.894 111.026 30.894C111.542 30.894 111.992 30.816 112.376 30.66C112.772 30.504 113.132 30.27 113.456 29.958L114.95 31.578C114.506 32.082 113.948 32.472 113.276 32.748C112.604 33.012 111.83 33.144 110.954 33.144ZM117.863 33V23.316H120.671V33H117.863ZM119.267 21.966C118.751 21.966 118.331 21.816 118.007 21.516C117.683 21.216 117.521 20.844 117.521 20.4C117.521 19.956 117.683 19.584 118.007 19.284C118.331 18.984 118.751 18.834 119.267 18.834C119.783 18.834 120.203 18.978 120.527 19.266C120.851 19.542 121.013 19.902 121.013 20.346C121.013 20.814 120.851 21.204 120.527 21.516C120.215 21.816 119.795 21.966 119.267 21.966ZM128.192 36.636C127.28 36.636 126.398 36.522 125.546 36.294C124.706 36.078 124.004 35.748 123.44 35.304L124.556 33.288C124.964 33.624 125.48 33.888 126.104 34.08C126.74 34.284 127.364 34.386 127.976 34.386C128.972 34.386 129.692 34.164 130.136 33.72C130.592 33.276 130.82 32.616 130.82 31.74V30.282L131 27.852L130.964 25.404V23.316H133.628V31.38C133.628 33.18 133.16 34.506 132.224 35.358C131.288 36.21 129.944 36.636 128.192 36.636ZM127.76 32.532C126.86 32.532 126.044 32.34 125.312 31.956C124.592 31.56 124.01 31.014 123.566 30.318C123.134 29.61 122.918 28.788 122.918 27.852C122.918 26.904 123.134 26.082 123.566 25.386C124.01 24.678 124.592 24.132 125.312 23.748C126.044 23.364 126.86 23.172 127.76 23.172C128.576 23.172 129.296 23.34 129.92 23.676C130.544 24 131.03 24.51 131.378 25.206C131.726 25.89 131.9 26.772 131.9 27.852C131.9 28.92 131.726 29.802 131.378 30.498C131.03 31.182 130.544 31.692 129.92 32.028C129.296 32.364 128.576 32.532 127.76 32.532ZM128.318 30.228C128.81 30.228 129.248 30.132 129.632 29.94C130.016 29.736 130.316 29.454 130.532 29.094C130.748 28.734 130.856 28.32 130.856 27.852C130.856 27.372 130.748 26.958 130.532 26.61C130.316 26.25 130.016 25.974 129.632 25.782C129.248 25.578 128.81 25.476 128.318 25.476C127.826 25.476 127.388 25.578 127.004 25.782C126.62 25.974 126.314 26.25 126.086 26.61C125.87 26.958 125.762 27.372 125.762 27.852C125.762 28.32 125.87 28.734 126.086 29.094C126.314 29.454 126.62 29.736 127.004 29.94C127.388 30.132 127.826 30.228 128.318 30.228ZM142.487 23.172C143.255 23.172 143.939 23.328 144.539 23.64C145.151 23.94 145.631 24.408 145.979 25.044C146.327 25.668 146.501 26.472 146.501 27.456V33H143.693V27.888C143.693 27.108 143.519 26.532 143.171 26.16C142.835 25.788 142.355 25.602 141.731 25.602C141.287 25.602 140.885 25.698 140.525 25.89C140.177 26.07 139.901 26.352 139.697 26.736C139.505 27.12 139.409 27.612 139.409 28.212V33H136.601V19.644H139.409V25.998L138.779 25.188C139.127 24.54 139.625 24.042 140.273 23.694C140.921 23.346 141.659 23.172 142.487 23.172ZM153.366 33.144C152.226 33.144 151.338 32.856 150.702 32.28C150.066 31.692 149.748 30.822 149.748 29.67V21.174H152.556V29.634C152.556 30.042 152.664 30.36 152.88 30.588C153.096 30.804 153.39 30.912 153.762 30.912C154.206 30.912 154.584 30.792 154.896 30.552L155.652 32.532C155.364 32.736 155.016 32.892 154.608 33C154.212 33.096 153.798 33.144 153.366 33.144ZM148.254 25.692V23.532H154.968V25.692H148.254Z" fill="#181818"/>
<path d="M93 55.3906C87.7179 55.3906 83.3906 59.7179 83.3906 65C83.3906 68.0248 84.8113 70.7347 87.0162 72.5H78L66.75 106.25H119.25L108 72.5H98.9838C101.189 70.7347 102.609 68.0248 102.609 65C102.609 59.7179 98.2821 55.3906 93 55.3906ZM93 59.6094C96.0021 59.6094 98.3906 61.9979 98.3906 65C98.3906 68.0021 96.0021 70.3906 93 70.3906C89.9979 70.3906 87.6094 68.0021 87.6094 65C87.6094 61.9979 89.9979 59.6094 93 59.6094ZM83.3654 83.3926H86.1193V87.2906L90.0888 83.3925H93.2861L88.1435 88.4491L93.8154 94.0711H90.368L86.1193 89.8654V94.0711H83.3654V83.3926ZM97.4202 85.8816C97.978 85.8816 98.4693 85.9911 98.8936 86.2105C99.3178 86.4298 99.7066 86.7753 100.06 87.2476V86.0605H102.634V93.263C102.634 94.5505 102.227 95.5327 101.411 96.2098C100.601 96.8919 99.4228 97.2325 97.8778 97.2325C97.3772 97.2325 96.8934 97.1945 96.4259 97.1182C95.9476 97.0392 95.4764 96.9221 95.0168 96.7678V94.7721C95.4652 95.0296 95.9039 95.2204 96.3328 95.3444C96.7622 95.4731 97.1938 95.5375 97.6277 95.5375C98.467 95.5375 99.082 95.354 99.473 94.9868C99.864 94.6197 100.06 94.0452 100.06 93.2632V92.7124C99.7069 93.1795 99.318 93.5229 98.8936 93.7422C98.4694 93.9614 97.978 94.0713 97.4202 94.0713C96.4425 94.0713 95.6345 93.6875 94.9956 92.9198C94.3566 92.1473 94.037 91.165 94.037 89.973C94.037 88.7761 94.3566 87.7961 94.9956 87.0332C95.6345 86.2657 96.4425 85.8816 97.4202 85.8816ZM98.3715 87.7269C97.8422 87.7269 97.4296 87.9226 97.134 88.3134C96.8384 88.7046 96.6906 89.2577 96.6906 89.973C96.6906 90.7073 96.8336 91.2651 97.1197 91.6464C97.4059 92.0232 97.8232 92.2116 98.3715 92.2116C98.9055 92.2116 99.3203 92.0159 99.6161 91.625C99.9116 91.2339 100.059 90.6833 100.059 89.9729C100.059 89.2576 99.9116 88.7045 99.6159 88.3135C99.3203 87.9225 98.9055 87.7269 98.3714 87.7269H98.3715Z" fill="black"/>
<path d="M81.576 142.084C81.024 142.084 80.528 141.988 80.088 141.796C79.656 141.596 79.316 141.324 79.068 140.98C78.82 140.628 78.692 140.224 78.684 139.768H79.848C79.888 140.16 80.048 140.492 80.328 140.764C80.616 141.028 81.032 141.16 81.576 141.16C82.096 141.16 82.504 141.032 82.8 140.776C83.104 140.512 83.256 140.176 83.256 139.768C83.256 139.448 83.168 139.188 82.992 138.988C82.816 138.788 82.596 138.636 82.332 138.532C82.068 138.428 81.712 138.316 81.264 138.196C80.712 138.052 80.268 137.908 79.932 137.764C79.604 137.62 79.32 137.396 79.08 137.092C78.848 136.78 78.732 136.364 78.732 135.844C78.732 135.388 78.848 134.984 79.08 134.632C79.312 134.28 79.636 134.008 80.052 133.816C80.476 133.624 80.96 133.528 81.504 133.528C82.288 133.528 82.928 133.724 83.424 134.116C83.928 134.508 84.212 135.028 84.276 135.676H83.076C83.036 135.356 82.868 135.076 82.572 134.836C82.276 134.588 81.884 134.464 81.396 134.464C80.94 134.464 80.568 134.584 80.28 134.824C79.992 135.056 79.848 135.384 79.848 135.808C79.848 136.112 79.932 136.36 80.1 136.552C80.276 136.744 80.488 136.892 80.736 136.996C80.992 137.092 81.348 137.204 81.804 137.332C82.356 137.484 82.8 137.636 83.136 137.788C83.472 137.932 83.76 138.16 84 138.472C84.24 138.776 84.36 139.192 84.36 139.72C84.36 140.128 84.252 140.512 84.036 140.872C83.82 141.232 83.5 141.524 83.076 141.748C82.652 141.972 82.152 142.084 81.576 142.084ZM89.075 142.108C88.459 142.108 87.899 141.968 87.395 141.688C86.899 141.408 86.507 141.012 86.219 140.5C85.939 139.98 85.799 139.38 85.799 138.7C85.799 138.028 85.943 137.436 86.231 136.924C86.527 136.404 86.927 136.008 87.431 135.736C87.935 135.456 88.499 135.316 89.123 135.316C89.747 135.316 90.311 135.456 90.815 135.736C91.319 136.008 91.715 136.4 92.003 136.912C92.299 137.424 92.447 138.02 92.447 138.7C92.447 139.38 92.295 139.98 91.991 140.5C91.695 141.012 91.291 141.408 90.779 141.688C90.267 141.968 89.699 142.108 89.075 142.108ZM89.075 141.148C89.467 141.148 89.835 141.056 90.179 140.872C90.523 140.688 90.799 140.412 91.007 140.044C91.223 139.676 91.331 139.228 91.331 138.7C91.331 138.172 91.227 137.724 91.019 137.356C90.811 136.988 90.539 136.716 90.203 136.54C89.867 136.356 89.503 136.264 89.111 136.264C88.711 136.264 88.343 136.356 88.007 136.54C87.679 136.716 87.415 136.988 87.215 137.356C87.015 137.724 86.915 138.172 86.915 138.7C86.915 139.236 87.011 139.688 87.203 140.056C87.403 140.424 87.667 140.7 87.995 140.884C88.323 141.06 88.683 141.148 89.075 141.148ZM95.2147 133.12V142H94.1227V133.12H95.2147ZM96.9079 138.688C96.9079 138.016 97.0439 137.428 97.3159 136.924C97.5879 136.412 97.9599 136.016 98.4319 135.736C98.9119 135.456 99.4479 135.316 100.04 135.316C100.552 135.316 101.028 135.436 101.468 135.676C101.908 135.908 102.244 136.216 102.476 136.6V133.12H103.58V142H102.476V140.764C102.26 141.156 101.94 141.48 101.516 141.736C101.092 141.984 100.596 142.108 100.028 142.108C99.4439 142.108 98.9119 141.964 98.4319 141.676C97.9599 141.388 97.5879 140.984 97.3159 140.464C97.0439 139.944 96.9079 139.352 96.9079 138.688ZM102.476 138.7C102.476 138.204 102.376 137.772 102.176 137.404C101.976 137.036 101.704 136.756 101.36 136.564C101.024 136.364 100.652 136.264 100.244 136.264C99.8359 136.264 99.4639 136.36 99.1279 136.552C98.7919 136.744 98.5239 137.024 98.3239 137.392C98.1239 137.76 98.0239 138.192 98.0239 138.688C98.0239 139.192 98.1239 139.632 98.3239 140.008C98.5239 140.376 98.7919 140.66 99.1279 140.86C99.4639 141.052 99.8359 141.148 100.244 141.148C100.652 141.148 101.024 141.052 101.36 140.86C101.704 140.66 101.976 140.376 102.176 140.008C102.376 139.632 102.476 139.196 102.476 138.7Z" fill="#118924"/>
<path d="M70.816 167.832C72.1707 166.744 73.232 165.853 74 165.16C74.768 164.456 75.4133 163.725 75.936 162.968C76.4693 162.2 76.736 161.448 76.736 160.712C76.736 160.019 76.5653 159.475 76.224 159.08C75.8933 158.675 75.3547 158.472 74.608 158.472C73.8827 158.472 73.3173 158.701 72.912 159.16C72.5173 159.608 72.304 160.211 72.272 160.968H70.864C70.9067 159.773 71.2693 158.851 71.952 158.2C72.6347 157.549 73.5147 157.224 74.592 157.224C75.6907 157.224 76.56 157.528 77.2 158.136C77.8507 158.744 78.176 159.581 78.176 160.648C78.176 161.533 77.9093 162.397 77.376 163.24C76.8533 164.072 76.256 164.808 75.584 165.448C74.912 166.077 74.0533 166.813 73.008 167.656H78.512V168.872H70.816V167.832ZM80.5151 163.096C80.5151 161.261 80.8138 159.832 81.4111 158.808C82.0085 157.773 83.0538 157.256 84.5471 157.256C86.0298 157.256 87.0698 157.773 87.6671 158.808C88.2645 159.832 88.5631 161.261 88.5631 163.096C88.5631 164.963 88.2645 166.413 87.6671 167.448C87.0698 168.483 86.0298 169 84.5471 169C83.0538 169 82.0085 168.483 81.4111 167.448C80.8138 166.413 80.5151 164.963 80.5151 163.096ZM87.1231 163.096C87.1231 162.168 87.0591 161.384 86.9311 160.744C86.8138 160.093 86.5631 159.571 86.1791 159.176C85.8058 158.781 85.2618 158.584 84.5471 158.584C83.8218 158.584 83.2671 158.781 82.8831 159.176C82.5098 159.571 82.2591 160.093 82.1311 160.744C82.0138 161.384 81.9551 162.168 81.9551 163.096C81.9551 164.056 82.0138 164.861 82.1311 165.512C82.2591 166.163 82.5098 166.685 82.8831 167.08C83.2671 167.475 83.8218 167.672 84.5471 167.672C85.2618 167.672 85.8058 167.475 86.1791 167.08C86.5631 166.685 86.8138 166.163 86.9311 165.512C87.0591 164.861 87.1231 164.056 87.1231 163.096ZM96.018 169L92.578 165.128V169H91.122V157.16H92.578V164.12L95.954 160.232H97.986L93.858 164.6L98.002 169H96.018ZM108.124 161.08C107.815 160.429 107.367 159.928 106.78 159.576C106.194 159.213 105.511 159.032 104.732 159.032C103.954 159.032 103.25 159.213 102.62 159.576C102.002 159.928 101.511 160.44 101.148 161.112C100.796 161.773 100.62 162.541 100.62 163.416C100.62 164.291 100.796 165.059 101.148 165.72C101.511 166.381 102.002 166.893 102.62 167.256C103.25 167.608 103.954 167.784 104.732 167.784C105.82 167.784 106.716 167.459 107.42 166.808C108.124 166.157 108.535 165.277 108.652 164.168H104.204V162.984H110.204V164.104C110.119 165.021 109.831 165.864 109.34 166.632C108.85 167.389 108.204 167.992 107.404 168.44C106.604 168.877 105.714 169.096 104.732 169.096C103.698 169.096 102.754 168.856 101.9 168.376C101.047 167.885 100.37 167.208 99.8684 166.344C99.3777 165.48 99.1324 164.504 99.1324 163.416C99.1324 162.328 99.3777 161.352 99.8684 160.488C100.37 159.613 101.047 158.936 101.9 158.456C102.754 157.965 103.698 157.72 104.732 157.72C105.916 157.72 106.962 158.013 107.868 158.6C108.786 159.187 109.452 160.013 109.868 161.08H108.124Z" fill="black"/>
</svg>
