<svg width="31" height="31" viewBox="0 0 31 31" fill="none" xmlns="http://www.w3.org/2000/svg">
<circle cx="15.1875" cy="15.1099" r="15" fill="#176724"/>
<path d="M18.1875 15.1099C18.1875 15.7032 18.0116 16.2832 17.6819 16.7766C17.3523 17.2699 16.8837 17.6544 16.3356 17.8815C15.7874 18.1086 15.1842 18.168 14.6022 18.0522C14.0203 17.9365 13.4857 17.6507 13.0662 17.2312C12.6466 16.8116 12.3609 16.2771 12.2451 15.6951C12.1294 15.1132 12.1888 14.51 12.4159 13.9618C12.6429 13.4136 13.0274 12.9451 13.5208 12.6155C14.0141 12.2858 14.5942 12.1099 15.1875 12.1099C15.9824 12.1123 16.744 12.4292 17.3061 12.9913C17.8682 13.5533 18.185 14.315 18.1875 15.1099ZM24.5625 10.9849V19.2349C24.5625 20.6272 24.0094 21.9626 23.0248 22.9472C22.0402 23.9317 20.7049 24.4849 19.3125 24.4849H11.0625C9.67011 24.4849 8.33476 23.9317 7.35019 22.9472C6.36562 21.9626 5.8125 20.6272 5.8125 19.2349V10.9849C5.8125 9.59248 6.36562 8.25712 7.35019 7.27255C8.33476 6.28799 9.67011 5.73486 11.0625 5.73486H19.3125C20.7049 5.73486 22.0402 6.28799 23.0248 7.27255C24.0094 8.25712 24.5625 9.59248 24.5625 10.9849ZM19.6875 15.1099C19.6875 14.2198 19.4236 13.3498 18.9291 12.6098C18.4346 11.8698 17.7318 11.293 16.9096 10.9524C16.0873 10.6118 15.1825 10.5227 14.3096 10.6963C13.4367 10.87 12.6349 11.2985 12.0055 11.9279C11.3762 12.5572 10.9476 13.359 10.774 14.232C10.6003 15.1049 10.6894 16.0097 11.03 16.8319C11.3706 17.6542 11.9474 18.357 12.6874 18.8515C13.4275 19.3459 14.2975 19.6099 15.1875 19.6099C16.381 19.6099 17.5256 19.1358 18.3695 18.2918C19.2134 17.4479 19.6875 16.3033 19.6875 15.1099ZM21.1875 10.2349C21.1875 10.0124 21.1215 9.79485 20.9979 9.60985C20.8743 9.42484 20.6986 9.28065 20.493 9.1955C20.2875 9.11035 20.0613 9.08807 19.843 9.13148C19.6248 9.17489 19.4243 9.28203 19.267 9.43937C19.1097 9.5967 19.0025 9.79716 18.9591 10.0154C18.9157 10.2336 18.938 10.4598 19.0231 10.6654C19.1083 10.8709 19.2525 11.0467 19.4375 11.1703C19.6225 11.2939 19.84 11.3599 20.0625 11.3599C20.3609 11.3599 20.647 11.2413 20.858 11.0304C21.069 10.8194 21.1875 10.5332 21.1875 10.2349Z" fill="white"/>
</svg>
