<svg width="31" height="31" viewBox="0 0 31 31" fill="none" xmlns="http://www.w3.org/2000/svg">
<circle cx="15.1875" cy="15.1099" r="15" fill="#176724"/>
<path fill-rule="evenodd" clip-rule="evenodd" d="M13.3783 12.9174H16.4733V14.459C16.9192 13.5724 18.0625 12.7757 19.78 12.7757C23.0725 12.7757 23.8542 14.5407 23.8542 17.779V23.7765H20.5208V18.5165C20.5208 16.6724 20.075 15.6324 18.94 15.6324C17.3658 15.6324 16.7117 16.7532 16.7117 18.5157V23.7765H13.3783V12.9174ZM7.6625 23.6349H10.9958V12.7757H7.6625V23.6349ZM11.4733 9.23486C11.4735 9.51426 11.418 9.79089 11.3103 10.0487C11.2026 10.3065 11.0447 10.5403 10.8458 10.7365C10.4428 11.1371 9.89734 11.3612 9.32917 11.3599C8.76199 11.3595 8.21776 11.1359 7.81417 10.7374C7.61601 10.5405 7.45865 10.3064 7.35112 10.0486C7.24358 9.79073 7.18798 9.51422 7.1875 9.23486C7.1875 8.6707 7.4125 8.1307 7.815 7.73236C8.21824 7.33333 8.7627 7.10961 9.33 7.10986C9.89833 7.10986 10.4433 7.33403 10.8458 7.73236C11.2475 8.1307 11.4733 8.6707 11.4733 9.23486Z" fill="white"/>
</svg>
