<svg width="234" height="101" viewBox="0 0 234 101" fill="none" xmlns="http://www.w3.org/2000/svg">
<path d="M0 19.2C0 12.4794 0 9.11905 1.30792 6.55211C2.4584 4.29417 4.29417 2.4584 6.55211 1.30792C9.11905 0 12.4794 0 19.2 0H214.8C221.521 0 224.881 0 227.448 1.30792C229.706 2.4584 231.542 4.29417 232.692 6.55211C234 9.11905 234 12.4794 234 19.2V81.8C234 88.5206 234 91.881 232.692 94.4479C231.542 96.7058 229.706 98.5416 227.448 99.6921C224.881 101 221.521 101 214.8 101H19.2C12.4794 101 9.11905 101 6.55211 99.6921C4.29417 98.5416 2.4584 96.7058 1.30792 94.4479C0 91.881 0 88.5206 0 81.8V19.2Z" fill="url(#paint0_linear_817_10135)"/>
<path d="M27.104 37V26.776H23.072V24.4H34.052V26.776H30.02V37H27.104ZM39.4066 37.144C38.3746 37.144 37.4566 36.928 36.6526 36.496C35.8606 36.064 35.2306 35.476 34.7626 34.732C34.3066 33.976 34.0786 33.118 34.0786 32.158C34.0786 31.186 34.3066 30.328 34.7626 29.584C35.2306 28.828 35.8606 28.24 36.6526 27.82C37.4566 27.388 38.3746 27.172 39.4066 27.172C40.4266 27.172 41.3386 27.388 42.1426 27.82C42.9466 28.24 43.5766 28.822 44.0326 29.566C44.4886 30.31 44.7166 31.174 44.7166 32.158C44.7166 33.118 44.4886 33.976 44.0326 34.732C43.5766 35.476 42.9466 36.064 42.1426 36.496C41.3386 36.928 40.4266 37.144 39.4066 37.144ZM39.4066 34.84C39.8746 34.84 40.2946 34.732 40.6666 34.516C41.0386 34.3 41.3326 33.994 41.5486 33.598C41.7646 33.19 41.8726 32.71 41.8726 32.158C41.8726 31.594 41.7646 31.114 41.5486 30.718C41.3326 30.322 41.0386 30.016 40.6666 29.8C40.2946 29.584 39.8746 29.476 39.4066 29.476C38.9386 29.476 38.5186 29.584 38.1466 29.8C37.7746 30.016 37.4746 30.322 37.2466 30.718C37.0306 31.114 36.9226 31.594 36.9226 32.158C36.9226 32.71 37.0306 33.19 37.2466 33.598C37.4746 33.994 37.7746 34.3 38.1466 34.516C38.5186 34.732 38.9386 34.84 39.4066 34.84ZM50.9135 37.144C49.7735 37.144 48.8855 36.856 48.2495 36.28C47.6135 35.692 47.2955 34.822 47.2955 33.67V25.174H50.1035V33.634C50.1035 34.042 50.2115 34.36 50.4275 34.588C50.6435 34.804 50.9375 34.912 51.3095 34.912C51.7535 34.912 52.1315 34.792 52.4435 34.552L53.1995 36.532C52.9115 36.736 52.5635 36.892 52.1555 37C51.7595 37.096 51.3455 37.144 50.9135 37.144ZM45.8015 29.692V27.532H52.5155V29.692H45.8015ZM61.0758 37V35.11L60.8958 34.696V31.312C60.8958 30.712 60.7098 30.244 60.3378 29.908C59.9778 29.572 59.4198 29.404 58.6638 29.404C58.1478 29.404 57.6378 29.488 57.1338 29.656C56.6418 29.812 56.2218 30.028 55.8738 30.304L54.8658 28.342C55.3938 27.97 56.0298 27.682 56.7738 27.478C57.5178 27.274 58.2738 27.172 59.0418 27.172C60.5178 27.172 61.6638 27.52 62.4798 28.216C63.2958 28.912 63.7038 29.998 63.7038 31.474V37H61.0758ZM58.1238 37.144C57.3678 37.144 56.7198 37.018 56.1798 36.766C55.6398 36.502 55.2258 36.148 54.9378 35.704C54.6498 35.26 54.5058 34.762 54.5058 34.21C54.5058 33.634 54.6438 33.13 54.9198 32.698C55.2078 32.266 55.6578 31.93 56.2698 31.69C56.8818 31.438 57.6798 31.312 58.6638 31.312H61.2378V32.95H58.9698C58.3098 32.95 57.8538 33.058 57.6018 33.274C57.3618 33.49 57.2418 33.76 57.2418 34.084C57.2418 34.444 57.3798 34.732 57.6558 34.948C57.9438 35.152 58.3338 35.254 58.8258 35.254C59.2938 35.254 59.7138 35.146 60.0858 34.93C60.4578 34.702 60.7278 34.372 60.8958 33.94L61.3278 35.236C61.1238 35.86 60.7518 36.334 60.2118 36.658C59.6718 36.982 58.9758 37.144 58.1238 37.144ZM66.6051 37V23.644H69.4131V37H66.6051ZM78.0349 37V24.4H83.4889C84.6169 24.4 85.5889 24.586 86.4049 24.958C87.2209 25.318 87.8509 25.84 88.2949 26.524C88.7389 27.208 88.9609 28.024 88.9609 28.972C88.9609 29.908 88.7389 30.718 88.2949 31.402C87.8509 32.074 87.2209 32.59 86.4049 32.95C85.5889 33.31 84.6169 33.49 83.4889 33.49H79.6549L80.9509 32.212V37H78.0349ZM86.0449 37L82.8949 32.428H86.0089L89.1949 37H86.0449ZM80.9509 32.536L79.6549 31.168H83.3269C84.2269 31.168 84.8989 30.976 85.3429 30.592C85.7869 30.196 86.0089 29.656 86.0089 28.972C86.0089 28.276 85.7869 27.736 85.3429 27.352C84.8989 26.968 84.2269 26.776 83.3269 26.776H79.6549L80.9509 25.39V32.536ZM96.2392 37.144C95.1352 37.144 94.1632 36.928 93.3232 36.496C92.4952 36.064 91.8532 35.476 91.3972 34.732C90.9412 33.976 90.7132 33.118 90.7132 32.158C90.7132 31.186 90.9352 30.328 91.3792 29.584C91.8352 28.828 92.4532 28.24 93.2332 27.82C94.0132 27.388 94.8952 27.172 95.8792 27.172C96.8272 27.172 97.6792 27.376 98.4352 27.784C99.2032 28.18 99.8092 28.756 100.253 29.512C100.697 30.256 100.919 31.15 100.919 32.194C100.919 32.302 100.913 32.428 100.901 32.572C100.889 32.704 100.877 32.83 100.865 32.95H92.9992V31.312H99.3892L98.3092 31.798C98.3092 31.294 98.2072 30.856 98.0032 30.484C97.7992 30.112 97.5172 29.824 97.1572 29.62C96.7972 29.404 96.3772 29.296 95.8972 29.296C95.4172 29.296 94.9912 29.404 94.6192 29.62C94.2592 29.824 93.9772 30.118 93.7732 30.502C93.5692 30.874 93.4672 31.318 93.4672 31.834V32.266C93.4672 32.794 93.5812 33.262 93.8092 33.67C94.0492 34.066 94.3792 34.372 94.7992 34.588C95.2312 34.792 95.7352 34.894 96.3112 34.894C96.8272 34.894 97.2772 34.816 97.6612 34.66C98.0572 34.504 98.4172 34.27 98.7412 33.958L100.235 35.578C99.7912 36.082 99.2332 36.472 98.5612 36.748C97.8892 37.012 97.1152 37.144 96.2392 37.144ZM105.601 37L101.533 27.316H104.431L107.815 35.65H106.375L109.885 27.316H112.585L108.499 37H105.601ZM114.091 37V27.316H116.899V37H114.091ZM115.495 25.966C114.979 25.966 114.559 25.816 114.235 25.516C113.911 25.216 113.749 24.844 113.749 24.4C113.749 23.956 113.911 23.584 114.235 23.284C114.559 22.984 114.979 22.834 115.495 22.834C116.011 22.834 116.431 22.978 116.755 23.266C117.079 23.542 117.241 23.902 117.241 24.346C117.241 24.814 117.079 25.204 116.755 25.516C116.443 25.816 116.023 25.966 115.495 25.966ZM124.671 37.144C123.567 37.144 122.595 36.928 121.755 36.496C120.927 36.064 120.285 35.476 119.829 34.732C119.373 33.976 119.145 33.118 119.145 32.158C119.145 31.186 119.367 30.328 119.811 29.584C120.267 28.828 120.885 28.24 121.665 27.82C122.445 27.388 123.327 27.172 124.311 27.172C125.259 27.172 126.111 27.376 126.867 27.784C127.635 28.18 128.241 28.756 128.685 29.512C129.129 30.256 129.351 31.15 129.351 32.194C129.351 32.302 129.345 32.428 129.333 32.572C129.321 32.704 129.309 32.83 129.297 32.95H121.431V31.312H127.821L126.741 31.798C126.741 31.294 126.639 30.856 126.435 30.484C126.231 30.112 125.949 29.824 125.589 29.62C125.229 29.404 124.809 29.296 124.329 29.296C123.849 29.296 123.423 29.404 123.051 29.62C122.691 29.824 122.409 30.118 122.205 30.502C122.001 30.874 121.899 31.318 121.899 31.834V32.266C121.899 32.794 122.013 33.262 122.241 33.67C122.481 34.066 122.811 34.372 123.231 34.588C123.663 34.792 124.167 34.894 124.743 34.894C125.259 34.894 125.709 34.816 126.093 34.66C126.489 34.504 126.849 34.27 127.173 33.958L128.667 35.578C128.223 36.082 127.665 36.472 126.993 36.748C126.321 37.012 125.547 37.144 124.671 37.144ZM133.618 37L130.126 27.316H132.772L135.67 35.65H134.41L137.434 27.316H139.81L142.744 35.65H141.484L144.472 27.316H146.956L143.446 37H140.728L138.154 29.854H138.982L136.318 37H133.618ZM151.739 37.144C150.911 37.144 150.113 37.048 149.345 36.856C148.589 36.652 147.989 36.4 147.545 36.1L148.481 34.084C148.925 34.36 149.447 34.588 150.047 34.768C150.659 34.936 151.259 35.02 151.847 35.02C152.495 35.02 152.951 34.942 153.215 34.786C153.491 34.63 153.629 34.414 153.629 34.138C153.629 33.91 153.521 33.742 153.305 33.634C153.101 33.514 152.825 33.424 152.477 33.364C152.129 33.304 151.745 33.244 151.325 33.184C150.917 33.124 150.503 33.046 150.083 32.95C149.663 32.842 149.279 32.686 148.931 32.482C148.583 32.278 148.301 32.002 148.085 31.654C147.881 31.306 147.779 30.856 147.779 30.304C147.779 29.692 147.953 29.152 148.301 28.684C148.661 28.216 149.177 27.85 149.849 27.586C150.521 27.31 151.325 27.172 152.261 27.172C152.921 27.172 153.593 27.244 154.277 27.388C154.961 27.532 155.531 27.742 155.987 28.018L155.051 30.016C154.583 29.74 154.109 29.554 153.629 29.458C153.161 29.35 152.705 29.296 152.261 29.296C151.637 29.296 151.181 29.38 150.893 29.548C150.605 29.716 150.461 29.932 150.461 30.196C150.461 30.436 150.563 30.616 150.767 30.736C150.983 30.856 151.265 30.952 151.613 31.024C151.961 31.096 152.339 31.162 152.747 31.222C153.167 31.27 153.587 31.348 154.007 31.456C154.427 31.564 154.805 31.72 155.141 31.924C155.489 32.116 155.771 32.386 155.987 32.734C156.203 33.07 156.311 33.514 156.311 34.066C156.311 34.666 156.131 35.2 155.771 35.668C155.411 36.124 154.889 36.484 154.205 36.748C153.533 37.012 152.711 37.144 151.739 37.144Z" fill="white"/>
<path d="M39.7343 69.9708C39.4635 70.2332 39.3391 70.6127 39.4008 70.9849L40.3302 76.1285C40.4086 76.5645 40.2246 77.0057 39.8597 77.2576C39.5022 77.519 39.0265 77.5503 38.6365 77.3413L34.0062 74.9263C33.8452 74.8405 33.6664 74.7945 33.4835 74.7893H33.2002C33.1019 74.8039 33.0057 74.8353 32.9179 74.8834L28.2865 77.3099C28.0576 77.4249 27.7983 77.4657 27.5443 77.4249C26.9253 77.3078 26.5124 76.7182 26.6138 76.0961L27.5443 70.9525C27.6059 70.5772 27.4815 70.1956 27.2108 69.929L23.4356 66.2699C23.1199 65.9636 23.0101 65.5036 23.1544 65.0885C23.2945 64.6745 23.652 64.3724 24.0838 64.3044L29.2797 63.5507C29.6749 63.5099 30.022 63.2694 30.1997 62.914L32.4893 58.2199C32.5436 58.1153 32.6137 58.0192 32.6983 57.9376L32.7924 57.8644C32.8416 57.8101 32.898 57.7651 32.9608 57.7285L33.0747 57.6867L33.2524 57.6135H33.6926C34.0857 57.6543 34.4317 57.8895 34.6126 58.2408L36.9324 62.914C37.0997 63.2558 37.4249 63.4932 37.8002 63.5507L42.9961 64.3044C43.4352 64.3672 43.8021 64.6703 43.9474 65.0885C44.0844 65.5078 43.9663 65.9678 43.6443 66.2699L39.7343 69.9708Z" fill="#FEFEFE"/>
<path d="M67.9608 69.9708C67.69 70.2332 67.5656 70.6127 67.6273 70.9849L68.5567 76.1285C68.6351 76.5645 68.4511 77.0057 68.0863 77.2576C67.7287 77.519 67.253 77.5503 66.8631 77.3413L62.2328 74.9263C62.0718 74.8405 61.893 74.7945 61.71 74.7893H61.4267C61.3285 74.8039 61.2323 74.8353 61.1445 74.8834L56.5131 77.3099C56.2841 77.4249 56.0249 77.4657 55.7708 77.4249C55.1519 77.3078 54.739 76.7182 54.8404 76.0961L55.7708 70.9525C55.8325 70.5772 55.7081 70.1956 55.4373 69.929L51.6622 66.2699C51.3465 65.9636 51.2367 65.5036 51.381 65.0885C51.521 64.6745 51.8786 64.3724 52.3104 64.3044L57.5063 63.5507C57.9015 63.5099 58.2485 63.2694 58.4263 62.914L60.7158 58.2199C60.7702 58.1153 60.8402 58.0192 60.9249 57.9376L61.019 57.8644C61.0681 57.8101 61.1246 57.7651 61.1873 57.7285L61.3013 57.6867L61.479 57.6135H61.9191C62.3122 57.6543 62.6583 57.8895 62.8391 58.2408L65.159 62.914C65.3263 63.2558 65.6514 63.4932 66.0267 63.5507L71.2226 64.3044C71.6617 64.3672 72.0287 64.6703 72.174 65.0885C72.311 65.5078 72.1928 65.9678 71.8708 66.2699L67.9608 69.9708Z" fill="#FEFEFE"/>
<path d="M96.1893 69.9708C95.9186 70.2332 95.7942 70.6127 95.8558 70.9849L96.7852 76.1285C96.8637 76.5645 96.6797 77.0057 96.3148 77.2576C95.9572 77.519 95.4816 77.5503 95.0916 77.3413L90.4613 74.9263C90.3003 74.8405 90.1215 74.7945 89.9386 74.7893H89.6552C89.557 74.8039 89.4608 74.8353 89.373 74.8834L84.7416 77.3099C84.5127 77.4249 84.2534 77.4657 83.9993 77.4249C83.3804 77.3078 82.9675 76.7182 83.0689 76.0961L83.9993 70.9525C84.061 70.5772 83.9366 70.1956 83.6658 69.929L79.8907 66.2699C79.575 65.9636 79.4652 65.5036 79.6095 65.0885C79.7496 64.6745 80.1071 64.3724 80.5389 64.3044L85.7348 63.5507C86.13 63.5099 86.4771 63.2694 86.6548 62.914L88.9443 58.2199C88.9987 58.1153 89.0687 58.0192 89.1534 57.9376L89.2475 57.8644C89.2967 57.8101 89.3531 57.7651 89.4158 57.7285L89.5298 57.6867L89.7075 57.6135H90.1477C90.5407 57.6543 90.8868 57.8895 91.0677 58.2408L93.3875 62.914C93.5548 63.2558 93.8799 63.4932 94.2552 63.5507L99.4512 64.3044C99.8902 64.3672 100.257 64.6703 100.403 65.0885C100.539 65.5078 100.421 65.9678 100.099 66.2699L96.1893 69.9708Z" fill="#FEFEFE"/>
<path d="M124.416 69.9708C124.145 70.2332 124.021 70.6127 124.082 70.9849L125.012 76.1285C125.09 76.5645 124.906 77.0057 124.541 77.2576C124.184 77.519 123.708 77.5503 123.318 77.3413L118.688 74.9263C118.527 74.8405 118.348 74.7945 118.165 74.7893H117.882C117.784 74.8039 117.687 74.8353 117.6 74.8834L112.968 77.3099C112.739 77.4249 112.48 77.4657 112.226 77.4249C111.607 77.3078 111.194 76.7182 111.295 76.0961L112.226 70.9525C112.288 70.5772 112.163 70.1956 111.892 69.929L108.117 66.2699C107.802 65.9636 107.692 65.5036 107.836 65.0885C107.976 64.6745 108.334 64.3724 108.765 64.3044L113.961 63.5507C114.357 63.5099 114.704 63.2694 114.881 62.914L117.171 58.2199C117.225 58.1153 117.295 58.0192 117.38 57.9376L117.474 57.8644C117.523 57.8101 117.58 57.7651 117.642 57.7285L117.756 57.6867L117.934 57.6135H118.374C118.767 57.6543 119.113 57.8895 119.294 58.2408L121.614 62.914C121.781 63.2558 122.106 63.4932 122.482 63.5507L127.678 64.3044C128.117 64.3672 128.484 64.6703 128.629 65.0885C128.766 65.5078 128.648 65.9678 128.326 66.2699L124.416 69.9708Z" fill="#FEFEFE"/>
<path d="M152.642 69.9708C152.372 70.2332 152.247 70.6127 152.309 70.9849L153.238 76.1285C153.317 76.5645 153.133 77.0057 152.768 77.2576C152.41 77.519 151.935 77.5503 151.545 77.3413L146.914 74.9263C146.753 74.8405 146.575 74.7945 146.392 74.7893H146.108C146.01 74.8039 145.914 74.8353 145.826 74.8834L141.195 77.3099C140.966 77.4249 140.707 77.4657 140.452 77.4249C139.834 77.3078 139.421 76.7182 139.522 76.0961L140.452 70.9525C140.514 70.5772 140.39 70.1956 140.119 69.929L136.344 66.2699C136.028 65.9636 135.918 65.5036 136.063 65.0885C136.203 64.6745 136.56 64.3724 136.992 64.3044L142.188 63.5507C142.583 63.5099 142.93 63.2694 143.108 62.914L145.397 58.2199C145.452 58.1153 145.522 58.0192 145.607 57.9376L145.701 57.8644C145.75 57.8101 145.806 57.7651 145.869 57.7285L145.983 57.6867L146.161 57.6135H146.601C146.994 57.6543 147.34 57.8895 147.521 58.2408L149.841 62.914C150.008 63.2558 150.333 63.4932 150.708 63.5507L155.904 64.3044C156.343 64.3672 156.71 64.6703 156.856 65.0885C156.993 65.5078 156.874 65.9678 156.552 66.2699L152.642 69.9708Z" fill="#FEFEFE" fill-opacity="0.8"/>
<path d="M169.608 65.7601V64.4321H172.616V76.0001H171.144V65.7601H169.608ZM175.757 70.0961C175.757 68.2615 176.056 66.8321 176.653 65.8081C177.25 64.7735 178.296 64.2561 179.789 64.2561C181.272 64.2561 182.312 64.7735 182.909 65.8081C183.506 66.8321 183.805 68.2615 183.805 70.0961C183.805 71.9628 183.506 73.4135 182.909 74.4481C182.312 75.4828 181.272 76.0001 179.789 76.0001C178.296 76.0001 177.25 75.4828 176.653 74.4481C176.056 73.4135 175.757 71.9628 175.757 70.0961ZM182.365 70.0961C182.365 69.1681 182.301 68.3841 182.173 67.7441C182.056 67.0935 181.805 66.5708 181.421 66.1761C181.048 65.7815 180.504 65.5841 179.789 65.5841C179.064 65.5841 178.509 65.7815 178.125 66.1761C177.752 66.5708 177.501 67.0935 177.373 67.7441C177.256 68.3841 177.197 69.1681 177.197 70.0961C177.197 71.0561 177.256 71.8615 177.373 72.5121C177.501 73.1628 177.752 73.6855 178.125 74.0801C178.509 74.4748 179.064 74.6721 179.789 74.6721C180.504 74.6721 181.048 74.4748 181.421 74.0801C181.805 73.6855 182.056 73.1628 182.173 72.5121C182.301 71.8615 182.365 71.0561 182.365 70.0961ZM186.444 70.0961C186.444 68.2615 186.743 66.8321 187.34 65.8081C187.937 64.7735 188.983 64.2561 190.476 64.2561C191.959 64.2561 192.999 64.7735 193.596 65.8081C194.193 66.8321 194.492 68.2615 194.492 70.0961C194.492 71.9628 194.193 73.4135 193.596 74.4481C192.999 75.4828 191.959 76.0001 190.476 76.0001C188.983 76.0001 187.937 75.4828 187.34 74.4481C186.743 73.4135 186.444 71.9628 186.444 70.0961ZM193.052 70.0961C193.052 69.1681 192.988 68.3841 192.86 67.7441C192.743 67.0935 192.492 66.5708 192.108 66.1761C191.735 65.7815 191.191 65.5841 190.476 65.5841C189.751 65.5841 189.196 65.7815 188.812 66.1761C188.439 66.5708 188.188 67.0935 188.06 67.7441C187.943 68.3841 187.884 69.1681 187.884 70.0961C187.884 71.0561 187.943 71.8615 188.06 72.5121C188.188 73.1628 188.439 73.6855 188.812 74.0801C189.196 74.4748 189.751 74.6721 190.476 74.6721C191.191 74.6721 191.735 74.4748 192.108 74.0801C192.492 73.6855 192.743 73.1628 192.86 72.5121C192.988 71.8615 193.052 71.0561 193.052 70.0961Z" fill="white"/>
<defs>
<linearGradient id="paint0_linear_817_10135" x1="234" y1="10.8214" x2="193.226" y2="153.391" gradientUnits="userSpaceOnUse">
<stop stop-color="#F2D741"/>
<stop offset="1" stop-color="#118924"/>
</linearGradient>
</defs>
</svg>
