<svg width="234" height="101" viewBox="0 0 234 101" fill="none" xmlns="http://www.w3.org/2000/svg">
<path d="M1 19.2C1 15.8232 1.00078 13.3507 1.16017 11.3999C1.31861 9.46067 1.62877 8.12511 2.19893 7.0061C3.25354 4.93632 4.93632 3.25354 7.0061 2.19893C8.12511 1.62877 9.46067 1.31861 11.3999 1.16017C13.3507 1.00078 15.8232 1 19.2 1H214.8C218.177 1 220.649 1.00078 222.6 1.16017C224.539 1.31861 225.875 1.62877 226.994 2.19893C229.064 3.25353 230.746 4.93632 231.801 7.0061C232.371 8.12511 232.681 9.46067 232.84 11.3999C232.999 13.3507 233 15.8232 233 19.2V81.8C233 85.1768 232.999 87.6493 232.84 89.6001C232.681 91.5393 232.371 92.8749 231.801 93.9939C230.746 96.0637 229.064 97.7465 226.994 98.8011C225.875 99.3712 224.539 99.6814 222.6 99.8398C220.649 99.9992 218.177 100 214.8 100H19.2C15.8232 100 13.3507 99.9992 11.3999 99.8398C9.46067 99.6814 8.12511 99.3712 7.0061 98.8011C4.93632 97.7465 3.25354 96.0637 2.19893 93.9939C1.62877 92.8749 1.31861 91.5393 1.16017 89.6002C1.00078 87.6493 1 85.1768 1 81.8V19.2Z" fill="white" stroke="url(#paint0_linear_817_10126)" stroke-width="2"/>
<path d="M30.524 35.216C29.552 35.216 28.646 35.06 27.806 34.748C26.978 34.424 26.258 33.968 25.646 33.38C25.034 32.792 24.554 32.102 24.206 31.31C23.87 30.518 23.702 29.648 23.702 28.7C23.702 27.752 23.87 26.882 24.206 26.09C24.554 25.298 25.034 24.608 25.646 24.02C26.27 23.432 26.996 22.982 27.824 22.67C28.652 22.346 29.558 22.184 30.542 22.184C31.634 22.184 32.618 22.376 33.494 22.76C34.382 23.132 35.126 23.684 35.726 24.416L33.854 26.144C33.422 25.652 32.942 25.286 32.414 25.046C31.886 24.794 31.31 24.668 30.686 24.668C30.098 24.668 29.558 24.764 29.066 24.956C28.574 25.148 28.148 25.424 27.788 25.784C27.428 26.144 27.146 26.57 26.942 27.062C26.75 27.554 26.654 28.1 26.654 28.7C26.654 29.3 26.75 29.846 26.942 30.338C27.146 30.83 27.428 31.256 27.788 31.616C28.148 31.976 28.574 32.252 29.066 32.444C29.558 32.636 30.098 32.732 30.686 32.732C31.31 32.732 31.886 32.612 32.414 32.372C32.942 32.12 33.422 31.742 33.854 31.238L35.726 32.966C35.126 33.698 34.382 34.256 33.494 34.64C32.618 35.024 31.628 35.216 30.524 35.216ZM41.7147 35.144C40.9107 35.144 40.1907 34.988 39.5547 34.676C38.9307 34.364 38.4447 33.89 38.0967 33.254C37.7487 32.606 37.5747 31.784 37.5747 30.788V25.316H40.3827V30.374C40.3827 31.178 40.5507 31.772 40.8867 32.156C41.2347 32.528 41.7207 32.714 42.3447 32.714C42.7767 32.714 43.1607 32.624 43.4967 32.444C43.8327 32.252 44.0967 31.964 44.2887 31.58C44.4807 31.184 44.5767 30.692 44.5767 30.104V25.316H47.3847V35H44.7207V32.336L45.2067 33.11C44.8827 33.782 44.4027 34.292 43.7667 34.64C43.1427 34.976 42.4587 35.144 41.7147 35.144ZM53.6041 35.144C52.7761 35.144 51.9781 35.048 51.2101 34.856C50.4541 34.652 49.8541 34.4 49.4101 34.1L50.3461 32.084C50.7901 32.36 51.3121 32.588 51.9121 32.768C52.5241 32.936 53.1241 33.02 53.7121 33.02C54.3601 33.02 54.8161 32.942 55.0801 32.786C55.3561 32.63 55.4941 32.414 55.4941 32.138C55.4941 31.91 55.3861 31.742 55.1701 31.634C54.9661 31.514 54.6901 31.424 54.3421 31.364C53.9941 31.304 53.6101 31.244 53.1901 31.184C52.7821 31.124 52.3681 31.046 51.9481 30.95C51.5281 30.842 51.1441 30.686 50.7961 30.482C50.4481 30.278 50.1661 30.002 49.9501 29.654C49.7461 29.306 49.6441 28.856 49.6441 28.304C49.6441 27.692 49.8181 27.152 50.1661 26.684C50.5261 26.216 51.0421 25.85 51.7141 25.586C52.3861 25.31 53.1901 25.172 54.1261 25.172C54.7861 25.172 55.4581 25.244 56.1421 25.388C56.8261 25.532 57.3961 25.742 57.8521 26.018L56.9161 28.016C56.4481 27.74 55.9741 27.554 55.4941 27.458C55.0261 27.35 54.5701 27.296 54.1261 27.296C53.5021 27.296 53.0461 27.38 52.7581 27.548C52.4701 27.716 52.3261 27.932 52.3261 28.196C52.3261 28.436 52.4281 28.616 52.6321 28.736C52.8481 28.856 53.1301 28.952 53.4781 29.024C53.8261 29.096 54.2041 29.162 54.6121 29.222C55.0321 29.27 55.4521 29.348 55.8721 29.456C56.2921 29.564 56.6701 29.72 57.0061 29.924C57.3541 30.116 57.6361 30.386 57.8521 30.734C58.0681 31.07 58.1761 31.514 58.1761 32.066C58.1761 32.666 57.9961 33.2 57.6361 33.668C57.2761 34.124 56.7541 34.484 56.0701 34.748C55.3981 35.012 54.5761 35.144 53.6041 35.144ZM64.2286 35.144C63.0886 35.144 62.2006 34.856 61.5646 34.28C60.9286 33.692 60.6106 32.822 60.6106 31.67V23.174H63.4186V31.634C63.4186 32.042 63.5266 32.36 63.7426 32.588C63.9586 32.804 64.2526 32.912 64.6246 32.912C65.0686 32.912 65.4466 32.792 65.7586 32.552L66.5146 34.532C66.2266 34.736 65.8786 34.892 65.4706 35C65.0746 35.096 64.6606 35.144 64.2286 35.144ZM59.1166 27.692V25.532H65.8306V27.692H59.1166ZM72.76 35.144C71.728 35.144 70.81 34.928 70.006 34.496C69.214 34.064 68.584 33.476 68.116 32.732C67.66 31.976 67.432 31.118 67.432 30.158C67.432 29.186 67.66 28.328 68.116 27.584C68.584 26.828 69.214 26.24 70.006 25.82C70.81 25.388 71.728 25.172 72.76 25.172C73.78 25.172 74.692 25.388 75.496 25.82C76.3 26.24 76.93 26.822 77.386 27.566C77.842 28.31 78.07 29.174 78.07 30.158C78.07 31.118 77.842 31.976 77.386 32.732C76.93 33.476 76.3 34.064 75.496 34.496C74.692 34.928 73.78 35.144 72.76 35.144ZM72.76 32.84C73.228 32.84 73.648 32.732 74.02 32.516C74.392 32.3 74.686 31.994 74.902 31.598C75.118 31.19 75.226 30.71 75.226 30.158C75.226 29.594 75.118 29.114 74.902 28.718C74.686 28.322 74.392 28.016 74.02 27.8C73.648 27.584 73.228 27.476 72.76 27.476C72.292 27.476 71.872 27.584 71.5 27.8C71.128 28.016 70.828 28.322 70.6 28.718C70.384 29.114 70.276 29.594 70.276 30.158C70.276 30.71 70.384 31.19 70.6 31.598C70.828 31.994 71.128 32.3 71.5 32.516C71.872 32.732 72.292 32.84 72.76 32.84ZM92.7089 25.172C93.4769 25.172 94.1549 25.328 94.7429 25.64C95.3429 25.94 95.8109 26.408 96.1469 27.044C96.4949 27.668 96.6689 28.472 96.6689 29.456V35H93.8609V29.888C93.8609 29.108 93.6989 28.532 93.3749 28.16C93.0509 27.788 92.5949 27.602 92.0069 27.602C91.5989 27.602 91.2329 27.698 90.9089 27.89C90.5849 28.07 90.3329 28.346 90.1529 28.718C89.9729 29.09 89.8829 29.564 89.8829 30.14V35H87.0749V29.888C87.0749 29.108 86.9129 28.532 86.5889 28.16C86.2769 27.788 85.8269 27.602 85.2389 27.602C84.8309 27.602 84.4649 27.698 84.1409 27.89C83.8169 28.07 83.5649 28.346 83.3849 28.718C83.2049 29.09 83.1149 29.564 83.1149 30.14V35H80.3069V25.316H82.9889V27.962L82.4849 27.188C82.8209 26.528 83.2949 26.03 83.9069 25.694C84.5309 25.346 85.2389 25.172 86.0309 25.172C86.9189 25.172 87.6929 25.4 88.3529 25.856C89.0249 26.3 89.4689 26.984 89.6849 27.908L88.6949 27.638C89.0189 26.882 89.5349 26.282 90.2429 25.838C90.9629 25.394 91.7849 25.172 92.7089 25.172ZM104.422 35.144C103.318 35.144 102.346 34.928 101.506 34.496C100.678 34.064 100.036 33.476 99.5802 32.732C99.1242 31.976 98.8962 31.118 98.8962 30.158C98.8962 29.186 99.1182 28.328 99.5622 27.584C100.018 26.828 100.636 26.24 101.416 25.82C102.196 25.388 103.078 25.172 104.062 25.172C105.01 25.172 105.862 25.376 106.618 25.784C107.386 26.18 107.992 26.756 108.436 27.512C108.88 28.256 109.102 29.15 109.102 30.194C109.102 30.302 109.096 30.428 109.084 30.572C109.072 30.704 109.06 30.83 109.048 30.95H101.182V29.312H107.572L106.492 29.798C106.492 29.294 106.39 28.856 106.186 28.484C105.982 28.112 105.7 27.824 105.34 27.62C104.98 27.404 104.56 27.296 104.08 27.296C103.6 27.296 103.174 27.404 102.802 27.62C102.442 27.824 102.16 28.118 101.956 28.502C101.752 28.874 101.65 29.318 101.65 29.834V30.266C101.65 30.794 101.764 31.262 101.992 31.67C102.232 32.066 102.562 32.372 102.982 32.588C103.414 32.792 103.918 32.894 104.494 32.894C105.01 32.894 105.46 32.816 105.844 32.66C106.24 32.504 106.6 32.27 106.924 31.958L108.418 33.578C107.974 34.082 107.416 34.472 106.744 34.748C106.072 35.012 105.298 35.144 104.422 35.144ZM111.332 35V25.316H114.014V28.052L113.636 27.26C113.924 26.576 114.386 26.06 115.022 25.712C115.658 25.352 116.432 25.172 117.344 25.172V27.764C117.224 27.752 117.116 27.746 117.02 27.746C116.924 27.734 116.822 27.728 116.714 27.728C115.946 27.728 115.322 27.95 114.842 28.394C114.374 28.826 114.14 29.504 114.14 30.428V35H111.332ZM122.702 35.144C121.874 35.144 121.076 35.048 120.308 34.856C119.552 34.652 118.952 34.4 118.508 34.1L119.444 32.084C119.888 32.36 120.41 32.588 121.01 32.768C121.622 32.936 122.222 33.02 122.81 33.02C123.458 33.02 123.914 32.942 124.178 32.786C124.454 32.63 124.592 32.414 124.592 32.138C124.592 31.91 124.484 31.742 124.268 31.634C124.064 31.514 123.788 31.424 123.44 31.364C123.092 31.304 122.708 31.244 122.288 31.184C121.88 31.124 121.466 31.046 121.046 30.95C120.626 30.842 120.242 30.686 119.894 30.482C119.546 30.278 119.264 30.002 119.048 29.654C118.844 29.306 118.742 28.856 118.742 28.304C118.742 27.692 118.916 27.152 119.264 26.684C119.624 26.216 120.14 25.85 120.812 25.586C121.484 25.31 122.288 25.172 123.224 25.172C123.884 25.172 124.556 25.244 125.24 25.388C125.924 25.532 126.494 25.742 126.95 26.018L126.014 28.016C125.546 27.74 125.072 27.554 124.592 27.458C124.124 27.35 123.668 27.296 123.224 27.296C122.6 27.296 122.144 27.38 121.856 27.548C121.568 27.716 121.424 27.932 121.424 28.196C121.424 28.436 121.526 28.616 121.73 28.736C121.946 28.856 122.228 28.952 122.576 29.024C122.924 29.096 123.302 29.162 123.71 29.222C124.13 29.27 124.55 29.348 124.97 29.456C125.39 29.564 125.768 29.72 126.104 29.924C126.452 30.116 126.734 30.386 126.95 30.734C127.166 31.07 127.274 31.514 127.274 32.066C127.274 32.666 127.094 33.2 126.734 33.668C126.374 34.124 125.852 34.484 125.168 34.748C124.496 35.012 123.674 35.144 122.702 35.144ZM135.022 35V22.4H140.476C141.604 22.4 142.576 22.586 143.392 22.958C144.208 23.318 144.838 23.84 145.282 24.524C145.726 25.208 145.948 26.024 145.948 26.972C145.948 27.908 145.726 28.718 145.282 29.402C144.838 30.074 144.208 30.59 143.392 30.95C142.576 31.31 141.604 31.49 140.476 31.49H136.642L137.938 30.212V35H135.022ZM143.032 35L139.882 30.428H142.996L146.182 35H143.032ZM137.938 30.536L136.642 29.168H140.314C141.214 29.168 141.886 28.976 142.33 28.592C142.774 28.196 142.996 27.656 142.996 26.972C142.996 26.276 142.774 25.736 142.33 25.352C141.886 24.968 141.214 24.776 140.314 24.776H136.642L137.938 23.39V30.536ZM153.226 35.144C152.122 35.144 151.15 34.928 150.31 34.496C149.482 34.064 148.84 33.476 148.384 32.732C147.928 31.976 147.7 31.118 147.7 30.158C147.7 29.186 147.922 28.328 148.366 27.584C148.822 26.828 149.44 26.24 150.22 25.82C151 25.388 151.882 25.172 152.866 25.172C153.814 25.172 154.666 25.376 155.422 25.784C156.19 26.18 156.796 26.756 157.24 27.512C157.684 28.256 157.906 29.15 157.906 30.194C157.906 30.302 157.9 30.428 157.888 30.572C157.876 30.704 157.864 30.83 157.852 30.95H149.986V29.312H156.376L155.296 29.798C155.296 29.294 155.194 28.856 154.99 28.484C154.786 28.112 154.504 27.824 154.144 27.62C153.784 27.404 153.364 27.296 152.884 27.296C152.404 27.296 151.978 27.404 151.606 27.62C151.246 27.824 150.964 28.118 150.76 28.502C150.556 28.874 150.454 29.318 150.454 29.834V30.266C150.454 30.794 150.568 31.262 150.796 31.67C151.036 32.066 151.366 32.372 151.786 32.588C152.218 32.792 152.722 32.894 153.298 32.894C153.814 32.894 154.264 32.816 154.648 32.66C155.044 32.504 155.404 32.27 155.728 31.958L157.222 33.578C156.778 34.082 156.22 34.472 155.548 34.748C154.876 35.012 154.102 35.144 153.226 35.144ZM162.588 35L158.52 25.316H161.418L164.802 33.65H163.362L166.872 25.316H169.572L165.486 35H162.588ZM171.078 35V25.316H173.886V35H171.078ZM172.482 23.966C171.966 23.966 171.546 23.816 171.222 23.516C170.898 23.216 170.736 22.844 170.736 22.4C170.736 21.956 170.898 21.584 171.222 21.284C171.546 20.984 171.966 20.834 172.482 20.834C172.998 20.834 173.418 20.978 173.742 21.266C174.066 21.542 174.228 21.902 174.228 22.346C174.228 22.814 174.066 23.204 173.742 23.516C173.43 23.816 173.01 23.966 172.482 23.966ZM181.658 35.144C180.554 35.144 179.582 34.928 178.742 34.496C177.914 34.064 177.272 33.476 176.816 32.732C176.36 31.976 176.132 31.118 176.132 30.158C176.132 29.186 176.354 28.328 176.798 27.584C177.254 26.828 177.872 26.24 178.652 25.82C179.432 25.388 180.314 25.172 181.298 25.172C182.246 25.172 183.098 25.376 183.854 25.784C184.622 26.18 185.228 26.756 185.672 27.512C186.116 28.256 186.338 29.15 186.338 30.194C186.338 30.302 186.332 30.428 186.32 30.572C186.308 30.704 186.296 30.83 186.284 30.95H178.418V29.312H184.808L183.728 29.798C183.728 29.294 183.626 28.856 183.422 28.484C183.218 28.112 182.936 27.824 182.576 27.62C182.216 27.404 181.796 27.296 181.316 27.296C180.836 27.296 180.41 27.404 180.038 27.62C179.678 27.824 179.396 28.118 179.192 28.502C178.988 28.874 178.886 29.318 178.886 29.834V30.266C178.886 30.794 179 31.262 179.228 31.67C179.468 32.066 179.798 32.372 180.218 32.588C180.65 32.792 181.154 32.894 181.73 32.894C182.246 32.894 182.696 32.816 183.08 32.66C183.476 32.504 183.836 32.27 184.16 31.958L185.654 33.578C185.21 34.082 184.652 34.472 183.98 34.748C183.308 35.012 182.534 35.144 181.658 35.144ZM190.605 35L187.113 25.316H189.759L192.657 33.65H191.397L194.421 25.316H196.797L199.731 33.65H198.471L201.459 25.316H203.943L200.433 35H197.715L195.141 27.854H195.969L193.305 35H190.605ZM208.726 35.144C207.898 35.144 207.1 35.048 206.332 34.856C205.576 34.652 204.976 34.4 204.532 34.1L205.468 32.084C205.912 32.36 206.434 32.588 207.034 32.768C207.646 32.936 208.246 33.02 208.834 33.02C209.482 33.02 209.938 32.942 210.202 32.786C210.478 32.63 210.616 32.414 210.616 32.138C210.616 31.91 210.508 31.742 210.292 31.634C210.088 31.514 209.812 31.424 209.464 31.364C209.116 31.304 208.732 31.244 208.312 31.184C207.904 31.124 207.49 31.046 207.07 30.95C206.65 30.842 206.266 30.686 205.918 30.482C205.57 30.278 205.288 30.002 205.072 29.654C204.868 29.306 204.766 28.856 204.766 28.304C204.766 27.692 204.94 27.152 205.288 26.684C205.648 26.216 206.164 25.85 206.836 25.586C207.508 25.31 208.312 25.172 209.248 25.172C209.908 25.172 210.58 25.244 211.264 25.388C211.948 25.532 212.518 25.742 212.974 26.018L212.038 28.016C211.57 27.74 211.096 27.554 210.616 27.458C210.148 27.35 209.692 27.296 209.248 27.296C208.624 27.296 208.168 27.38 207.88 27.548C207.592 27.716 207.448 27.932 207.448 28.196C207.448 28.436 207.55 28.616 207.754 28.736C207.97 28.856 208.252 28.952 208.6 29.024C208.948 29.096 209.326 29.162 209.734 29.222C210.154 29.27 210.574 29.348 210.994 29.456C211.414 29.564 211.792 29.72 212.128 29.924C212.476 30.116 212.758 30.386 212.974 30.734C213.19 31.07 213.298 31.514 213.298 32.066C213.298 32.666 213.118 33.2 212.758 33.668C212.398 34.124 211.876 34.484 211.192 34.748C210.52 35.012 209.698 35.144 208.726 35.144Z" fill="#181818"/>
<path d="M24.25 77.9999V74.4999C24.25 73.7916 24.4325 73.1403 24.7975 72.5462C25.1625 71.952 25.6467 71.4991 26.25 71.1874C27.5417 70.5416 28.8542 70.057 30.1875 69.7337C31.5208 69.4103 32.875 69.2491 34.25 69.2499C35.625 69.2499 36.9792 69.4116 38.3125 69.7349C39.6458 70.0582 40.9583 70.5424 42.25 71.1874C42.8542 71.4999 43.3388 71.9532 43.7038 72.5474C44.0688 73.1416 44.2508 73.7924 44.25 74.4999V77.9999H24.25ZM46.75 77.9999V74.2499C46.75 73.3332 46.4946 72.4528 45.9838 71.6087C45.4729 70.7645 44.7492 70.0407 43.8125 69.4374C44.875 69.5624 45.875 69.7762 46.8125 70.0787C47.75 70.3812 48.625 70.7507 49.4375 71.1874C50.1875 71.6041 50.7604 72.0674 51.1563 72.5774C51.5521 73.0874 51.75 73.6449 51.75 74.2499V77.9999H46.75ZM34.25 67.9999C32.875 67.9999 31.6979 67.5103 30.7188 66.5312C29.7396 65.552 29.25 64.3749 29.25 62.9999C29.25 61.6249 29.7396 60.4478 30.7188 59.4687C31.6979 58.4895 32.875 57.9999 34.25 57.9999C35.625 57.9999 36.8021 58.4895 37.7813 59.4687C38.7604 60.4478 39.25 61.6249 39.25 62.9999C39.25 64.3749 38.7604 65.552 37.7813 66.5312C36.8021 67.5103 35.625 67.9999 34.25 67.9999ZM46.75 62.9999C46.75 64.3749 46.2604 65.552 45.2813 66.5312C44.3021 67.5103 43.125 67.9999 41.75 67.9999C41.5208 67.9999 41.2292 67.9737 40.875 67.9212C40.5208 67.8687 40.2292 67.8116 40 67.7499C40.5625 67.0832 40.995 66.3437 41.2975 65.5312C41.6 64.7187 41.7508 63.8749 41.75 62.9999C41.75 62.1249 41.5992 61.2812 41.2975 60.4687C40.9958 59.6562 40.5633 58.9166 40 58.2499C40.2917 58.1457 40.5833 58.0778 40.875 58.0462C41.1667 58.0145 41.4583 57.9991 41.75 57.9999C43.125 57.9999 44.3021 58.4895 45.2813 59.4687C46.2604 60.4478 46.75 61.6249 46.75 62.9999Z" fill="#3A3A3A"/>
<path d="M71.112 68.568L66.664 79H65.192L69.704 68.712H63.528V67.464H71.112V68.568ZM73.3664 73.096C73.3664 71.2613 73.665 69.832 74.2624 68.808C74.8597 67.7733 75.905 67.256 77.3984 67.256C78.881 67.256 79.921 67.7733 80.5184 68.808C81.1157 69.832 81.4144 71.2613 81.4144 73.096C81.4144 74.9627 81.1157 76.4133 80.5184 77.448C79.921 78.4827 78.881 79 77.3984 79C75.905 79 74.8597 78.4827 74.2624 77.448C73.665 76.4133 73.3664 74.9627 73.3664 73.096ZM79.9744 73.096C79.9744 72.168 79.9104 71.384 79.7824 70.744C79.665 70.0933 79.4144 69.5707 79.0304 69.176C78.657 68.7813 78.113 68.584 77.3984 68.584C76.673 68.584 76.1184 68.7813 75.7344 69.176C75.361 69.5707 75.1104 70.0933 74.9824 70.744C74.865 71.384 74.8064 72.168 74.8064 73.096C74.8064 74.056 74.865 74.8613 74.9824 75.512C75.1104 76.1627 75.361 76.6853 75.7344 77.08C76.1184 77.4747 76.673 77.672 77.3984 77.672C78.113 77.672 78.657 77.4747 79.0304 77.08C79.4144 76.6853 79.665 76.1627 79.7824 75.512C79.9104 74.8613 79.9744 74.056 79.9744 73.096Z" fill="#3A3A3A"/>
<defs>
<linearGradient id="paint0_linear_817_10126" x1="234" y1="10.8214" x2="193.226" y2="153.391" gradientUnits="userSpaceOnUse">
<stop stop-color="#F2D741"/>
<stop offset="1" stop-color="#118924"/>
</linearGradient>
</defs>
</svg>
