<svg width="234" height="101" viewBox="0 0 234 101" fill="none" xmlns="http://www.w3.org/2000/svg">
<path d="M1 19.2C1 15.8232 1.00078 13.3507 1.16017 11.3999C1.31861 9.46067 1.62877 8.12511 2.19893 7.0061C3.25354 4.93632 4.93632 3.25354 7.0061 2.19893C8.12511 1.62877 9.46067 1.31861 11.3999 1.16017C13.3507 1.00078 15.8232 1 19.2 1H214.8C218.177 1 220.649 1.00078 222.6 1.16017C224.539 1.31861 225.875 1.62877 226.994 2.19893C229.064 3.25353 230.746 4.93632 231.801 7.0061C232.371 8.12511 232.681 9.46067 232.84 11.3999C232.999 13.3507 233 15.8232 233 19.2V81.8C233 85.1768 232.999 87.6493 232.84 89.6001C232.681 91.5393 232.371 92.8749 231.801 93.9939C230.746 96.0637 229.064 97.7465 226.994 98.8011C225.875 99.3712 224.539 99.6814 222.6 99.8398C220.649 99.9992 218.177 100 214.8 100H19.2C15.8232 100 13.3507 99.9992 11.3999 99.8398C9.46067 99.6814 8.12511 99.3712 7.0061 98.8011C4.93632 97.7465 3.25354 96.0637 2.19893 93.9939C1.62877 92.8749 1.31861 91.5393 1.16017 89.6002C1.00078 87.6493 1 85.1768 1 81.8V19.2Z" fill="white" stroke="url(#paint0_linear_817_10116)" stroke-width="2"/>
<path d="M24.494 38V25.4H26.906L32.27 34.292H30.992L36.266 25.4H38.66L38.696 38H35.96L35.942 29.594H36.446L32.234 36.668H30.92L26.618 29.594H27.23V38H24.494ZM43.0714 41.636C42.5674 41.636 42.0694 41.558 41.5774 41.402C41.0854 41.246 40.6834 41.03 40.3714 40.754L41.3974 38.756C41.6134 38.948 41.8594 39.098 42.1354 39.206C42.4234 39.314 42.7054 39.368 42.9814 39.368C43.3774 39.368 43.6894 39.272 43.9174 39.08C44.1574 38.9 44.3734 38.594 44.5654 38.162L45.0694 36.974L45.2854 36.668L48.7594 28.316H51.4594L47.0854 38.594C46.7734 39.374 46.4134 39.986 46.0054 40.43C45.6094 40.874 45.1654 41.186 44.6734 41.366C44.1934 41.546 43.6594 41.636 43.0714 41.636ZM44.7274 38.378L40.4074 28.316H43.3054L46.6534 36.416L44.7274 38.378ZM58.6209 38V25.4H64.0749C65.2029 25.4 66.1749 25.586 66.9909 25.958C67.8069 26.318 68.4369 26.84 68.8809 27.524C69.3249 28.208 69.5469 29.024 69.5469 29.972C69.5469 30.908 69.3249 31.718 68.8809 32.402C68.4369 33.074 67.8069 33.59 66.9909 33.95C66.1749 34.31 65.2029 34.49 64.0749 34.49H60.2409L61.5369 33.212V38H58.6209ZM66.6309 38L63.4809 33.428H66.5949L69.7809 38H66.6309ZM61.5369 33.536L60.2409 32.168H63.9129C64.8129 32.168 65.4849 31.976 65.9289 31.592C66.3729 31.196 66.5949 30.656 66.5949 29.972C66.5949 29.276 66.3729 28.736 65.9289 28.352C65.4849 27.968 64.8129 27.776 63.9129 27.776H60.2409L61.5369 26.39V33.536ZM76.8252 38.144C75.7212 38.144 74.7492 37.928 73.9092 37.496C73.0812 37.064 72.4392 36.476 71.9832 35.732C71.5272 34.976 71.2992 34.118 71.2992 33.158C71.2992 32.186 71.5212 31.328 71.9652 30.584C72.4212 29.828 73.0392 29.24 73.8192 28.82C74.5992 28.388 75.4812 28.172 76.4652 28.172C77.4132 28.172 78.2652 28.376 79.0212 28.784C79.7892 29.18 80.3952 29.756 80.8392 30.512C81.2832 31.256 81.5052 32.15 81.5052 33.194C81.5052 33.302 81.4992 33.428 81.4872 33.572C81.4752 33.704 81.4632 33.83 81.4512 33.95H73.5852V32.312H79.9752L78.8952 32.798C78.8952 32.294 78.7932 31.856 78.5892 31.484C78.3852 31.112 78.1032 30.824 77.7432 30.62C77.3832 30.404 76.9632 30.296 76.4832 30.296C76.0032 30.296 75.5772 30.404 75.2052 30.62C74.8452 30.824 74.5632 31.118 74.3592 31.502C74.1552 31.874 74.0532 32.318 74.0532 32.834V33.266C74.0532 33.794 74.1672 34.262 74.3952 34.67C74.6352 35.066 74.9652 35.372 75.3852 35.588C75.8172 35.792 76.3212 35.894 76.8972 35.894C77.4132 35.894 77.8632 35.816 78.2472 35.66C78.6432 35.504 79.0032 35.27 79.3272 34.958L80.8212 36.578C80.3772 37.082 79.8192 37.472 79.1472 37.748C78.4752 38.012 77.7012 38.144 76.8252 38.144ZM86.1869 38L82.1189 28.316H85.0169L88.4009 36.65H86.9609L90.4709 28.316H93.1709L89.0849 38H86.1869ZM94.6767 38V28.316H97.4847V38H94.6767ZM96.0807 26.966C95.5647 26.966 95.1447 26.816 94.8207 26.516C94.4967 26.216 94.3347 25.844 94.3347 25.4C94.3347 24.956 94.4967 24.584 94.8207 24.284C95.1447 23.984 95.5647 23.834 96.0807 23.834C96.5967 23.834 97.0167 23.978 97.3407 24.266C97.6647 24.542 97.8267 24.902 97.8267 25.346C97.8267 25.814 97.6647 26.204 97.3407 26.516C97.0287 26.816 96.6087 26.966 96.0807 26.966ZM105.257 38.144C104.153 38.144 103.181 37.928 102.341 37.496C101.513 37.064 100.871 36.476 100.415 35.732C99.9588 34.976 99.7308 34.118 99.7308 33.158C99.7308 32.186 99.9528 31.328 100.397 30.584C100.853 29.828 101.471 29.24 102.251 28.82C103.031 28.388 103.913 28.172 104.897 28.172C105.845 28.172 106.697 28.376 107.453 28.784C108.221 29.18 108.827 29.756 109.271 30.512C109.715 31.256 109.937 32.15 109.937 33.194C109.937 33.302 109.931 33.428 109.919 33.572C109.907 33.704 109.895 33.83 109.883 33.95H102.017V32.312H108.407L107.327 32.798C107.327 32.294 107.225 31.856 107.021 31.484C106.817 31.112 106.535 30.824 106.175 30.62C105.815 30.404 105.395 30.296 104.915 30.296C104.435 30.296 104.009 30.404 103.637 30.62C103.277 30.824 102.995 31.118 102.791 31.502C102.587 31.874 102.485 32.318 102.485 32.834V33.266C102.485 33.794 102.599 34.262 102.827 34.67C103.067 35.066 103.397 35.372 103.817 35.588C104.249 35.792 104.753 35.894 105.329 35.894C105.845 35.894 106.295 35.816 106.679 35.66C107.075 35.504 107.435 35.27 107.759 34.958L109.253 36.578C108.809 37.082 108.251 37.472 107.579 37.748C106.907 38.012 106.133 38.144 105.257 38.144ZM114.204 38L110.712 28.316H113.358L116.256 36.65H114.996L118.02 28.316H120.396L123.33 36.65H122.07L125.058 28.316H127.542L124.032 38H121.314L118.74 30.854H119.568L116.904 38H114.204ZM132.325 38.144C131.497 38.144 130.699 38.048 129.931 37.856C129.175 37.652 128.575 37.4 128.131 37.1L129.067 35.084C129.511 35.36 130.033 35.588 130.633 35.768C131.245 35.936 131.845 36.02 132.433 36.02C133.081 36.02 133.537 35.942 133.801 35.786C134.077 35.63 134.215 35.414 134.215 35.138C134.215 34.91 134.107 34.742 133.891 34.634C133.687 34.514 133.411 34.424 133.063 34.364C132.715 34.304 132.331 34.244 131.911 34.184C131.503 34.124 131.089 34.046 130.669 33.95C130.249 33.842 129.865 33.686 129.517 33.482C129.169 33.278 128.887 33.002 128.671 32.654C128.467 32.306 128.365 31.856 128.365 31.304C128.365 30.692 128.539 30.152 128.887 29.684C129.247 29.216 129.763 28.85 130.435 28.586C131.107 28.31 131.911 28.172 132.847 28.172C133.507 28.172 134.179 28.244 134.863 28.388C135.547 28.532 136.117 28.742 136.573 29.018L135.637 31.016C135.169 30.74 134.695 30.554 134.215 30.458C133.747 30.35 133.291 30.296 132.847 30.296C132.223 30.296 131.767 30.38 131.479 30.548C131.191 30.716 131.047 30.932 131.047 31.196C131.047 31.436 131.149 31.616 131.353 31.736C131.569 31.856 131.851 31.952 132.199 32.024C132.547 32.096 132.925 32.162 133.333 32.222C133.753 32.27 134.173 32.348 134.593 32.456C135.013 32.564 135.391 32.72 135.727 32.924C136.075 33.116 136.357 33.386 136.573 33.734C136.789 34.07 136.897 34.514 136.897 35.066C136.897 35.666 136.717 36.2 136.357 36.668C135.997 37.124 135.475 37.484 134.791 37.748C134.119 38.012 133.297 38.144 132.325 38.144Z" fill="#181818"/>
<path d="M35.5 69.75C28.1 69.75 25.5 73.5 25.5 76V79.75H45.5V76C45.5 73.5 42.9 69.75 35.5 69.75Z" fill="#3A3A3A"/>
<path d="M35.5 68.5C38.6066 68.5 41.125 65.9816 41.125 62.875C41.125 59.7684 38.6066 57.25 35.5 57.25C32.3934 57.25 29.875 59.7684 29.875 62.875C29.875 65.9816 32.3934 68.5 35.5 68.5Z" fill="#3A3A3A"/>
<path d="M58.96 70.344C59.0347 69.3627 59.4133 68.5947 60.096 68.04C60.7787 67.4853 61.664 67.208 62.752 67.208C63.4773 67.208 64.1013 67.3413 64.624 67.608C65.1573 67.864 65.5573 68.216 65.824 68.664C66.1013 69.112 66.24 69.6187 66.24 70.184C66.24 70.8453 66.048 71.416 65.664 71.896C65.2907 72.376 64.8 72.6853 64.192 72.824V72.904C64.8853 73.0747 65.4347 73.4107 65.84 73.912C66.2453 74.4133 66.448 75.0693 66.448 75.88C66.448 76.488 66.3093 77.0373 66.032 77.528C65.7547 78.008 65.3387 78.3867 64.784 78.664C64.2293 78.9413 63.5627 79.08 62.784 79.08C61.6533 79.08 60.7253 78.7867 60 78.2C59.2747 77.6027 58.8693 76.76 58.784 75.672H60.192C60.2667 76.312 60.528 76.8347 60.976 77.24C61.424 77.6453 62.0213 77.848 62.768 77.848C63.5147 77.848 64.08 77.656 64.464 77.272C64.8587 76.8773 65.056 76.3707 65.056 75.752C65.056 74.952 64.7893 74.376 64.256 74.024C63.7227 73.672 62.9173 73.496 61.84 73.496H61.472V72.28H61.856C62.8373 72.2693 63.5787 72.1093 64.08 71.8C64.5813 71.48 64.832 70.9893 64.832 70.328C64.832 69.7627 64.6453 69.3093 64.272 68.968C63.9093 68.6267 63.3867 68.456 62.704 68.456C62.0427 68.456 61.5093 68.6267 61.104 68.968C60.6987 69.3093 60.4587 69.768 60.384 70.344H58.96ZM69.0539 73.096C69.0539 71.2613 69.3525 69.832 69.9499 68.808C70.5472 67.7733 71.5925 67.256 73.0859 67.256C74.5685 67.256 75.6085 67.7733 76.2059 68.808C76.8032 69.832 77.1019 71.2613 77.1019 73.096C77.1019 74.9627 76.8032 76.4133 76.2059 77.448C75.6085 78.4827 74.5685 79 73.0859 79C71.5925 79 70.5472 78.4827 69.9499 77.448C69.3525 76.4133 69.0539 74.9627 69.0539 73.096ZM75.6619 73.096C75.6619 72.168 75.5979 71.384 75.4699 70.744C75.3525 70.0933 75.1019 69.5707 74.7179 69.176C74.3445 68.7813 73.8005 68.584 73.0859 68.584C72.3605 68.584 71.8059 68.7813 71.4219 69.176C71.0485 69.5707 70.7979 70.0933 70.6699 70.744C70.5525 71.384 70.4939 72.168 70.4939 73.096C70.4939 74.056 70.5525 74.8613 70.6699 75.512C70.7979 76.1627 71.0485 76.6853 71.4219 77.08C71.8059 77.4747 72.3605 77.672 73.0859 77.672C73.8005 77.672 74.3445 77.4747 74.7179 77.08C75.1019 76.6853 75.3525 76.1627 75.4699 75.512C75.5979 74.8613 75.6619 74.056 75.6619 73.096Z" fill="#3A3A3A"/>
<defs>
<linearGradient id="paint0_linear_817_10116" x1="234" y1="10.8214" x2="193.226" y2="153.391" gradientUnits="userSpaceOnUse">
<stop stop-color="#F2D741"/>
<stop offset="1" stop-color="#118924"/>
</linearGradient>
</defs>
</svg>
