<svg width="208" height="101" viewBox="0 0 208 101" fill="none" xmlns="http://www.w3.org/2000/svg">
<rect x="0.5" y="0.5" width="207" height="100" rx="11.5" fill="white" stroke="url(#paint0_linear_817_8340)"/>
<rect x="0.5" y="0.5" width="207" height="100" rx="11.5" fill="white" stroke="url(#paint1_linear_817_8340)"/>
<path d="M75.986 45.216C75.11 45.216 74.24 45.102 73.376 44.874C72.524 44.634 71.792 44.298 71.18 43.866L72.332 41.634C72.812 41.982 73.364 42.258 73.988 42.462C74.624 42.666 75.266 42.768 75.914 42.768C76.646 42.768 77.222 42.624 77.642 42.336C78.062 42.048 78.272 41.646 78.272 41.13C78.272 40.806 78.188 40.518 78.02 40.266C77.852 40.014 77.552 39.822 77.12 39.69C76.7 39.558 76.106 39.492 75.338 39.492H72.116L72.764 32.4H80.45V34.74H73.808L75.32 33.408L74.87 38.466L73.358 37.134H76.022C77.27 37.134 78.272 37.308 79.028 37.656C79.796 37.992 80.354 38.454 80.702 39.042C81.05 39.63 81.224 40.296 81.224 41.04C81.224 41.784 81.038 42.474 80.666 43.11C80.294 43.734 79.718 44.244 78.938 44.64C78.17 45.024 77.186 45.216 75.986 45.216ZM88.1671 45.216C87.1351 45.216 86.2111 44.964 85.3951 44.46C84.5791 43.944 83.9371 43.2 83.4691 42.228C83.0011 41.256 82.7671 40.08 82.7671 38.7C82.7671 37.32 83.0011 36.144 83.4691 35.172C83.9371 34.2 84.5791 33.462 85.3951 32.958C86.2111 32.442 87.1351 32.184 88.1671 32.184C89.2111 32.184 90.1351 32.442 90.9391 32.958C91.7551 33.462 92.3971 34.2 92.8651 35.172C93.3331 36.144 93.5671 37.32 93.5671 38.7C93.5671 40.08 93.3331 41.256 92.8651 42.228C92.3971 43.2 91.7551 43.944 90.9391 44.46C90.1351 44.964 89.2111 45.216 88.1671 45.216ZM88.1671 42.75C88.6591 42.75 89.0851 42.612 89.4451 42.336C89.8171 42.06 90.1051 41.622 90.3091 41.022C90.5251 40.422 90.6331 39.648 90.6331 38.7C90.6331 37.752 90.5251 36.978 90.3091 36.378C90.1051 35.778 89.8171 35.34 89.4451 35.064C89.0851 34.788 88.6591 34.65 88.1671 34.65C87.6871 34.65 87.2611 34.788 86.8891 35.064C86.5291 35.34 86.2411 35.778 86.0251 36.378C85.8211 36.978 85.7191 37.752 85.7191 38.7C85.7191 39.648 85.8211 40.422 86.0251 41.022C86.2411 41.622 86.5291 42.06 86.8891 42.336C87.2611 42.612 87.6871 42.75 88.1671 42.75ZM100.744 45.216C99.7119 45.216 98.7879 44.964 97.9719 44.46C97.1559 43.944 96.5139 43.2 96.0459 42.228C95.5779 41.256 95.3439 40.08 95.3439 38.7C95.3439 37.32 95.5779 36.144 96.0459 35.172C96.5139 34.2 97.1559 33.462 97.9719 32.958C98.7879 32.442 99.7119 32.184 100.744 32.184C101.788 32.184 102.712 32.442 103.516 32.958C104.332 33.462 104.974 34.2 105.442 35.172C105.91 36.144 106.144 37.32 106.144 38.7C106.144 40.08 105.91 41.256 105.442 42.228C104.974 43.2 104.332 43.944 103.516 44.46C102.712 44.964 101.788 45.216 100.744 45.216ZM100.744 42.75C101.236 42.75 101.662 42.612 102.022 42.336C102.394 42.06 102.682 41.622 102.886 41.022C103.102 40.422 103.21 39.648 103.21 38.7C103.21 37.752 103.102 36.978 102.886 36.378C102.682 35.778 102.394 35.34 102.022 35.064C101.662 34.788 101.236 34.65 100.744 34.65C100.264 34.65 99.8379 34.788 99.4659 35.064C99.1059 35.34 98.8179 35.778 98.6019 36.378C98.3979 36.978 98.2959 37.752 98.2959 38.7C98.2959 39.648 98.3979 40.422 98.6019 41.022C98.8179 41.622 99.1059 42.06 99.4659 42.336C99.8379 42.612 100.264 42.75 100.744 42.75ZM111.323 42.12L111.161 38.754L117.191 32.4H120.431L114.995 38.25L113.375 39.978L111.323 42.12ZM108.713 45V32.4H111.611V45H108.713ZM117.335 45L112.853 39.51L114.761 37.44L120.737 45H117.335ZM128.024 45.216C127.028 45.216 126.11 45.06 125.27 44.748C124.442 44.424 123.716 43.968 123.092 43.38C122.48 42.792 122 42.102 121.652 41.31C121.316 40.518 121.148 39.648 121.148 38.7C121.148 37.752 121.316 36.882 121.652 36.09C122 35.298 122.486 34.608 123.11 34.02C123.734 33.432 124.466 32.982 125.306 32.67C126.146 32.346 127.07 32.184 128.078 32.184C129.194 32.184 130.196 32.37 131.084 32.742C131.984 33.114 132.74 33.654 133.352 34.362L131.48 36.09C131.024 35.61 130.526 35.256 129.986 35.028C129.446 34.788 128.858 34.668 128.222 34.668C127.61 34.668 127.052 34.764 126.548 34.956C126.044 35.148 125.606 35.424 125.234 35.784C124.874 36.144 124.592 36.57 124.388 37.062C124.196 37.554 124.1 38.1 124.1 38.7C124.1 39.288 124.196 39.828 124.388 40.32C124.592 40.812 124.874 41.244 125.234 41.616C125.606 41.976 126.038 42.252 126.53 42.444C127.034 42.636 127.586 42.732 128.186 42.732C128.762 42.732 129.32 42.642 129.86 42.462C130.412 42.27 130.946 41.952 131.462 41.508L133.118 43.614C132.434 44.13 131.636 44.526 130.724 44.802C129.824 45.078 128.924 45.216 128.024 45.216ZM130.454 43.236V38.502H133.118V43.614L130.454 43.236Z" fill="#118924"/>
<path d="M38.096 61.848V63.032H35.056V73H33.6V63.032H30.544V61.848H38.096ZM44.0322 73.144C43.2109 73.144 42.4642 72.9573 41.7922 72.584C41.1309 72.2107 40.6082 71.6827 40.2242 71C39.8509 70.3067 39.6642 69.5067 39.6642 68.6C39.6642 67.704 39.8562 66.9147 40.2402 66.232C40.6349 65.5387 41.1682 65.0107 41.8402 64.648C42.5122 64.2747 43.2642 64.088 44.0963 64.088C44.9283 64.088 45.6803 64.2747 46.3523 64.648C47.0243 65.0107 47.5523 65.5333 47.9362 66.216C48.3309 66.8987 48.5282 67.6933 48.5282 68.6C48.5282 69.5067 48.3256 70.3067 47.9202 71C47.5256 71.6827 46.9869 72.2107 46.3043 72.584C45.6216 72.9573 44.8643 73.144 44.0322 73.144ZM44.0322 71.864C44.5549 71.864 45.0456 71.7413 45.5043 71.496C45.9629 71.2507 46.3309 70.8827 46.6083 70.392C46.8962 69.9013 47.0402 69.304 47.0402 68.6C47.0402 67.896 46.9016 67.2987 46.6242 66.808C46.3469 66.3173 45.9843 65.9547 45.5363 65.72C45.0883 65.4747 44.6029 65.352 44.0802 65.352C43.5469 65.352 43.0563 65.4747 42.6082 65.72C42.1709 65.9547 41.8189 66.3173 41.5522 66.808C41.2856 67.2987 41.1522 67.896 41.1522 68.6C41.1522 69.3147 41.2802 69.9173 41.5362 70.408C41.8029 70.8987 42.1549 71.2667 42.5922 71.512C43.0296 71.7467 43.5096 71.864 44.0322 71.864ZM52.5386 65.432V70.6C52.5386 71.0267 52.6293 71.3307 52.8106 71.512C52.992 71.6827 53.3066 71.768 53.7546 71.768H54.8266V73H53.5146C52.704 73 52.096 72.8133 51.6906 72.44C51.2853 72.0667 51.0826 71.4533 51.0826 70.6V65.432H49.9466V64.232H51.0826V62.024H52.5386V64.232H54.8266V65.432H52.5386ZM56.3667 68.584C56.3667 67.688 56.5481 66.904 56.9107 66.232C57.2734 65.5493 57.7694 65.0213 58.3987 64.648C59.0387 64.2747 59.7481 64.088 60.5267 64.088C61.2947 64.088 61.9614 64.2533 62.5267 64.584C63.0921 64.9147 63.5134 65.3307 63.7907 65.832V64.232H65.2627V73H63.7907V71.368C63.5027 71.88 63.0707 72.3067 62.4947 72.648C61.9294 72.9787 61.2681 73.144 60.5107 73.144C59.7321 73.144 59.0281 72.952 58.3987 72.568C57.7694 72.184 57.2734 71.6453 56.9107 70.952C56.5481 70.2587 56.3667 69.4693 56.3667 68.584ZM63.7907 68.6C63.7907 67.9387 63.6574 67.3627 63.3907 66.872C63.1241 66.3813 62.7614 66.008 62.3027 65.752C61.8547 65.4853 61.3587 65.352 60.8147 65.352C60.2707 65.352 59.7747 65.48 59.3267 65.736C58.8787 65.992 58.5214 66.3653 58.2547 66.856C57.9881 67.3467 57.8547 67.9227 57.8547 68.584C57.8547 69.256 57.9881 69.8427 58.2547 70.344C58.5214 70.8347 58.8787 71.2133 59.3267 71.48C59.7747 71.736 60.2707 71.864 60.8147 71.864C61.3587 71.864 61.8547 71.736 62.3027 71.48C62.7614 71.2133 63.1241 70.8347 63.3907 70.344C63.6574 69.8427 63.7907 69.2613 63.7907 68.6ZM69.4992 61.16V73H68.0432V61.16H69.4992ZM90.9024 61.848L87.6704 73H86.0384L83.4464 64.024L80.7584 73L79.1424 73.016L76.0224 61.848H77.5744L80.0064 71.304L82.6944 61.848H84.3264L86.8864 71.272L89.3344 61.848H90.9024ZM100.816 68.28C100.816 68.5573 100.8 68.8507 100.768 69.16H93.7598C93.8131 70.024 94.1064 70.7013 94.6398 71.192C95.1838 71.672 95.8398 71.912 96.6078 71.912C97.2371 71.912 97.7598 71.768 98.1758 71.48C98.6024 71.1813 98.9011 70.7867 99.0718 70.296H100.64C100.405 71.1387 99.9358 71.8267 99.2318 72.36C98.5278 72.8827 97.6531 73.144 96.6078 73.144C95.7758 73.144 95.0291 72.9573 94.3678 72.584C93.7171 72.2107 93.2051 71.6827 92.8318 71C92.4584 70.3067 92.2718 69.5067 92.2718 68.6C92.2718 67.6933 92.4531 66.8987 92.8158 66.216C93.1784 65.5333 93.6851 65.0107 94.3358 64.648C94.9971 64.2747 95.7544 64.088 96.6078 64.088C97.4398 64.088 98.1758 64.2693 98.8158 64.632C99.4558 64.9947 99.9464 65.496 100.288 66.136C100.64 66.7653 100.816 67.48 100.816 68.28ZM99.3118 67.976C99.3118 67.4213 99.1891 66.9467 98.9438 66.552C98.6984 66.1467 98.3624 65.8427 97.9358 65.64C97.5198 65.4267 97.0558 65.32 96.5438 65.32C95.8078 65.32 95.1784 65.5547 94.6558 66.024C94.1438 66.4933 93.8504 67.144 93.7758 67.976H99.3118ZM103.81 62.808C103.532 62.808 103.298 62.712 103.106 62.52C102.914 62.328 102.818 62.0933 102.818 61.816C102.818 61.5387 102.914 61.304 103.106 61.112C103.298 60.92 103.532 60.824 103.81 60.824C104.076 60.824 104.3 60.92 104.482 61.112C104.674 61.304 104.77 61.5387 104.77 61.816C104.77 62.0933 104.674 62.328 104.482 62.52C104.3 62.712 104.076 62.808 103.81 62.808ZM104.514 64.232V73H103.058V64.232H104.514ZM110.931 64.088C111.688 64.088 112.35 64.2533 112.915 64.584C113.491 64.9147 113.918 65.3307 114.195 65.832V64.232H115.667V73.192C115.667 73.992 115.496 74.7013 115.155 75.32C114.814 75.9493 114.323 76.44 113.683 76.792C113.054 77.144 112.318 77.32 111.475 77.32C110.323 77.32 109.363 77.048 108.595 76.504C107.827 75.96 107.374 75.2187 107.235 74.28H108.675C108.835 74.8133 109.166 75.24 109.667 75.56C110.168 75.8907 110.771 76.056 111.475 76.056C112.275 76.056 112.926 75.8053 113.427 75.304C113.939 74.8027 114.195 74.0987 114.195 73.192V71.352C113.907 71.864 113.48 72.2907 112.915 72.632C112.35 72.9733 111.688 73.144 110.931 73.144C110.152 73.144 109.443 72.952 108.803 72.568C108.174 72.184 107.678 71.6453 107.315 70.952C106.952 70.2587 106.771 69.4693 106.771 68.584C106.771 67.688 106.952 66.904 107.315 66.232C107.678 65.5493 108.174 65.0213 108.803 64.648C109.443 64.2747 110.152 64.088 110.931 64.088ZM114.195 68.6C114.195 67.9387 114.062 67.3627 113.795 66.872C113.528 66.3813 113.166 66.008 112.707 65.752C112.259 65.4853 111.763 65.352 111.219 65.352C110.675 65.352 110.179 65.48 109.731 65.736C109.283 65.992 108.926 66.3653 108.659 66.856C108.392 67.3467 108.259 67.9227 108.259 68.584C108.259 69.256 108.392 69.8427 108.659 70.344C108.926 70.8347 109.283 71.2133 109.731 71.48C110.179 71.736 110.675 71.864 111.219 71.864C111.763 71.864 112.259 71.736 112.707 71.48C113.166 71.2133 113.528 70.8347 113.795 70.344C114.062 69.8427 114.195 69.2613 114.195 68.6ZM122.8 64.072C123.461 64.072 124.058 64.216 124.592 64.504C125.125 64.7813 125.541 65.2027 125.84 65.768C126.149 66.3333 126.304 67.0213 126.304 67.832V73H124.864V68.04C124.864 67.1653 124.645 66.4987 124.208 66.04C123.77 65.5707 123.173 65.336 122.416 65.336C121.648 65.336 121.034 65.576 120.576 66.056C120.128 66.536 119.904 67.2347 119.904 68.152V73H118.448V61.16H119.904V65.48C120.192 65.032 120.586 64.6853 121.088 64.44C121.6 64.1947 122.17 64.072 122.8 64.072ZM130.778 65.432V70.6C130.778 71.0267 130.869 71.3307 131.05 71.512C131.231 71.6827 131.546 71.768 131.994 71.768H133.066V73H131.754C130.943 73 130.335 72.8133 129.93 72.44C129.525 72.0667 129.322 71.4533 129.322 70.6V65.432H128.186V64.232H129.322V62.024H130.778V64.232H133.066V65.432H130.778ZM143.272 73.112C142.536 73.112 141.874 72.984 141.288 72.728C140.712 72.4613 140.258 72.0987 139.928 71.64C139.597 71.1707 139.426 70.632 139.416 70.024H140.968C141.021 70.5467 141.234 70.9893 141.608 71.352C141.992 71.704 142.546 71.88 143.272 71.88C143.965 71.88 144.509 71.7093 144.904 71.368C145.309 71.016 145.512 70.568 145.512 70.024C145.512 69.5973 145.394 69.2507 145.16 68.984C144.925 68.7173 144.632 68.5147 144.28 68.376C143.928 68.2373 143.453 68.088 142.856 67.928C142.12 67.736 141.528 67.544 141.08 67.352C140.642 67.16 140.264 66.8613 139.944 66.456C139.634 66.04 139.48 65.4853 139.48 64.792C139.48 64.184 139.634 63.6453 139.944 63.176C140.253 62.7067 140.685 62.344 141.24 62.088C141.805 61.832 142.45 61.704 143.176 61.704C144.221 61.704 145.074 61.9653 145.736 62.488C146.408 63.0107 146.786 63.704 146.872 64.568H145.272C145.218 64.1413 144.994 63.768 144.6 63.448C144.205 63.1173 143.682 62.952 143.032 62.952C142.424 62.952 141.928 63.112 141.544 63.432C141.16 63.7413 140.968 64.1787 140.968 64.744C140.968 65.1493 141.08 65.48 141.304 65.736C141.538 65.992 141.821 66.1893 142.152 66.328C142.493 66.456 142.968 66.6053 143.576 66.776C144.312 66.9787 144.904 67.1813 145.352 67.384C145.8 67.576 146.184 67.88 146.504 68.296C146.824 68.7013 146.984 69.256 146.984 69.96C146.984 70.504 146.84 71.016 146.552 71.496C146.264 71.976 145.837 72.3653 145.272 72.664C144.706 72.9627 144.04 73.112 143.272 73.112ZM153.27 73.144C152.449 73.144 151.702 72.9573 151.03 72.584C150.369 72.2107 149.846 71.6827 149.462 71C149.089 70.3067 148.902 69.5067 148.902 68.6C148.902 67.704 149.094 66.9147 149.478 66.232C149.873 65.5387 150.406 65.0107 151.078 64.648C151.75 64.2747 152.502 64.088 153.334 64.088C154.166 64.088 154.918 64.2747 155.59 64.648C156.262 65.0107 156.79 65.5333 157.174 66.216C157.569 66.8987 157.766 67.6933 157.766 68.6C157.766 69.5067 157.564 70.3067 157.158 71C156.764 71.6827 156.225 72.2107 155.542 72.584C154.86 72.9573 154.102 73.144 153.27 73.144ZM153.27 71.864C153.793 71.864 154.284 71.7413 154.742 71.496C155.201 71.2507 155.569 70.8827 155.846 70.392C156.134 69.9013 156.278 69.304 156.278 68.6C156.278 67.896 156.14 67.2987 155.862 66.808C155.585 66.3173 155.222 65.9547 154.774 65.72C154.326 65.4747 153.841 65.352 153.318 65.352C152.785 65.352 152.294 65.4747 151.846 65.72C151.409 65.9547 151.057 66.3173 150.79 66.808C150.524 67.2987 150.39 67.896 150.39 68.6C150.39 69.3147 150.518 69.9173 150.774 70.408C151.041 70.8987 151.393 71.2667 151.83 71.512C152.268 71.7467 152.748 71.864 153.27 71.864ZM161.457 61.16V73H160.001V61.16H161.457ZM163.714 68.584C163.714 67.688 163.896 66.904 164.258 66.232C164.621 65.5493 165.117 65.0213 165.746 64.648C166.386 64.2747 167.101 64.088 167.89 64.088C168.573 64.088 169.208 64.248 169.794 64.568C170.381 64.8773 170.829 65.288 171.138 65.8V61.16H172.61V73H171.138V71.352C170.85 71.8747 170.424 72.3067 169.858 72.648C169.293 72.9787 168.632 73.144 167.874 73.144C167.096 73.144 166.386 72.952 165.746 72.568C165.117 72.184 164.621 71.6453 164.258 70.952C163.896 70.2587 163.714 69.4693 163.714 68.584ZM171.138 68.6C171.138 67.9387 171.005 67.3627 170.738 66.872C170.472 66.3813 170.109 66.008 169.65 65.752C169.202 65.4853 168.706 65.352 168.162 65.352C167.618 65.352 167.122 65.48 166.674 65.736C166.226 65.992 165.869 66.3653 165.602 66.856C165.336 67.3467 165.202 67.9227 165.202 68.584C165.202 69.256 165.336 69.8427 165.602 70.344C165.869 70.8347 166.226 71.2133 166.674 71.48C167.122 71.736 167.618 71.864 168.162 71.864C168.706 71.864 169.202 71.736 169.65 71.48C170.109 71.2133 170.472 70.8347 170.738 70.344C171.005 69.8427 171.138 69.2613 171.138 68.6Z" fill="#3A3A3A"/>
<defs>
<linearGradient id="paint0_linear_817_8340" x1="208" y1="10.8214" x2="163.033" y2="150.584" gradientUnits="userSpaceOnUse">
<stop stop-color="#F2D741"/>
<stop offset="1" stop-color="#118924"/>
</linearGradient>
<linearGradient id="paint1_linear_817_8340" x1="208" y1="10.8214" x2="163.033" y2="150.584" gradientUnits="userSpaceOnUse">
<stop stop-color="#F2D741"/>
<stop offset="1" stop-color="#118924"/>
</linearGradient>
</defs>
</svg>
