<svg width="208" height="101" viewBox="0 0 208 101" fill="none" xmlns="http://www.w3.org/2000/svg">
<rect x="0.5" y="0.5" width="207" height="100" rx="11.5" fill="white" stroke="url(#paint0_linear_817_8351)"/>
<rect x="0.5" y="0.5" width="207" height="100" rx="11.5" fill="white" stroke="url(#paint1_linear_817_8351)"/>
<path d="M71.02 45L72.586 32.4H74.602L73.054 45H71.02ZM64.36 42.12V40.158H75.988V42.12H64.36ZM66.358 45L67.924 32.4H69.94L68.374 45H66.358ZM64.972 37.242V35.28H76.582L76.6 37.242H64.972ZM83.6511 45.216C82.4991 45.216 81.4971 44.976 80.6451 44.496C79.8051 44.016 79.1571 43.314 78.7011 42.39C78.2451 41.466 78.0171 40.326 78.0171 38.97C78.0171 37.518 78.2871 36.288 78.8271 35.28C79.3791 34.272 80.1351 33.504 81.0951 32.976C82.0671 32.448 83.1831 32.184 84.4431 32.184C85.1151 32.184 85.7571 32.256 86.3691 32.4C86.9811 32.544 87.5091 32.76 87.9531 33.048L86.8731 35.19C86.5251 34.95 86.1531 34.788 85.7571 34.704C85.3611 34.608 84.9471 34.56 84.5151 34.56C83.4231 34.56 82.5591 34.89 81.9231 35.55C81.2871 36.21 80.9691 37.188 80.9691 38.484C80.9691 38.7 80.9691 38.94 80.9691 39.204C80.9811 39.468 81.0171 39.732 81.0771 39.996L80.2671 39.24C80.4951 38.772 80.7891 38.382 81.1491 38.07C81.5091 37.746 81.9351 37.506 82.4271 37.35C82.9311 37.182 83.4831 37.098 84.0831 37.098C84.8991 37.098 85.6311 37.26 86.2791 37.584C86.9271 37.908 87.4431 38.364 87.8271 38.952C88.2231 39.54 88.4211 40.23 88.4211 41.022C88.4211 41.874 88.2051 42.618 87.7731 43.254C87.3531 43.878 86.7831 44.364 86.0631 44.712C85.3551 45.048 84.5511 45.216 83.6511 45.216ZM83.4891 43.038C83.8971 43.038 84.2571 42.966 84.5691 42.822C84.8931 42.666 85.1451 42.444 85.3251 42.156C85.5051 41.868 85.5951 41.538 85.5951 41.166C85.5951 40.59 85.3971 40.134 85.0011 39.798C84.6171 39.45 84.1011 39.276 83.4531 39.276C83.0211 39.276 82.6431 39.36 82.3191 39.528C81.9951 39.684 81.7371 39.906 81.5451 40.194C81.3651 40.47 81.2751 40.794 81.2751 41.166C81.2751 41.526 81.3651 41.85 81.5451 42.138C81.7251 42.414 81.9771 42.636 82.3011 42.804C82.6251 42.96 83.0211 43.038 83.4891 43.038ZM95.238 45.216C94.206 45.216 93.282 44.964 92.466 44.46C91.65 43.944 91.008 43.2 90.54 42.228C90.072 41.256 89.838 40.08 89.838 38.7C89.838 37.32 90.072 36.144 90.54 35.172C91.008 34.2 91.65 33.462 92.466 32.958C93.282 32.442 94.206 32.184 95.238 32.184C96.282 32.184 97.206 32.442 98.01 32.958C98.826 33.462 99.468 34.2 99.936 35.172C100.404 36.144 100.638 37.32 100.638 38.7C100.638 40.08 100.404 41.256 99.936 42.228C99.468 43.2 98.826 43.944 98.01 44.46C97.206 44.964 96.282 45.216 95.238 45.216ZM95.238 42.75C95.73 42.75 96.156 42.612 96.516 42.336C96.888 42.06 97.176 41.622 97.38 41.022C97.596 40.422 97.704 39.648 97.704 38.7C97.704 37.752 97.596 36.978 97.38 36.378C97.176 35.778 96.888 35.34 96.516 35.064C96.156 34.788 95.73 34.65 95.238 34.65C94.758 34.65 94.332 34.788 93.96 35.064C93.6 35.34 93.312 35.778 93.096 36.378C92.892 36.978 92.79 37.752 92.79 38.7C92.79 39.648 92.892 40.422 93.096 41.022C93.312 41.622 93.6 42.06 93.96 42.336C94.332 42.612 94.758 42.75 95.238 42.75ZM102.294 47.772L103.482 43.452L103.878 45.072C103.362 45.072 102.936 44.922 102.6 44.622C102.276 44.322 102.114 43.908 102.114 43.38C102.114 42.852 102.282 42.432 102.618 42.12C102.954 41.808 103.368 41.652 103.86 41.652C104.364 41.652 104.778 41.814 105.102 42.138C105.426 42.45 105.588 42.864 105.588 43.38C105.588 43.536 105.576 43.692 105.552 43.848C105.528 43.992 105.48 44.172 105.408 44.388C105.348 44.592 105.246 44.856 105.102 45.18L104.076 47.772H102.294ZM112.429 45.216C111.397 45.216 110.473 44.964 109.657 44.46C108.841 43.944 108.199 43.2 107.731 42.228C107.263 41.256 107.029 40.08 107.029 38.7C107.029 37.32 107.263 36.144 107.731 35.172C108.199 34.2 108.841 33.462 109.657 32.958C110.473 32.442 111.397 32.184 112.429 32.184C113.473 32.184 114.397 32.442 115.201 32.958C116.017 33.462 116.659 34.2 117.127 35.172C117.595 36.144 117.829 37.32 117.829 38.7C117.829 40.08 117.595 41.256 117.127 42.228C116.659 43.2 116.017 43.944 115.201 44.46C114.397 44.964 113.473 45.216 112.429 45.216ZM112.429 42.75C112.921 42.75 113.347 42.612 113.707 42.336C114.079 42.06 114.367 41.622 114.571 41.022C114.787 40.422 114.895 39.648 114.895 38.7C114.895 37.752 114.787 36.978 114.571 36.378C114.367 35.778 114.079 35.34 113.707 35.064C113.347 34.788 112.921 34.65 112.429 34.65C111.949 34.65 111.523 34.788 111.151 35.064C110.791 35.34 110.503 35.778 110.287 36.378C110.083 36.978 109.981 37.752 109.981 38.7C109.981 39.648 110.083 40.422 110.287 41.022C110.503 41.622 110.791 42.06 111.151 42.336C111.523 42.612 111.949 42.75 112.429 42.75ZM125.006 45.216C123.974 45.216 123.05 44.964 122.234 44.46C121.418 43.944 120.776 43.2 120.308 42.228C119.84 41.256 119.606 40.08 119.606 38.7C119.606 37.32 119.84 36.144 120.308 35.172C120.776 34.2 121.418 33.462 122.234 32.958C123.05 32.442 123.974 32.184 125.006 32.184C126.05 32.184 126.974 32.442 127.778 32.958C128.594 33.462 129.236 34.2 129.704 35.172C130.172 36.144 130.406 37.32 130.406 38.7C130.406 40.08 130.172 41.256 129.704 42.228C129.236 43.2 128.594 43.944 127.778 44.46C126.974 44.964 126.05 45.216 125.006 45.216ZM125.006 42.75C125.498 42.75 125.924 42.612 126.284 42.336C126.656 42.06 126.944 41.622 127.148 41.022C127.364 40.422 127.472 39.648 127.472 38.7C127.472 37.752 127.364 36.978 127.148 36.378C126.944 35.778 126.656 35.34 126.284 35.064C125.924 34.788 125.498 34.65 125.006 34.65C124.526 34.65 124.1 34.788 123.728 35.064C123.368 35.34 123.08 35.778 122.864 36.378C122.66 36.978 122.558 37.752 122.558 38.7C122.558 39.648 122.66 40.422 122.864 41.022C123.08 41.622 123.368 42.06 123.728 42.336C124.1 42.612 124.526 42.75 125.006 42.75ZM137.582 45.216C136.55 45.216 135.626 44.964 134.81 44.46C133.994 43.944 133.352 43.2 132.884 42.228C132.416 41.256 132.182 40.08 132.182 38.7C132.182 37.32 132.416 36.144 132.884 35.172C133.352 34.2 133.994 33.462 134.81 32.958C135.626 32.442 136.55 32.184 137.582 32.184C138.626 32.184 139.55 32.442 140.354 32.958C141.17 33.462 141.812 34.2 142.28 35.172C142.748 36.144 142.982 37.32 142.982 38.7C142.982 40.08 142.748 41.256 142.28 42.228C141.812 43.2 141.17 43.944 140.354 44.46C139.55 44.964 138.626 45.216 137.582 45.216ZM137.582 42.75C138.074 42.75 138.5 42.612 138.86 42.336C139.232 42.06 139.52 41.622 139.724 41.022C139.94 40.422 140.048 39.648 140.048 38.7C140.048 37.752 139.94 36.978 139.724 36.378C139.52 35.778 139.232 35.34 138.86 35.064C138.5 34.788 138.074 34.65 137.582 34.65C137.102 34.65 136.676 34.788 136.304 35.064C135.944 35.34 135.656 35.778 135.44 36.378C135.236 36.978 135.134 37.752 135.134 38.7C135.134 39.648 135.236 40.422 135.44 41.022C135.656 41.622 135.944 42.06 136.304 42.336C136.676 42.612 137.102 42.75 137.582 42.75Z" fill="#118924"/>
<path d="M33.096 61.848V63.032H30.056V73H28.6V63.032H25.544V61.848H33.096ZM39.0322 73.144C38.2109 73.144 37.4642 72.9573 36.7922 72.584C36.1309 72.2107 35.6082 71.6827 35.2242 71C34.8509 70.3067 34.6642 69.5067 34.6642 68.6C34.6642 67.704 34.8562 66.9147 35.2402 66.232C35.6349 65.5387 36.1682 65.0107 36.8402 64.648C37.5122 64.2747 38.2642 64.088 39.0963 64.088C39.9283 64.088 40.6803 64.2747 41.3523 64.648C42.0243 65.0107 42.5523 65.5333 42.9362 66.216C43.3309 66.8987 43.5282 67.6933 43.5282 68.6C43.5282 69.5067 43.3256 70.3067 42.9202 71C42.5256 71.6827 41.9869 72.2107 41.3043 72.584C40.6216 72.9573 39.8643 73.144 39.0322 73.144ZM39.0322 71.864C39.5549 71.864 40.0456 71.7413 40.5043 71.496C40.9629 71.2507 41.3309 70.8827 41.6083 70.392C41.8962 69.9013 42.0402 69.304 42.0402 68.6C42.0402 67.896 41.9016 67.2987 41.6242 66.808C41.3469 66.3173 40.9843 65.9547 40.5363 65.72C40.0883 65.4747 39.6029 65.352 39.0802 65.352C38.5469 65.352 38.0563 65.4747 37.6082 65.72C37.1709 65.9547 36.8189 66.3173 36.5522 66.808C36.2856 67.2987 36.1522 67.896 36.1522 68.6C36.1522 69.3147 36.2802 69.9173 36.5362 70.408C36.8029 70.8987 37.1549 71.2667 37.5922 71.512C38.0296 71.7467 38.5096 71.864 39.0322 71.864ZM47.5386 65.432V70.6C47.5386 71.0267 47.6293 71.3307 47.8106 71.512C47.992 71.6827 48.3066 71.768 48.7546 71.768H49.8266V73H48.5146C47.704 73 47.096 72.8133 46.6906 72.44C46.2853 72.0667 46.0826 71.4533 46.0826 70.6V65.432H44.9466V64.232H46.0826V62.024H47.5386V64.232H49.8266V65.432H47.5386ZM51.3667 68.584C51.3667 67.688 51.5481 66.904 51.9107 66.232C52.2734 65.5493 52.7694 65.0213 53.3987 64.648C54.0387 64.2747 54.7481 64.088 55.5267 64.088C56.2947 64.088 56.9614 64.2533 57.5267 64.584C58.0921 64.9147 58.5134 65.3307 58.7907 65.832V64.232H60.2627V73H58.7907V71.368C58.5027 71.88 58.0707 72.3067 57.4947 72.648C56.9294 72.9787 56.2681 73.144 55.5107 73.144C54.7321 73.144 54.0281 72.952 53.3987 72.568C52.7694 72.184 52.2734 71.6453 51.9107 70.952C51.5481 70.2587 51.3667 69.4693 51.3667 68.584ZM58.7907 68.6C58.7907 67.9387 58.6574 67.3627 58.3907 66.872C58.1241 66.3813 57.7614 66.008 57.3027 65.752C56.8547 65.4853 56.3587 65.352 55.8147 65.352C55.2707 65.352 54.7747 65.48 54.3267 65.736C53.8787 65.992 53.5214 66.3653 53.2547 66.856C52.9881 67.3467 52.8547 67.9227 52.8547 68.584C52.8547 69.256 52.9881 69.8427 53.2547 70.344C53.5214 70.8347 53.8787 71.2133 54.3267 71.48C54.7747 71.736 55.2707 71.864 55.8147 71.864C56.3587 71.864 56.8547 71.736 57.3027 71.48C57.7614 71.2133 58.1241 70.8347 58.3907 70.344C58.6574 69.8427 58.7907 69.2613 58.7907 68.6ZM64.4992 61.16V73H63.0432V61.16H64.4992ZM78.4784 70.52H73.6144L72.7184 73H71.1824L75.2144 61.912H76.8944L80.9104 73H79.3744L78.4784 70.52ZM78.0624 69.336L76.0464 63.704L74.0304 69.336H78.0624ZM93.5316 64.072C94.2143 64.072 94.8223 64.216 95.3556 64.504C95.889 64.7813 96.3103 65.2027 96.6196 65.768C96.929 66.3333 97.0836 67.0213 97.0836 67.832V73H95.6436V68.04C95.6436 67.1653 95.425 66.4987 94.9876 66.04C94.561 65.5707 93.9796 65.336 93.2436 65.336C92.4863 65.336 91.8836 65.5813 91.4356 66.072C90.9876 66.552 90.7636 67.2507 90.7636 68.168V73H89.3236V68.04C89.3236 67.1653 89.105 66.4987 88.6676 66.04C88.241 65.5707 87.6596 65.336 86.9236 65.336C86.1663 65.336 85.5636 65.5813 85.1156 66.072C84.6676 66.552 84.4436 67.2507 84.4436 68.168V73H82.9876V64.232H84.4436V65.496C84.7316 65.0373 85.1156 64.6853 85.5956 64.44C86.0863 64.1947 86.625 64.072 87.2116 64.072C87.9476 64.072 88.5983 64.2373 89.1636 64.568C89.729 64.8987 90.1503 65.384 90.4276 66.024C90.673 65.4053 91.0783 64.9253 91.6436 64.584C92.209 64.2427 92.8383 64.072 93.5316 64.072ZM103.616 73.144C102.795 73.144 102.048 72.9573 101.376 72.584C100.715 72.2107 100.192 71.6827 99.808 71C99.4347 70.3067 99.248 69.5067 99.248 68.6C99.248 67.704 99.44 66.9147 99.824 66.232C100.219 65.5387 100.752 65.0107 101.424 64.648C102.096 64.2747 102.848 64.088 103.68 64.088C104.512 64.088 105.264 64.2747 105.936 64.648C106.608 65.0107 107.136 65.5333 107.52 66.216C107.915 66.8987 108.112 67.6933 108.112 68.6C108.112 69.5067 107.909 70.3067 107.504 71C107.109 71.6827 106.571 72.2107 105.888 72.584C105.205 72.9573 104.448 73.144 103.616 73.144ZM103.616 71.864C104.139 71.864 104.629 71.7413 105.088 71.496C105.547 71.2507 105.915 70.8827 106.192 70.392C106.48 69.9013 106.624 69.304 106.624 68.6C106.624 67.896 106.485 67.2987 106.208 66.808C105.931 66.3173 105.568 65.9547 105.12 65.72C104.672 65.4747 104.187 65.352 103.664 65.352C103.131 65.352 102.64 65.4747 102.192 65.72C101.755 65.9547 101.403 66.3173 101.136 66.808C100.869 67.2987 100.736 67.896 100.736 68.6C100.736 69.3147 100.864 69.9173 101.12 70.408C101.387 70.8987 101.739 71.2667 102.176 71.512C102.613 71.7467 103.093 71.864 103.616 71.864ZM118.122 64.232V73H116.666V71.704C116.389 72.152 116 72.504 115.498 72.76C115.008 73.0053 114.464 73.128 113.866 73.128C113.184 73.128 112.57 72.9893 112.026 72.712C111.482 72.424 111.05 71.9973 110.73 71.432C110.421 70.8667 110.266 70.1787 110.266 69.368V64.232H111.706V69.176C111.706 70.04 111.925 70.7067 112.362 71.176C112.8 71.6347 113.397 71.864 114.154 71.864C114.933 71.864 115.546 71.624 115.994 71.144C116.442 70.664 116.666 69.9653 116.666 69.048V64.232H118.122ZM125.173 64.072C126.239 64.072 127.103 64.3973 127.765 65.048C128.426 65.688 128.757 66.616 128.757 67.832V73H127.317V68.04C127.317 67.1653 127.098 66.4987 126.661 66.04C126.223 65.5707 125.626 65.336 124.869 65.336C124.101 65.336 123.487 65.576 123.029 66.056C122.581 66.536 122.357 67.2347 122.357 68.152V73H120.901V64.232H122.357V65.48C122.645 65.032 123.034 64.6853 123.525 64.44C124.026 64.1947 124.575 64.072 125.173 64.072ZM133.231 65.432V70.6C133.231 71.0267 133.322 71.3307 133.503 71.512C133.684 71.6827 133.999 71.768 134.447 71.768H135.519V73H134.207C133.396 73 132.788 72.8133 132.383 72.44C131.978 72.0667 131.775 71.4533 131.775 70.6V65.432H130.639V64.232H131.775V62.024H133.231V64.232H135.519V65.432H133.231ZM145.725 73.112C144.989 73.112 144.328 72.984 143.741 72.728C143.165 72.4613 142.712 72.0987 142.381 71.64C142.05 71.1707 141.88 70.632 141.869 70.024H143.421C143.474 70.5467 143.688 70.9893 144.061 71.352C144.445 71.704 145 71.88 145.725 71.88C146.418 71.88 146.962 71.7093 147.357 71.368C147.762 71.016 147.965 70.568 147.965 70.024C147.965 69.5973 147.848 69.2507 147.613 68.984C147.378 68.7173 147.085 68.5147 146.733 68.376C146.381 68.2373 145.906 68.088 145.309 67.928C144.573 67.736 143.981 67.544 143.533 67.352C143.096 67.16 142.717 66.8613 142.397 66.456C142.088 66.04 141.933 65.4853 141.933 64.792C141.933 64.184 142.088 63.6453 142.397 63.176C142.706 62.7067 143.138 62.344 143.693 62.088C144.258 61.832 144.904 61.704 145.629 61.704C146.674 61.704 147.528 61.9653 148.189 62.488C148.861 63.0107 149.24 63.704 149.325 64.568H147.725C147.672 64.1413 147.448 63.768 147.053 63.448C146.658 63.1173 146.136 62.952 145.485 62.952C144.877 62.952 144.381 63.112 143.997 63.432C143.613 63.7413 143.421 64.1787 143.421 64.744C143.421 65.1493 143.533 65.48 143.757 65.736C143.992 65.992 144.274 66.1893 144.605 66.328C144.946 66.456 145.421 66.6053 146.029 66.776C146.765 66.9787 147.357 67.1813 147.805 67.384C148.253 67.576 148.637 67.88 148.957 68.296C149.277 68.7013 149.437 69.256 149.437 69.96C149.437 70.504 149.293 71.016 149.005 71.496C148.717 71.976 148.29 72.3653 147.725 72.664C147.16 72.9627 146.493 73.112 145.725 73.112ZM155.724 73.144C154.902 73.144 154.156 72.9573 153.484 72.584C152.822 72.2107 152.3 71.6827 151.916 71C151.542 70.3067 151.356 69.5067 151.356 68.6C151.356 67.704 151.548 66.9147 151.932 66.232C152.326 65.5387 152.86 65.0107 153.532 64.648C154.204 64.2747 154.956 64.088 155.788 64.088C156.62 64.088 157.372 64.2747 158.044 64.648C158.716 65.0107 159.244 65.5333 159.628 66.216C160.022 66.8987 160.22 67.6933 160.22 68.6C160.22 69.5067 160.017 70.3067 159.612 71C159.217 71.6827 158.678 72.2107 157.996 72.584C157.313 72.9573 156.556 73.144 155.724 73.144ZM155.724 71.864C156.246 71.864 156.737 71.7413 157.196 71.496C157.654 71.2507 158.022 70.8827 158.3 70.392C158.588 69.9013 158.732 69.304 158.732 68.6C158.732 67.896 158.593 67.2987 158.316 66.808C158.038 66.3173 157.676 65.9547 157.228 65.72C156.78 65.4747 156.294 65.352 155.772 65.352C155.238 65.352 154.748 65.4747 154.3 65.72C153.862 65.9547 153.51 66.3173 153.244 66.808C152.977 67.2987 152.844 67.896 152.844 68.6C152.844 69.3147 152.972 69.9173 153.228 70.408C153.494 70.8987 153.846 71.2667 154.284 71.512C154.721 71.7467 155.201 71.864 155.724 71.864ZM163.91 61.16V73H162.454V61.16H163.91ZM166.167 68.584C166.167 67.688 166.349 66.904 166.711 66.232C167.074 65.5493 167.57 65.0213 168.199 64.648C168.839 64.2747 169.554 64.088 170.343 64.088C171.026 64.088 171.661 64.248 172.247 64.568C172.834 64.8773 173.282 65.288 173.591 65.8V61.16H175.063V73H173.591V71.352C173.303 71.8747 172.877 72.3067 172.311 72.648C171.746 72.9787 171.085 73.144 170.327 73.144C169.549 73.144 168.839 72.952 168.199 72.568C167.57 72.184 167.074 71.6453 166.711 70.952C166.349 70.2587 166.167 69.4693 166.167 68.584ZM173.591 68.6C173.591 67.9387 173.458 67.3627 173.191 66.872C172.925 66.3813 172.562 66.008 172.103 65.752C171.655 65.4853 171.159 65.352 170.615 65.352C170.071 65.352 169.575 65.48 169.127 65.736C168.679 65.992 168.322 66.3653 168.055 66.856C167.789 67.3467 167.655 67.9227 167.655 68.584C167.655 69.256 167.789 69.8427 168.055 70.344C168.322 70.8347 168.679 71.2133 169.127 71.48C169.575 71.736 170.071 71.864 170.615 71.864C171.159 71.864 171.655 71.736 172.103 71.48C172.562 71.2133 172.925 70.8347 173.191 70.344C173.458 69.8427 173.591 69.2613 173.591 68.6Z" fill="#3A3A3A"/>
<defs>
<linearGradient id="paint0_linear_817_8351" x1="208" y1="10.8214" x2="163.033" y2="150.584" gradientUnits="userSpaceOnUse">
<stop stop-color="#F2D741"/>
<stop offset="1" stop-color="#118924"/>
</linearGradient>
<linearGradient id="paint1_linear_817_8351" x1="208" y1="10.8214" x2="163.033" y2="150.584" gradientUnits="userSpaceOnUse">
<stop stop-color="#F2D741"/>
<stop offset="1" stop-color="#118924"/>
</linearGradient>
</defs>
</svg>
